<!DOCTYPE svg PUBLIC "-//W3C//DTD SVG 1.1//EN" "http://www.w3.org/Graphics/SVG/1.1/DTD/svg11.dtd">
<svg xmlns="http://www.w3.org/2000/svg" xmlns:xlink="http://www.w3.org/1999/xlink" version="1.1" width="681px" height="506px" viewBox="-0.5 -0.5 681 506"><defs><clipPath id="mx-clip-264-396-152-26-0"><rect x="264" y="396" width="152" height="26"/></clipPath><clipPath id="mx-clip-264-422-152-26-0"><rect x="264" y="422" width="152" height="26"/></clipPath><clipPath id="mx-clip-264-456-152-26-0"><rect x="264" y="456" width="152" height="26"/></clipPath><clipPath id="mx-clip-264-482-152-26-0"><rect x="264" y="482" width="152" height="26"/></clipPath><clipPath id="mx-clip-4-71-192-26-0"><rect x="4" y="71" width="192" height="26"/></clipPath><clipPath id="mx-clip-4-97-192-26-0"><rect x="4" y="97" width="192" height="26"/></clipPath><clipPath id="mx-clip-244-71-192-26-0"><rect x="244" y="71" width="192" height="26"/></clipPath><clipPath id="mx-clip-244-97-192-26-0"><rect x="244" y="97" width="192" height="26"/></clipPath><clipPath id="mx-clip-484-48-192-26-0"><rect x="484" y="48" width="192" height="26"/></clipPath><clipPath id="mx-clip-484-82-192-26-0"><rect x="484" y="82" width="192" height="26"/></clipPath><clipPath id="mx-clip-484-108-192-26-0"><rect x="484" y="108" width="192" height="26"/></clipPath><clipPath id="mx-clip-4-202-192-26-0"><rect x="4" y="202" width="192" height="26"/></clipPath><clipPath id="mx-clip-4-236-192-26-0"><rect x="4" y="236" width="192" height="26"/></clipPath><clipPath id="mx-clip-4-262-192-26-0"><rect x="4" y="262" width="192" height="26"/></clipPath><clipPath id="mx-clip-244-202-192-26-0"><rect x="244" y="202" width="192" height="26"/></clipPath><clipPath id="mx-clip-244-236-192-26-0"><rect x="244" y="236" width="192" height="26"/></clipPath><clipPath id="mx-clip-244-262-192-26-0"><rect x="244" y="262" width="192" height="26"/></clipPath><clipPath id="mx-clip-484-202-192-26-0"><rect x="484" y="202" width="192" height="26"/></clipPath><clipPath id="mx-clip-484-236-192-26-0"><rect x="484" y="236" width="192" height="26"/></clipPath><clipPath id="mx-clip-484-262-192-26-0"><rect x="484" y="262" width="192" height="26"/></clipPath></defs><g><path d="M 340 365 L 340 285.07" fill="none" stroke="#000000" stroke-miterlimit="10" pointer-events="none"/><path d="M 346.5 296.95 L 340 283.95 L 333.5 296.95" fill="none" stroke="#000000" stroke-miterlimit="10" pointer-events="none"/><path d="M 340 365 L 340 335 L 580 335 L 580 285.07" fill="none" stroke="#000000" stroke-miterlimit="10" pointer-events="none"/><path d="M 586.5 296.95 L 580 283.95 L 573.5 296.95" fill="none" stroke="#000000" stroke-miterlimit="10" pointer-events="none"/><path d="M 340 365 L 340 335 L 100 335 L 100 285.07" fill="none" stroke="#000000" stroke-miterlimit="10" pointer-events="none"/><path d="M 106.5 296.95 L 100 283.95 L 93.5 296.95" fill="none" stroke="#000000" stroke-miterlimit="10" pointer-events="none"/><path d="M 260 391 L 260 365 L 420 365 L 420 391" fill="#ffffff" stroke="#000000" stroke-miterlimit="10" pointer-events="none"/><path d="M 260 391 L 260 503 L 420 503 L 420 391" fill="none" stroke="#000000" stroke-miterlimit="10" pointer-events="none"/><path d="M 260 391 L 420 391" fill="none" stroke="#000000" stroke-miterlimit="10" pointer-events="none"/><g fill="#000000" font-family="Helvetica" font-weight="bold" text-anchor="middle" font-size="12px"><text x="339.5" y="383.5">Fruit</text></g><g fill="#000000" font-family="Helvetica" clip-path="url(#mx-clip-264-396-152-26-0)" font-size="12px"><text x="265.5" y="408.5">weight: double</text></g><g fill="#000000" font-family="Helvetica" clip-path="url(#mx-clip-264-422-152-26-0)" font-size="12px"><text x="265.5" y="434.5">color: String</text></g><path d="M 260 447 L 420 447" fill="none" stroke="#000000" stroke-miterlimit="10" pointer-events="none"/><g fill="#000000" font-family="Helvetica" clip-path="url(#mx-clip-264-456-152-26-0)" font-size="12px"><text x="265.5" y="468.5">getWeight(): double</text></g><g fill="#000000" font-family="Helvetica" clip-path="url(#mx-clip-264-482-152-26-0)" font-size="12px"><text x="265.5" y="494.5">getColor(): String</text></g><path d="M 0 58 L 0 16 L 200 16 L 200 58" fill="#ffffff" stroke="#000000" stroke-miterlimit="10" pointer-events="none"/><path d="M 0 58 L 0 118 L 200 118 L 200 58" fill="none" stroke="#000000" stroke-miterlimit="10" pointer-events="none"/><path d="M 0 58 L 200 58" fill="none" stroke="#000000" stroke-miterlimit="10" pointer-events="none"/><g fill="#000000" font-family="Helvetica" font-weight="bold" text-anchor="middle" font-size="12px"><text x="99.5" y="34.5">«interface»</text><text x="99.5" y="48.5">Edible</text></g><path d="M 0 62 L 200 62" fill="none" stroke="#000000" stroke-miterlimit="10" pointer-events="none"/><g fill="#000000" font-family="Helvetica" clip-path="url(#mx-clip-4-71-192-26-0)" font-size="12px"><text x="5.5" y="83.5">default getPercentageEaten() : double</text></g><g fill="#000000" font-family="Helvetica" clip-path="url(#mx-clip-4-97-192-26-0)" font-size="12px"><text x="5.5" y="109.5">default eat(percentage: double)</text></g><path d="M 240 58 L 240 16 L 440 16 L 440 58" fill="#ffffff" stroke="#000000" stroke-miterlimit="10" pointer-events="none"/><path d="M 240 58 L 240 118 L 440 118 L 440 58" fill="none" stroke="#000000" stroke-miterlimit="10" pointer-events="none"/><path d="M 240 58 L 440 58" fill="none" stroke="#000000" stroke-miterlimit="10" pointer-events="none"/><g fill="#000000" font-family="Helvetica" font-weight="bold" text-anchor="middle" font-size="12px"><text x="339.5" y="34.5">«interface»</text><text x="339.5" y="48.5">Sliceable</text></g><path d="M 240 62 L 440 62" fill="none" stroke="#000000" stroke-miterlimit="10" pointer-events="none"/><g fill="#000000" font-family="Helvetica" clip-path="url(#mx-clip-244-71-192-26-0)" font-size="12px"><text x="245.5" y="83.5">default getSlices(): int</text></g><g fill="#000000" font-family="Helvetica" clip-path="url(#mx-clip-244-97-192-26-0)" font-size="12px"><text x="245.5" y="109.5">default slice(slices)</text></g><path d="M 480 42.5 L 480 0.5 L 680 0.5 L 680 42.5" fill="#ffffff" stroke="#000000" stroke-miterlimit="10" pointer-events="none"/><path d="M 480 42.5 L 480 128.5 L 680 128.5 L 680 42.5" fill="none" stroke="#000000" stroke-miterlimit="10" pointer-events="none"/><path d="M 480 42.5 L 680 42.5" fill="none" stroke="#000000" stroke-miterlimit="10" pointer-events="none"/><g fill="#000000" font-family="Helvetica" font-weight="bold" text-anchor="middle" font-size="12px"><text x="579.5" y="19">«interface»</text><text x="579.5" y="33">Peelable</text></g><g fill="#000000" font-family="Helvetica" clip-path="url(#mx-clip-484-48-192-26-0)" font-size="12px"><text x="485.5" y="60">peeled: boolean</text></g><path d="M 480 72.5 L 680 72.5" fill="none" stroke="#000000" stroke-miterlimit="10" pointer-events="none"/><g fill="#000000" font-family="Helvetica" clip-path="url(#mx-clip-484-82-192-26-0)" font-size="12px"><text x="485.5" y="94">default isPeeled(): boolean</text></g><g fill="#000000" font-family="Helvetica" clip-path="url(#mx-clip-484-108-192-26-0)" font-size="12px"><text x="485.5" y="120">default peel()</text></g><path d="M 100 170.83 L 100 132.12" fill="none" stroke="#000000" stroke-miterlimit="10" stroke-dasharray="3 3" pointer-events="none"/><path d="M 100 119.12 L 106.5 132.12 L 93.5 132.12 Z" fill="none" stroke="#000000" stroke-miterlimit="10" pointer-events="none"/><path d="M 0 196.83 L 0 170.83 L 200 170.83 L 200 196.83" fill="#ffffff" stroke="#000000" stroke-miterlimit="10" pointer-events="none"/><path d="M 0 196.83 L 0 282.83 L 200 282.83 L 200 196.83" fill="none" stroke="#000000" stroke-miterlimit="10" pointer-events="none"/><path d="M 0 196.83 L 200 196.83" fill="none" stroke="#000000" stroke-miterlimit="10" pointer-events="none"/><g fill="#000000" font-family="Helvetica" font-weight="bold" text-anchor="middle" font-size="12px"><text x="99.5" y="189.33">EdibleBehavior</text></g><g fill="#000000" font-family="Helvetica" clip-path="url(#mx-clip-4-202-192-26-0)" font-size="12px"><text x="5.5" y="214.33">percentageEaten: double</text></g><path d="M 0 226.83 L 200 226.83" fill="none" stroke="#000000" stroke-miterlimit="10" pointer-events="none"/><g fill="#000000" font-family="Helvetica" clip-path="url(#mx-clip-4-236-192-26-0)" font-size="12px"><text x="5.5" y="248.33">getPercentageEaten() : double</text></g><g fill="#000000" font-family="Helvetica" clip-path="url(#mx-clip-4-262-192-26-0)" font-size="12px"><text x="5.5" y="274.33">eat(percentage: double)</text></g><path d="M 340 170.83 L 340 132.12" fill="none" stroke="#000000" stroke-miterlimit="10" stroke-dasharray="3 3" pointer-events="none"/><path d="M 340 119.12 L 346.5 132.12 L 333.5 132.12 Z" fill="none" stroke="#000000" stroke-miterlimit="10" pointer-events="none"/><path d="M 240 196.83 L 240 170.83 L 440 170.83 L 440 196.83" fill="#ffffff" stroke="#000000" stroke-miterlimit="10" pointer-events="none"/><path d="M 240 196.83 L 240 282.83 L 440 282.83 L 440 196.83" fill="none" stroke="#000000" stroke-miterlimit="10" pointer-events="none"/><path d="M 240 196.83 L 440 196.83" fill="none" stroke="#000000" stroke-miterlimit="10" pointer-events="none"/><g fill="#000000" font-family="Helvetica" font-weight="bold" text-anchor="middle" font-size="12px"><text x="339.5" y="189.33">SliceableBehavior</text></g><g fill="#000000" font-family="Helvetica" clip-path="url(#mx-clip-244-202-192-26-0)" font-size="12px"><text x="245.5" y="214.33">slices: int = 1</text></g><path d="M 240 226.83 L 440 226.83" fill="none" stroke="#000000" stroke-miterlimit="10" pointer-events="none"/><g fill="#000000" font-family="Helvetica" clip-path="url(#mx-clip-244-236-192-26-0)" font-size="12px"><text x="245.5" y="248.33">getSlices(): int</text></g><g fill="#000000" font-family="Helvetica" clip-path="url(#mx-clip-244-262-192-26-0)" font-size="12px"><text x="245.5" y="274.33">slice(slices)</text></g><path d="M 580 170.83 L 580 151 L 580 159 L 580 142.62" fill="none" stroke="#000000" stroke-miterlimit="10" stroke-dasharray="3 3" pointer-events="none"/><path d="M 580 129.62 L 586.5 142.62 L 573.5 142.62 Z" fill="none" stroke="#000000" stroke-miterlimit="10" pointer-events="none"/><path d="M 480 196.83 L 480 170.83 L 680 170.83 L 680 196.83" fill="#ffffff" stroke="#000000" stroke-miterlimit="10" pointer-events="none"/><path d="M 480 196.83 L 480 282.83 L 680 282.83 L 680 196.83" fill="none" stroke="#000000" stroke-miterlimit="10" pointer-events="none"/><path d="M 480 196.83 L 680 196.83" fill="none" stroke="#000000" stroke-miterlimit="10" pointer-events="none"/><g fill="#000000" font-family="Helvetica" font-weight="bold" text-anchor="middle" font-size="12px"><text x="579.5" y="189.33">PeelableBehavior</text></g><g fill="#000000" font-family="Helvetica" clip-path="url(#mx-clip-484-202-192-26-0)" font-size="12px"><text x="485.5" y="214.33">peeled: boolean</text></g><path d="M 480 226.83 L 680 226.83" fill="none" stroke="#000000" stroke-miterlimit="10" pointer-events="none"/><g fill="#000000" font-family="Helvetica" clip-path="url(#mx-clip-484-236-192-26-0)" font-size="12px"><text x="485.5" y="248.33">isPeeled(): boolean</text></g><g fill="#000000" font-family="Helvetica" clip-path="url(#mx-clip-484-262-192-26-0)" font-size="12px"><text x="485.5" y="274.33">peel()</text></g></g></svg>