<!DOCTYPE svg PUBLIC "-//W3C//DTD SVG 1.1//EN" "http://www.w3.org/Graphics/SVG/1.1/DTD/svg11.dtd">
<svg xmlns="http://www.w3.org/2000/svg" xmlns:xlink="http://www.w3.org/1999/xlink" version="1.1" width="795px" height="565px" viewBox="-0.5 -0.5 795 565"><defs><clipPath id="mx-clip-264-454-152-26-0"><rect x="264" y="454" width="152" height="26"/></clipPath><clipPath id="mx-clip-264-480-152-26-0"><rect x="264" y="480" width="152" height="26"/></clipPath><clipPath id="mx-clip-264-514-152-26-0"><rect x="264" y="514" width="152" height="26"/></clipPath><clipPath id="mx-clip-264-540-152-26-0"><rect x="264" y="540" width="152" height="26"/></clipPath><clipPath id="mx-clip-4-129-192-26-0"><rect x="4" y="129" width="192" height="26"/></clipPath><clipPath id="mx-clip-4-155-192-26-0"><rect x="4" y="155" width="192" height="26"/></clipPath><clipPath id="mx-clip-244-129-192-26-0"><rect x="244" y="129" width="192" height="26"/></clipPath><clipPath id="mx-clip-244-155-192-26-0"><rect x="244" y="155" width="192" height="26"/></clipPath><clipPath id="mx-clip-484-106-192-26-0"><rect x="484" y="106" width="192" height="26"/></clipPath><clipPath id="mx-clip-484-140-192-26-0"><rect x="484" y="140" width="192" height="26"/></clipPath><clipPath id="mx-clip-484-166-192-26-0"><rect x="484" y="166" width="192" height="26"/></clipPath><clipPath id="mx-clip-4-260-192-26-0"><rect x="4" y="260" width="192" height="26"/></clipPath><clipPath id="mx-clip-4-294-192-26-0"><rect x="4" y="294" width="192" height="26"/></clipPath><clipPath id="mx-clip-4-320-192-26-0"><rect x="4" y="320" width="192" height="26"/></clipPath><clipPath id="mx-clip-244-260-192-26-0"><rect x="244" y="260" width="192" height="26"/></clipPath><clipPath id="mx-clip-244-294-192-26-0"><rect x="244" y="294" width="192" height="26"/></clipPath><clipPath id="mx-clip-244-320-192-26-0"><rect x="244" y="320" width="192" height="26"/></clipPath><clipPath id="mx-clip-484-260-192-26-0"><rect x="484" y="260" width="192" height="26"/></clipPath><clipPath id="mx-clip-484-294-192-26-0"><rect x="484" y="294" width="192" height="26"/></clipPath><clipPath id="mx-clip-484-320-192-26-0"><rect x="484" y="320" width="192" height="26"/></clipPath></defs><g><path d="M 340 423 L 340 343.07" fill="none" stroke="#000000" stroke-miterlimit="10" pointer-events="none"/><path d="M 346.5 354.95 L 340 341.95 L 333.5 354.95" fill="none" stroke="#000000" stroke-miterlimit="10" pointer-events="none"/><path d="M 340 423 L 340 393 L 580 393 L 580 343.07" fill="none" stroke="#000000" stroke-miterlimit="10" pointer-events="none"/><path d="M 586.5 354.95 L 580 341.95 L 573.5 354.95" fill="none" stroke="#000000" stroke-miterlimit="10" pointer-events="none"/><path d="M 340 423 L 340 393 L 100 393 L 100 343.07" fill="none" stroke="#000000" stroke-miterlimit="10" pointer-events="none"/><path d="M 106.5 354.95 L 100 341.95 L 93.5 354.95" fill="none" stroke="#000000" stroke-miterlimit="10" pointer-events="none"/><path d="M 420 492 L 780 492 L 780 13 L 100 13 L 100 59.88" fill="none" stroke="#000000" stroke-miterlimit="10" stroke-dasharray="3 3" pointer-events="none"/><path d="M 100 72.88 L 93.5 59.88 L 106.5 59.88 Z" fill="none" stroke="#000000" stroke-miterlimit="10" pointer-events="none"/><path d="M 420 492 L 780 492 L 780 13 L 580 13 L 580 44.38" fill="none" stroke="#000000" stroke-miterlimit="10" stroke-dasharray="3 3" pointer-events="none"/><path d="M 580 57.38 L 573.5 44.38 L 586.5 44.38 Z" fill="none" stroke="#000000" stroke-miterlimit="10" pointer-events="none"/><path d="M 260 449 L 260 423 L 420 423 L 420 449" fill="#ffffff" stroke="#000000" stroke-miterlimit="10" pointer-events="none"/><path d="M 260 449 L 260 561 L 420 561 L 420 449" fill="none" stroke="#000000" stroke-miterlimit="10" pointer-events="none"/><path d="M 260 449 L 420 449" fill="none" stroke="#000000" stroke-miterlimit="10" pointer-events="none"/><g fill="#000000" font-family="Helvetica" font-weight="bold" text-anchor="middle" font-size="12px"><text x="339.5" y="441.5">Fruit</text></g><g fill="#000000" font-family="Helvetica" clip-path="url(#mx-clip-264-454-152-26-0)" font-size="12px"><text x="265.5" y="466.5">weight: double</text></g><g fill="#000000" font-family="Helvetica" clip-path="url(#mx-clip-264-480-152-26-0)" font-size="12px"><text x="265.5" y="492.5">color: String</text></g><path d="M 260 505 L 420 505" fill="none" stroke="#000000" stroke-miterlimit="10" pointer-events="none"/><g fill="#000000" font-family="Helvetica" clip-path="url(#mx-clip-264-514-152-26-0)" font-size="12px"><text x="265.5" y="526.5">getWeight(): double</text></g><g fill="#000000" font-family="Helvetica" clip-path="url(#mx-clip-264-540-152-26-0)" font-size="12px"><text x="265.5" y="552.5">getColor(): String</text></g><path d="M 0 116 L 0 74 L 200 74 L 200 116" fill="#ffffff" stroke="#000000" stroke-miterlimit="10" pointer-events="none"/><path d="M 0 116 L 0 176 L 200 176 L 200 116" fill="none" stroke="#000000" stroke-miterlimit="10" pointer-events="none"/><path d="M 0 116 L 200 116" fill="none" stroke="#000000" stroke-miterlimit="10" pointer-events="none"/><g fill="#000000" font-family="Helvetica" font-weight="bold" text-anchor="middle" font-size="12px"><text x="99.5" y="92.5">«interface»</text><text x="99.5" y="106.5">Edible</text></g><path d="M 0 120 L 200 120" fill="none" stroke="#000000" stroke-miterlimit="10" pointer-events="none"/><g fill="#000000" font-family="Helvetica" clip-path="url(#mx-clip-4-129-192-26-0)" font-size="12px"><text x="5.5" y="141.5">default getPercentageEaten() : double</text></g><g fill="#000000" font-family="Helvetica" clip-path="url(#mx-clip-4-155-192-26-0)" font-size="12px"><text x="5.5" y="167.5">default eat(percentage: double)</text></g><path d="M 240 116 L 240 74 L 440 74 L 440 116" fill="#ffffff" stroke="#000000" stroke-miterlimit="10" pointer-events="none"/><path d="M 240 116 L 240 176 L 440 176 L 440 116" fill="none" stroke="#000000" stroke-miterlimit="10" pointer-events="none"/><path d="M 240 116 L 440 116" fill="none" stroke="#000000" stroke-miterlimit="10" pointer-events="none"/><g fill="#000000" font-family="Helvetica" font-weight="bold" text-anchor="middle" font-size="12px"><text x="339.5" y="92.5">«interface»</text><text x="339.5" y="106.5">Sliceable</text></g><path d="M 240 120 L 440 120" fill="none" stroke="#000000" stroke-miterlimit="10" pointer-events="none"/><g fill="#000000" font-family="Helvetica" clip-path="url(#mx-clip-244-129-192-26-0)" font-size="12px"><text x="245.5" y="141.5">default getSlices(): int</text></g><g fill="#000000" font-family="Helvetica" clip-path="url(#mx-clip-244-155-192-26-0)" font-size="12px"><text x="245.5" y="167.5">default slice(slices)</text></g><path d="M 480 100.5 L 480 58.5 L 680 58.5 L 680 100.5" fill="#ffffff" stroke="#000000" stroke-miterlimit="10" pointer-events="none"/><path d="M 480 100.5 L 480 186.5 L 680 186.5 L 680 100.5" fill="none" stroke="#000000" stroke-miterlimit="10" pointer-events="none"/><path d="M 480 100.5 L 680 100.5" fill="none" stroke="#000000" stroke-miterlimit="10" pointer-events="none"/><g fill="#000000" font-family="Helvetica" font-weight="bold" text-anchor="middle" font-size="12px"><text x="579.5" y="77">«interface»</text><text x="579.5" y="91">Peelable</text></g><g fill="#000000" font-family="Helvetica" clip-path="url(#mx-clip-484-106-192-26-0)" font-size="12px"><text x="485.5" y="118">peeled: boolean</text></g><path d="M 480 130.5 L 680 130.5" fill="none" stroke="#000000" stroke-miterlimit="10" pointer-events="none"/><g fill="#000000" font-family="Helvetica" clip-path="url(#mx-clip-484-140-192-26-0)" font-size="12px"><text x="485.5" y="152">default isPeeled(): boolean</text></g><g fill="#000000" font-family="Helvetica" clip-path="url(#mx-clip-484-166-192-26-0)" font-size="12px"><text x="485.5" y="178">default peel()</text></g><path d="M 100 228.83 L 100 190.12" fill="none" stroke="#000000" stroke-miterlimit="10" stroke-dasharray="3 3" pointer-events="none"/><path d="M 100 177.12 L 106.5 190.12 L 93.5 190.12 Z" fill="none" stroke="#000000" stroke-miterlimit="10" pointer-events="none"/><path d="M 0 254.83 L 0 228.83 L 200 228.83 L 200 254.83" fill="#ffffff" stroke="#000000" stroke-miterlimit="10" pointer-events="none"/><path d="M 0 254.83 L 0 340.83 L 200 340.83 L 200 254.83" fill="none" stroke="#000000" stroke-miterlimit="10" pointer-events="none"/><path d="M 0 254.83 L 200 254.83" fill="none" stroke="#000000" stroke-miterlimit="10" pointer-events="none"/><g fill="#000000" font-family="Helvetica" font-weight="bold" text-anchor="middle" font-size="12px"><text x="99.5" y="247.33">EdibleBehavior</text></g><g fill="#000000" font-family="Helvetica" clip-path="url(#mx-clip-4-260-192-26-0)" font-size="12px"><text x="5.5" y="272.33">percentageEaten: double</text></g><path d="M 0 284.83 L 200 284.83" fill="none" stroke="#000000" stroke-miterlimit="10" pointer-events="none"/><g fill="#000000" font-family="Helvetica" clip-path="url(#mx-clip-4-294-192-26-0)" font-size="12px"><text x="5.5" y="306.33">getPercentageEaten() : double</text></g><g fill="#000000" font-family="Helvetica" clip-path="url(#mx-clip-4-320-192-26-0)" font-size="12px"><text x="5.5" y="332.33">eat(percentage: double)</text></g><path d="M 340 228.83 L 340 190.12" fill="none" stroke="#000000" stroke-miterlimit="10" stroke-dasharray="3 3" pointer-events="none"/><path d="M 340 177.12 L 346.5 190.12 L 333.5 190.12 Z" fill="none" stroke="#000000" stroke-miterlimit="10" pointer-events="none"/><path d="M 240 254.83 L 240 228.83 L 440 228.83 L 440 254.83" fill="#ffffff" stroke="#000000" stroke-miterlimit="10" pointer-events="none"/><path d="M 240 254.83 L 240 340.83 L 440 340.83 L 440 254.83" fill="none" stroke="#000000" stroke-miterlimit="10" pointer-events="none"/><path d="M 240 254.83 L 440 254.83" fill="none" stroke="#000000" stroke-miterlimit="10" pointer-events="none"/><g fill="#000000" font-family="Helvetica" font-weight="bold" text-anchor="middle" font-size="12px"><text x="339.5" y="247.33">SliceableBehavior</text></g><g fill="#000000" font-family="Helvetica" clip-path="url(#mx-clip-244-260-192-26-0)" font-size="12px"><text x="245.5" y="272.33">slices: int = 1</text></g><path d="M 240 284.83 L 440 284.83" fill="none" stroke="#000000" stroke-miterlimit="10" pointer-events="none"/><g fill="#000000" font-family="Helvetica" clip-path="url(#mx-clip-244-294-192-26-0)" font-size="12px"><text x="245.5" y="306.33">getSlices(): int</text></g><g fill="#000000" font-family="Helvetica" clip-path="url(#mx-clip-244-320-192-26-0)" font-size="12px"><text x="245.5" y="332.33">slice(slices)</text></g><path d="M 580 228.83 L 580 209 L 580 217 L 580 200.62" fill="none" stroke="#000000" stroke-miterlimit="10" stroke-dasharray="3 3" pointer-events="none"/><path d="M 580 187.62 L 586.5 200.62 L 573.5 200.62 Z" fill="none" stroke="#000000" stroke-miterlimit="10" pointer-events="none"/><path d="M 480 254.83 L 480 228.83 L 680 228.83 L 680 254.83" fill="#ffffff" stroke="#000000" stroke-miterlimit="10" pointer-events="none"/><path d="M 480 254.83 L 480 340.83 L 680 340.83 L 680 254.83" fill="none" stroke="#000000" stroke-miterlimit="10" pointer-events="none"/><path d="M 480 254.83 L 680 254.83" fill="none" stroke="#000000" stroke-miterlimit="10" pointer-events="none"/><g fill="#000000" font-family="Helvetica" font-weight="bold" text-anchor="middle" font-size="12px"><text x="579.5" y="247.33">PeelableBehavior</text></g><g fill="#000000" font-family="Helvetica" clip-path="url(#mx-clip-484-260-192-26-0)" font-size="12px"><text x="485.5" y="272.33">peeled: boolean</text></g><path d="M 480 284.83 L 680 284.83" fill="none" stroke="#000000" stroke-miterlimit="10" pointer-events="none"/><g fill="#000000" font-family="Helvetica" clip-path="url(#mx-clip-484-294-192-26-0)" font-size="12px"><text x="485.5" y="306.33">isPeeled(): boolean</text></g><g fill="#000000" font-family="Helvetica" clip-path="url(#mx-clip-484-320-192-26-0)" font-size="12px"><text x="485.5" y="332.33">peel()</text></g><path d="M 420 493 L 780 493 L 780 13 L 340 13 L 340 59.88" fill="none" stroke="#000000" stroke-miterlimit="10" stroke-dasharray="3 3" pointer-events="none"/><path d="M 340 72.88 L 333.5 59.88 L 346.5 59.88 Z" fill="none" stroke="#000000" stroke-miterlimit="10" pointer-events="none"/></g></svg>