<!DOCTYPE svg PUBLIC "-//W3C//DTD SVG 1.1//EN" "http://www.w3.org/Graphics/SVG/1.1/DTD/svg11.dtd">
<svg xmlns="http://www.w3.org/2000/svg" xmlns:xlink="http://www.w3.org/1999/xlink" version="1.1" width="881px" height="473px" viewBox="-0.5 -0.5 881 473"><defs><clipPath id="mx-clip-4-32-152-26-0"><rect x="4" y="32" width="152" height="26"/></clipPath><clipPath id="mx-clip-4-58-152-26-0"><rect x="4" y="58" width="152" height="26"/></clipPath><clipPath id="mx-clip-4-92-152-26-0"><rect x="4" y="92" width="152" height="26"/></clipPath><clipPath id="mx-clip-4-118-152-26-0"><rect x="4" y="118" width="152" height="26"/></clipPath><clipPath id="mx-clip-324-233-172-26-0"><rect x="324" y="233" width="172" height="26"/></clipPath><clipPath id="mx-clip-324-259-172-26-0"><rect x="324" y="259" width="172" height="26"/></clipPath><clipPath id="mx-clip-324-285-172-26-0"><rect x="324" y="285" width="172" height="26"/></clipPath><clipPath id="mx-clip-324-319-172-26-0"><rect x="324" y="319" width="172" height="26"/></clipPath><clipPath id="mx-clip-324-345-172-26-0"><rect x="324" y="345" width="172" height="26"/></clipPath><clipPath id="mx-clip-324-371-172-26-0"><rect x="324" y="371" width="172" height="26"/></clipPath><clipPath id="mx-clip-324-397-172-26-0"><rect x="324" y="397" width="172" height="26"/></clipPath><clipPath id="mx-clip-324-423-172-26-0"><rect x="324" y="423" width="172" height="26"/></clipPath><clipPath id="mx-clip-324-449-172-26-0"><rect x="324" y="449" width="172" height="26"/></clipPath><clipPath id="mx-clip-204-57-192-26-0"><rect x="204" y="57" width="192" height="26"/></clipPath><clipPath id="mx-clip-204-83-192-26-0"><rect x="204" y="83" width="192" height="26"/></clipPath><clipPath id="mx-clip-444-57-192-26-0"><rect x="444" y="57" width="192" height="26"/></clipPath><clipPath id="mx-clip-444-83-192-26-0"><rect x="444" y="83" width="192" height="26"/></clipPath><clipPath id="mx-clip-684-57-192-26-0"><rect x="684" y="57" width="192" height="26"/></clipPath><clipPath id="mx-clip-684-83-192-26-0"><rect x="684" y="83" width="192" height="26"/></clipPath></defs><g><path d="M 0 26.5 L 0 0.5 L 160 0.5 L 160 26.5" fill="#ffffff" stroke="#000000" stroke-miterlimit="10" pointer-events="none"/><path d="M 0 26.5 L 0 138.5 L 160 138.5 L 160 26.5" fill="none" stroke="#000000" stroke-miterlimit="10" pointer-events="none"/><path d="M 0 26.5 L 160 26.5" fill="none" stroke="#000000" stroke-miterlimit="10" pointer-events="none"/><g fill="#000000" font-family="Helvetica" font-weight="bold" text-anchor="middle" font-size="12px"><text x="79.5" y="19">Fruit</text></g><g fill="#000000" font-family="Helvetica" clip-path="url(#mx-clip-4-32-152-26-0)" font-size="12px"><text x="5.5" y="44">weight: double</text></g><g fill="#000000" font-family="Helvetica" clip-path="url(#mx-clip-4-58-152-26-0)" font-size="12px"><text x="5.5" y="70">color: String</text></g><path d="M 0 82.5 L 160 82.5" fill="none" stroke="#000000" stroke-miterlimit="10" pointer-events="none"/><g fill="#000000" font-family="Helvetica" clip-path="url(#mx-clip-4-92-152-26-0)" font-size="12px"><text x="5.5" y="104">getWeight(): double</text></g><g fill="#000000" font-family="Helvetica" clip-path="url(#mx-clip-4-118-152-26-0)" font-size="12px"><text x="5.5" y="130">getColor(): String</text></g><path d="M 420 202 L 420 172 L 60 172 L 60 152.62" fill="none" stroke="#000000" stroke-miterlimit="10" pointer-events="none"/><path d="M 60 139.62 L 66.5 152.62 L 53.5 152.62 Z" fill="none" stroke="#000000" stroke-miterlimit="10" pointer-events="none"/><path d="M 420 202 L 420 154 L 300 154 L 300 117.62" fill="none" stroke="#000000" stroke-miterlimit="10" stroke-dasharray="3 3" pointer-events="none"/><path d="M 300 104.62 L 306.5 117.62 L 293.5 117.62 Z" fill="none" stroke="#000000" stroke-miterlimit="10" pointer-events="none"/><path d="M 420 202 L 420 154 L 800 154 L 800 117.62" fill="none" stroke="#000000" stroke-miterlimit="10" stroke-dasharray="3 3" pointer-events="none"/><path d="M 800 104.62 L 806.5 117.62 L 793.5 117.62 Z" fill="none" stroke="#000000" stroke-miterlimit="10" pointer-events="none"/><path d="M 320 228 L 320 202 L 500 202 L 500 228" fill="#ffffff" stroke="#000000" stroke-miterlimit="10" pointer-events="none"/><path d="M 320 228 L 320 470 L 500 470 L 500 228" fill="none" stroke="#000000" stroke-miterlimit="10" pointer-events="none"/><path d="M 320 228 L 500 228" fill="none" stroke="#000000" stroke-miterlimit="10" pointer-events="none"/><g fill="#000000" font-family="Helvetica" font-weight="bold" text-anchor="middle" font-size="12px"><text x="409.5" y="220.5">Orange</text></g><g fill="#000000" font-family="Helvetica" clip-path="url(#mx-clip-324-233-172-26-0)" font-size="12px"><text x="325.5" y="245.5">peeled: boolean</text></g><g fill="#000000" font-family="Helvetica" clip-path="url(#mx-clip-324-259-172-26-0)" font-size="12px"><text x="325.5" y="271.5">slices: int = 1</text></g><g fill="#000000" font-family="Helvetica" clip-path="url(#mx-clip-324-285-172-26-0)" font-size="12px"><text x="325.5" y="297.5">percentageEaten: double</text></g><path d="M 320 310 L 500 310" fill="none" stroke="#000000" stroke-miterlimit="10" pointer-events="none"/><g fill="#000000" font-family="Helvetica" clip-path="url(#mx-clip-324-319-172-26-0)" font-size="12px"><text x="325.5" y="331.5">getPercentageEaten() : double</text></g><g fill="#000000" font-family="Helvetica" clip-path="url(#mx-clip-324-345-172-26-0)" font-size="12px"><text x="325.5" y="357.5">eat(percentage: double)</text></g><g fill="#000000" font-family="Helvetica" clip-path="url(#mx-clip-324-371-172-26-0)" font-size="12px"><text x="325.5" y="383.5">getSlices(): int</text></g><g fill="#000000" font-family="Helvetica" clip-path="url(#mx-clip-324-397-172-26-0)" font-size="12px"><text x="325.5" y="409.5">slice(slices)</text></g><g fill="#000000" font-family="Helvetica" clip-path="url(#mx-clip-324-423-172-26-0)" font-size="12px"><text x="325.5" y="435.5">peel()</text></g><g fill="#000000" font-family="Helvetica" clip-path="url(#mx-clip-324-449-172-26-0)" font-size="12px"><text x="325.5" y="461.5">isPeeled(): boolean</text></g><path d="M 200 43.5 L 200 1.5 L 400 1.5 L 400 43.5" fill="#ffffff" stroke="#000000" stroke-miterlimit="10" pointer-events="none"/><path d="M 200 43.5 L 200 103.5 L 400 103.5 L 400 43.5" fill="none" stroke="#000000" stroke-miterlimit="10" pointer-events="none"/><path d="M 200 43.5 L 400 43.5" fill="none" stroke="#000000" stroke-miterlimit="10" pointer-events="none"/><g fill="#000000" font-family="Helvetica" font-weight="bold" text-anchor="middle" font-size="12px"><text x="299.5" y="20">«interface»</text><text x="299.5" y="34">Edible</text></g><path d="M 200 47.5 L 400 47.5" fill="none" stroke="#000000" stroke-miterlimit="10" pointer-events="none"/><g fill="#000000" font-family="Helvetica" clip-path="url(#mx-clip-204-57-192-26-0)" font-size="12px"><text x="205.5" y="69">getPercentageEaten() : double</text></g><g fill="#000000" font-family="Helvetica" clip-path="url(#mx-clip-204-83-192-26-0)" font-size="12px"><text x="205.5" y="95">eat(percentage: double)</text></g><path d="M 440 43.5 L 440 1.5 L 640 1.5 L 640 43.5" fill="#ffffff" stroke="#000000" stroke-miterlimit="10" pointer-events="none"/><path d="M 440 43.5 L 440 103.5 L 640 103.5 L 640 43.5" fill="none" stroke="#000000" stroke-miterlimit="10" pointer-events="none"/><path d="M 440 43.5 L 640 43.5" fill="none" stroke="#000000" stroke-miterlimit="10" pointer-events="none"/><g fill="#000000" font-family="Helvetica" font-weight="bold" text-anchor="middle" font-size="12px"><text x="539.5" y="20">«interface»</text><text x="539.5" y="34">Sliceable</text></g><path d="M 440 47.5 L 640 47.5" fill="none" stroke="#000000" stroke-miterlimit="10" pointer-events="none"/><g fill="#000000" font-family="Helvetica" clip-path="url(#mx-clip-444-57-192-26-0)" font-size="12px"><text x="445.5" y="69">getSlices(): int</text></g><g fill="#000000" font-family="Helvetica" clip-path="url(#mx-clip-444-83-192-26-0)" font-size="12px"><text x="445.5" y="95">slice(slices)</text></g><path d="M 680 43.5 L 680 1.5 L 880 1.5 L 880 43.5" fill="#ffffff" stroke="#000000" stroke-miterlimit="10" pointer-events="none"/><path d="M 680 43.5 L 680 103.5 L 880 103.5 L 880 43.5" fill="none" stroke="#000000" stroke-miterlimit="10" pointer-events="none"/><path d="M 680 43.5 L 880 43.5" fill="none" stroke="#000000" stroke-miterlimit="10" pointer-events="none"/><g fill="#000000" font-family="Helvetica" font-weight="bold" text-anchor="middle" font-size="12px"><text x="779.5" y="20">«interface»</text><text x="779.5" y="34">Peelable</text></g><path d="M 680 47.5 L 880 47.5" fill="none" stroke="#000000" stroke-miterlimit="10" pointer-events="none"/><g fill="#000000" font-family="Helvetica" clip-path="url(#mx-clip-684-57-192-26-0)" font-size="12px"><text x="685.5" y="69">isPeeled(): boolean</text></g><g fill="#000000" font-family="Helvetica" clip-path="url(#mx-clip-684-83-192-26-0)" font-size="12px"><text x="685.5" y="95">peel()</text></g></g></svg>