<!DOCTYPE svg PUBLIC "-//W3C//DTD SVG 1.1//EN" "http://www.w3.org/Graphics/SVG/1.1/DTD/svg11.dtd">
<svg xmlns="http://www.w3.org/2000/svg" xmlns:xlink="http://www.w3.org/1999/xlink" version="1.1" width="441px" height="277px" viewBox="-0.5 -0.5 441 277"><defs><clipPath id="mx-clip-4-31-152-26-0"><rect x="4" y="31" width="152" height="26"/></clipPath><clipPath id="mx-clip-4-57-152-26-0"><rect x="4" y="57" width="152" height="26"/></clipPath><clipPath id="mx-clip-4-91-152-26-0"><rect x="4" y="91" width="152" height="26"/></clipPath><clipPath id="mx-clip-4-117-152-26-0"><rect x="4" y="117" width="152" height="26"/></clipPath><clipPath id="mx-clip-244-192-192-26-0"><rect x="244" y="192" width="192" height="26"/></clipPath><clipPath id="mx-clip-244-226-192-26-0"><rect x="244" y="226" width="192" height="26"/></clipPath><clipPath id="mx-clip-244-252-192-26-0"><rect x="244" y="252" width="192" height="26"/></clipPath><clipPath id="mx-clip-244-31-192-26-0"><rect x="244" y="31" width="192" height="26"/></clipPath><clipPath id="mx-clip-244-65-192-26-0"><rect x="244" y="65" width="192" height="26"/></clipPath><clipPath id="mx-clip-244-91-192-26-0"><rect x="244" y="91" width="192" height="26"/></clipPath><clipPath id="mx-clip-4-192-192-26-0"><rect x="4" y="192" width="192" height="26"/></clipPath><clipPath id="mx-clip-4-226-192-26-0"><rect x="4" y="226" width="192" height="26"/></clipPath><clipPath id="mx-clip-4-252-192-26-0"><rect x="4" y="252" width="192" height="26"/></clipPath></defs><g><path d="M 0 26 L 0 0 L 160 0 L 160 26" fill="#ffffff" stroke="#000000" stroke-miterlimit="10" pointer-events="none"/><path d="M 0 26 L 0 138 L 160 138 L 160 26" fill="none" stroke="#000000" stroke-miterlimit="10" pointer-events="none"/><path d="M 0 26 L 160 26" fill="none" stroke="#000000" stroke-miterlimit="10" pointer-events="none"/><g fill="#000000" font-family="Helvetica" font-weight="bold" text-anchor="middle" font-size="12px"><text x="79.5" y="18.5">Fruit</text></g><g fill="#000000" font-family="Helvetica" clip-path="url(#mx-clip-4-31-152-26-0)" font-size="12px"><text x="5.5" y="43.5">weight: double</text></g><g fill="#000000" font-family="Helvetica" clip-path="url(#mx-clip-4-57-152-26-0)" font-size="12px"><text x="5.5" y="69.5">color: String</text></g><path d="M 0 82 L 160 82" fill="none" stroke="#000000" stroke-miterlimit="10" pointer-events="none"/><g fill="#000000" font-family="Helvetica" clip-path="url(#mx-clip-4-91-152-26-0)" font-size="12px"><text x="5.5" y="103.5">getWeight(): double</text></g><g fill="#000000" font-family="Helvetica" clip-path="url(#mx-clip-4-117-152-26-0)" font-size="12px"><text x="5.5" y="129.5">getColor(): String</text></g><path d="M 240 187 L 240 161 L 440 161 L 440 187" fill="#ffffff" stroke="#000000" stroke-miterlimit="10" pointer-events="none"/><path d="M 240 187 L 240 273 L 440 273 L 440 187" fill="none" stroke="#000000" stroke-miterlimit="10" pointer-events="none"/><path d="M 240 187 L 440 187" fill="none" stroke="#000000" stroke-miterlimit="10" pointer-events="none"/><g fill="#000000" font-family="Helvetica" font-weight="bold" text-anchor="middle" font-size="12px"><text x="339.5" y="179.5">Edible</text></g><g fill="#000000" font-family="Helvetica" clip-path="url(#mx-clip-244-192-192-26-0)" font-size="12px"><text x="245.5" y="204.5">percentageEaten: double</text></g><path d="M 240 217 L 440 217" fill="none" stroke="#000000" stroke-miterlimit="10" pointer-events="none"/><g fill="#000000" font-family="Helvetica" clip-path="url(#mx-clip-244-226-192-26-0)" font-size="12px"><text x="245.5" y="238.5">getPercentageEaten() : double</text></g><g fill="#000000" font-family="Helvetica" clip-path="url(#mx-clip-244-252-192-26-0)" font-size="12px"><text x="245.5" y="264.5">eat(percentage: double)</text></g><path d="M 240 26 L 240 0 L 440 0 L 440 26" fill="#ffffff" stroke="#000000" stroke-miterlimit="10" pointer-events="none"/><path d="M 240 26 L 240 112 L 440 112 L 440 26" fill="none" stroke="#000000" stroke-miterlimit="10" pointer-events="none"/><path d="M 240 26 L 440 26" fill="none" stroke="#000000" stroke-miterlimit="10" pointer-events="none"/><g fill="#000000" font-family="Helvetica" font-weight="bold" text-anchor="middle" font-size="12px"><text x="339.5" y="18.5">Sliceable</text></g><g fill="#000000" font-family="Helvetica" clip-path="url(#mx-clip-244-31-192-26-0)" font-size="12px"><text x="245.5" y="43.5">slices: int = 1</text></g><path d="M 240 56 L 440 56" fill="none" stroke="#000000" stroke-miterlimit="10" pointer-events="none"/><g fill="#000000" font-family="Helvetica" clip-path="url(#mx-clip-244-65-192-26-0)" font-size="12px"><text x="245.5" y="77.5">getSlices(): int</text></g><g fill="#000000" font-family="Helvetica" clip-path="url(#mx-clip-244-91-192-26-0)" font-size="12px"><text x="245.5" y="103.5">slice(slices)</text></g><path d="M 0 187 L 0 161 L 200 161 L 200 187" fill="#ffffff" stroke="#000000" stroke-miterlimit="10" pointer-events="none"/><path d="M 0 187 L 0 273 L 200 273 L 200 187" fill="none" stroke="#000000" stroke-miterlimit="10" pointer-events="none"/><path d="M 0 187 L 200 187" fill="none" stroke="#000000" stroke-miterlimit="10" pointer-events="none"/><g fill="#000000" font-family="Helvetica" font-weight="bold" text-anchor="middle" font-size="12px"><text x="99.5" y="179.5">Peelable</text></g><g fill="#000000" font-family="Helvetica" clip-path="url(#mx-clip-4-192-192-26-0)" font-size="12px"><text x="5.5" y="204.5">peeled: boolean</text></g><path d="M 0 217 L 200 217" fill="none" stroke="#000000" stroke-miterlimit="10" pointer-events="none"/><g fill="#000000" font-family="Helvetica" clip-path="url(#mx-clip-4-226-192-26-0)" font-size="12px"><text x="5.5" y="238.5">isPeeled(): boolean</text></g><g fill="#000000" font-family="Helvetica" clip-path="url(#mx-clip-4-252-192-26-0)" font-size="12px"><text x="5.5" y="264.5">peel()</text></g></g></svg>