<!DOCTYPE svg PUBLIC "-//W3C//DTD SVG 1.1//EN" "http://www.w3.org/Graphics/SVG/1.1/DTD/svg11.dtd">
<svg xmlns="http://www.w3.org/2000/svg" xmlns:xlink="http://www.w3.org/1999/xlink" version="1.1" width="881px" height="353px" viewBox="-0.5 -0.5 881 353"><defs><clipPath id="mx-clip-4-148-152-26-0"><rect x="4" y="148" width="152" height="26"/></clipPath><clipPath id="mx-clip-4-174-152-26-0"><rect x="4" y="174" width="152" height="26"/></clipPath><clipPath id="mx-clip-4-208-152-26-0"><rect x="4" y="208" width="152" height="26"/></clipPath><clipPath id="mx-clip-4-234-152-26-0"><rect x="4" y="234" width="152" height="26"/></clipPath><clipPath id="mx-clip-204-149-192-26-0"><rect x="204" y="149" width="192" height="26"/></clipPath><clipPath id="mx-clip-204-183-192-26-0"><rect x="204" y="183" width="192" height="26"/></clipPath><clipPath id="mx-clip-204-209-192-26-0"><rect x="204" y="209" width="192" height="26"/></clipPath><clipPath id="mx-clip-444-149-192-26-0"><rect x="444" y="149" width="192" height="26"/></clipPath><clipPath id="mx-clip-444-183-192-26-0"><rect x="444" y="183" width="192" height="26"/></clipPath><clipPath id="mx-clip-444-209-192-26-0"><rect x="444" y="209" width="192" height="26"/></clipPath><clipPath id="mx-clip-684-149-192-26-0"><rect x="684" y="149" width="192" height="26"/></clipPath><clipPath id="mx-clip-684-183-192-26-0"><rect x="684" y="183" width="192" height="26"/></clipPath><clipPath id="mx-clip-684-209-192-26-0"><rect x="684" y="209" width="192" height="26"/></clipPath></defs><g><path d="M 0 143 L 0 117 L 160 117 L 160 143" fill="#ffffff" stroke="#000000" stroke-miterlimit="10" pointer-events="none"/><path d="M 0 143 L 0 255 L 160 255 L 160 143" fill="none" stroke="#000000" stroke-miterlimit="10" pointer-events="none"/><path d="M 0 143 L 160 143" fill="none" stroke="#000000" stroke-miterlimit="10" pointer-events="none"/><g fill="#000000" font-family="Helvetica" font-weight="bold" text-anchor="middle" font-size="12px"><text x="79.5" y="135.5">Fruit</text></g><g fill="#000000" font-family="Helvetica" clip-path="url(#mx-clip-4-148-152-26-0)" font-size="12px"><text x="5.5" y="160.5">weight: double</text></g><g fill="#000000" font-family="Helvetica" clip-path="url(#mx-clip-4-174-152-26-0)" font-size="12px"><text x="5.5" y="186.5">color: String</text></g><path d="M 0 199 L 160 199" fill="none" stroke="#000000" stroke-miterlimit="10" pointer-events="none"/><g fill="#000000" font-family="Helvetica" clip-path="url(#mx-clip-4-208-152-26-0)" font-size="12px"><text x="5.5" y="220.5">getWeight(): double</text></g><g fill="#000000" font-family="Helvetica" clip-path="url(#mx-clip-4-234-152-26-0)" font-size="12px"><text x="5.5" y="246.5">getColor(): String</text></g><path d="M 420 318 L 420 288 L 60 288 L 60 269.12" fill="none" stroke="#000000" stroke-miterlimit="10" pointer-events="none"/><path d="M 60 256.12 L 66.5 269.12 L 53.5 269.12 Z" fill="none" stroke="#000000" stroke-miterlimit="10" pointer-events="none"/><path d="M 420 318 L 420 288 L 300 288 L 300 244.12" fill="none" stroke="#000000" stroke-miterlimit="10" pointer-events="none"/><path d="M 300 231.12 L 306.5 244.12 L 293.5 244.12 Z" fill="none" stroke="#000000" stroke-miterlimit="10" pointer-events="none"/><path d="M 420 318 L 420 288 L 800 288 L 800 244.12" fill="none" stroke="#000000" stroke-miterlimit="10" pointer-events="none"/><path d="M 800 231.12 L 806.5 244.12 L 793.5 244.12 Z" fill="none" stroke="#000000" stroke-miterlimit="10" pointer-events="none"/><path d="M 340 344 L 340 318 L 500 318 L 500 344" fill="#ffffff" stroke="#000000" stroke-miterlimit="10" pointer-events="none"/><path d="M 340 344 L 340 352 L 500 352 L 500 344" fill="none" stroke="#000000" stroke-miterlimit="10" pointer-events="none"/><path d="M 340 344 L 500 344" fill="none" stroke="#000000" stroke-miterlimit="10" pointer-events="none"/><g fill="#000000" font-family="Helvetica" font-weight="bold" text-anchor="middle" font-size="12px"><text x="419.5" y="336.5">Orange</text></g><path d="M 340 348 L 500 348" fill="none" stroke="#000000" stroke-miterlimit="10" pointer-events="none"/><path d="M 200 144 L 200 118 L 400 118 L 400 144" fill="#ffffff" stroke="#000000" stroke-miterlimit="10" pointer-events="none"/><path d="M 200 144 L 200 230 L 400 230 L 400 144" fill="none" stroke="#000000" stroke-miterlimit="10" pointer-events="none"/><path d="M 200 144 L 400 144" fill="none" stroke="#000000" stroke-miterlimit="10" pointer-events="none"/><g fill="#000000" font-family="Helvetica" font-weight="bold" text-anchor="middle" font-size="12px"><text x="299.5" y="136.5">Edible</text></g><g fill="#000000" font-family="Helvetica" clip-path="url(#mx-clip-204-149-192-26-0)" font-size="12px"><text x="205.5" y="161.5">percentageEaten: double</text></g><path d="M 200 174 L 400 174" fill="none" stroke="#000000" stroke-miterlimit="10" pointer-events="none"/><g fill="#000000" font-family="Helvetica" clip-path="url(#mx-clip-204-183-192-26-0)" font-size="12px"><text x="205.5" y="195.5">getPercentageEaten() : double</text></g><g fill="#000000" font-family="Helvetica" clip-path="url(#mx-clip-204-209-192-26-0)" font-size="12px"><text x="205.5" y="221.5">eat(percentage: double)</text></g><path d="M 440 144 L 440 118 L 640 118 L 640 144" fill="#ffffff" stroke="#000000" stroke-miterlimit="10" pointer-events="none"/><path d="M 440 144 L 440 230 L 640 230 L 640 144" fill="none" stroke="#000000" stroke-miterlimit="10" pointer-events="none"/><path d="M 440 144 L 640 144" fill="none" stroke="#000000" stroke-miterlimit="10" pointer-events="none"/><g fill="#000000" font-family="Helvetica" font-weight="bold" text-anchor="middle" font-size="12px"><text x="539.5" y="136.5">Sliceable</text></g><g fill="#000000" font-family="Helvetica" clip-path="url(#mx-clip-444-149-192-26-0)" font-size="12px"><text x="445.5" y="161.5">slices: int = 1</text></g><path d="M 440 174 L 640 174" fill="none" stroke="#000000" stroke-miterlimit="10" pointer-events="none"/><g fill="#000000" font-family="Helvetica" clip-path="url(#mx-clip-444-183-192-26-0)" font-size="12px"><text x="445.5" y="195.5">getSlices(): int</text></g><g fill="#000000" font-family="Helvetica" clip-path="url(#mx-clip-444-209-192-26-0)" font-size="12px"><text x="445.5" y="221.5">slice(slices)</text></g><path d="M 680 144 L 680 118 L 880 118 L 880 144" fill="#ffffff" stroke="#000000" stroke-miterlimit="10" pointer-events="none"/><path d="M 680 144 L 680 230 L 880 230 L 880 144" fill="none" stroke="#000000" stroke-miterlimit="10" pointer-events="none"/><path d="M 680 144 L 880 144" fill="none" stroke="#000000" stroke-miterlimit="10" pointer-events="none"/><g fill="#000000" font-family="Helvetica" font-weight="bold" text-anchor="middle" font-size="12px"><text x="779.5" y="136.5">Peelable</text></g><g fill="#000000" font-family="Helvetica" clip-path="url(#mx-clip-684-149-192-26-0)" font-size="12px"><text x="685.5" y="161.5">peeled: boolean</text></g><path d="M 680 174 L 880 174" fill="none" stroke="#000000" stroke-miterlimit="10" pointer-events="none"/><g fill="#000000" font-family="Helvetica" clip-path="url(#mx-clip-684-183-192-26-0)" font-size="12px"><text x="685.5" y="195.5">isPeeled(): boolean</text></g><g fill="#000000" font-family="Helvetica" clip-path="url(#mx-clip-684-209-192-26-0)" font-size="12px"><text x="685.5" y="221.5">peel()</text></g><path d="M 420 34.5 L 420 62 L 60 62 L 60 102.88" fill="none" stroke="#000000" stroke-miterlimit="10" pointer-events="none"/><path d="M 60 115.88 L 53.5 102.88 L 66.5 102.88 Z" fill="none" stroke="#000000" stroke-miterlimit="10" pointer-events="none"/><path d="M 420 34.5 L 420 62 L 320 62 L 320 103.88" fill="none" stroke="#000000" stroke-miterlimit="10" pointer-events="none"/><path d="M 320 116.88 L 313.5 103.88 L 326.5 103.88 Z" fill="none" stroke="#000000" stroke-miterlimit="10" pointer-events="none"/><path d="M 420 34.5 L 420 62 L 560 62 L 560 103.88" fill="none" stroke="#000000" stroke-miterlimit="10" pointer-events="none"/><path d="M 560 116.88 L 553.5 103.88 L 566.5 103.88 Z" fill="none" stroke="#000000" stroke-miterlimit="10" pointer-events="none"/><path d="M 420 34.5 L 420 62 L 800 62 L 800 103.88" fill="none" stroke="#000000" stroke-miterlimit="10" pointer-events="none"/><path d="M 800 116.88 L 793.5 103.88 L 806.5 103.88 Z" fill="none" stroke="#000000" stroke-miterlimit="10" pointer-events="none"/><path d="M 340 26.5 L 340 0.5 L 500 0.5 L 500 26.5" fill="#ffffff" stroke="#000000" stroke-miterlimit="10" pointer-events="none"/><path d="M 340 26.5 L 340 34.5 L 500 34.5 L 500 26.5" fill="none" stroke="#000000" stroke-miterlimit="10" pointer-events="none"/><path d="M 340 26.5 L 500 26.5" fill="none" stroke="#000000" stroke-miterlimit="10" pointer-events="none"/><g fill="#000000" font-family="Helvetica" font-weight="bold" text-anchor="middle" font-size="12px"><text x="419.5" y="19">Apple</text></g><path d="M 340 30.5 L 500 30.5" fill="none" stroke="#000000" stroke-miterlimit="10" pointer-events="none"/></g></svg>