<?xml version="1.0" encoding="UTF-8" standalone="no"?>
<!-- Generated by graphviz version 2.26.3 (20100126.1600)
 -->

<!-- Title: Finite_Automata_Graph Pages: 1 -->

<svg
   xmlns:dc="http://purl.org/dc/elements/1.1/"
   xmlns:cc="http://creativecommons.org/ns#"
   xmlns:rdf="http://www.w3.org/1999/02/22-rdf-syntax-ns#"
   xmlns:svg="http://www.w3.org/2000/svg"
   xmlns="http://www.w3.org/2000/svg"
   xmlns:sodipodi="http://sodipodi.sourceforge.net/DTD/sodipodi-0.dtd"
   xmlns:inkscape="http://www.inkscape.org/namespaces/inkscape"
   width="517.5"
   height="300"
   viewBox="0 0 414 240"
   id="svg2"
   version="1.1"
   inkscape:version="0.48.4 r9939"
   sodipodi:docname="dfa.svg">
  <metadata
     id="metadata183">
    <rdf:RDF>
      <cc:Work
         rdf:about="">
        <dc:format>image/svg+xml</dc:format>
        <dc:type
           rdf:resource="http://purl.org/dc/dcmitype/StillImage" />
      </cc:Work>
    </rdf:RDF>
  </metadata>
  <defs
     id="defs181" />
  <sodipodi:namedview
     pagecolor="#ffffff"
     bordercolor="#666666"
     borderopacity="1"
     objecttolerance="10"
     gridtolerance="10"
     guidetolerance="10"
     inkscape:pageopacity="0"
     inkscape:pageshadow="2"
     inkscape:window-width="796"
     inkscape:window-height="274"
     id="namedview179"
     showgrid="false"
     inkscape:zoom="0.91650485"
     inkscape:cx="112.96789"
     inkscape:cy="279.291"
     inkscape:window-x="0"
     inkscape:window-y="331"
     inkscape:window-maximized="0"
     inkscape:current-layer="edge26"
     fit-margin-top="0"
     fit-margin-left="0"
     fit-margin-right="0"
     fit-margin-bottom="0" />
  <g
     id="graph1"
     class="graph"
     transform="matrix(0,-1,1,0,408.5,235.5)">
    <title
       id="title5">Finite_Automata_Graph</title>
    <polygon
       points="-4,5 -4,5 -4,-408 235,-408 235,5 "
       id="polygon7"
       style="fill:#ffffff;stroke:#ffffff" />
    <!-- 0 -->
    <g
       id="node1"
       class="node"
       transform="matrix(0,1,-1,0,-259,-513)">
      <title
         id="title10">0</title>
      <ellipse
         cx="127"
         cy="-386"
         rx="18"
         ry="18"
         id="ellipse12"
         d="m 145,-386 c 0,9.94113 -8.05887,18 -18,18 -9.94113,0 -18,-8.05887 -18,-18 0,-9.94113 8.05887,-18 18,-18 9.94113,0 18,8.05887 18,18 z"
         sodipodi:cx="127"
         sodipodi:cy="-386"
         sodipodi:rx="18"
         sodipodi:ry="18"
         style="fill:none;stroke:#000000" />
      <text
         x="127"
         y="-381.39999"
         font-size="14.00"
         id="text14"
         style="font-size:14px;text-anchor:middle;font-family:'Times Roman,serif'">0</text>
    </g>
    <!-- 1 -->
    <g
       id="node2"
       class="node"
       transform="matrix(0,1,-1,0,-225,-371)">
      <title
         id="title17">1</title>
      <ellipse
         cx="73"
         cy="-298"
         rx="18"
         ry="18"
         id="ellipse19"
         d="m 91,-298 c 0,9.94113 -8.058875,18 -18,18 -9.941125,0 -18,-8.05887 -18,-18 0,-9.94113 8.058875,-18 18,-18 9.941125,0 18,8.05887 18,18 z"
         sodipodi:cx="73"
         sodipodi:cy="-298"
         sodipodi:rx="18"
         sodipodi:ry="18"
         style="fill:none;stroke:#000000" />
      <text
         x="73"
         y="-293.39999"
         font-size="14.00"
         id="text21"
         style="font-size:14px;text-anchor:middle;font-family:'Times Roman,serif'">1</text>
    </g>
    <!-- 0&#45;&gt;1 -->
    <g
       id="edge2"
       class="edge">
      <title
         id="title24">0-&gt;1</title>
      <path
         d="m 117.346,-370.267 c -8.14,13.264 -19.9268,32.473 -29.3031,47.753"
         id="path26"
         inkscape:connector-curvature="0"
         style="fill:none;stroke:#000000" />
      <polygon
         points="90.7839,-320.289 82.5705,-313.596 84.8176,-323.95 90.7839,-320.289 "
         id="polygon28"
         style="fill:#000000;stroke:#000000" />
      <text
         x="-341.1871"
         y="-107.62051"
         font-size="14.00"
         id="text30"
         style="font-size:14px;text-anchor:middle;font-family:'Times Roman,serif'"
         transform="matrix(0,1,-1,0,0,0)">a</text>
    </g>
    <!-- 2 -->
    <g
       id="node3"
       class="node"
       transform="matrix(0,1,-1,0,-171,-425)">
      <title
         id="title33">2</title>
      <ellipse
         cx="127"
         cy="-298"
         rx="18"
         ry="18"
         id="ellipse35"
         d="m 145,-298 c 0,9.94113 -8.05887,18 -18,18 -9.94113,0 -18,-8.05887 -18,-18 0,-9.94113 8.05887,-18 18,-18 9.94113,0 18,8.05887 18,18 z"
         sodipodi:cx="127"
         sodipodi:cy="-298"
         sodipodi:rx="18"
         sodipodi:ry="18"
         style="fill:none;stroke:#000000" />
      <text
         x="127"
         y="-293.39999"
         font-size="14.00"
         id="text37"
         style="font-size:14px;text-anchor:middle;font-family:'Times Roman,serif'">2</text>
    </g>
    <!-- 0&#45;&gt;2 -->
    <g
       id="edge4"
       class="edge">
      <title
         id="title40">0-&gt;2</title>
      <path
         d="m 127,-367.766 c 0,11.917 0,27.728 0,41.284"
         id="path42"
         inkscape:connector-curvature="0"
         style="fill:none;stroke:#000000" />
      <polygon
         points="130.5,-326.21 127,-316.21 123.5,-326.21 130.5,-326.21 "
         id="polygon44"
         style="fill:#000000;stroke:#000000" />
      <text
         x="-341.78867"
         y="-134.49762"
         font-size="14.00"
         id="text46"
         style="font-size:14px;text-anchor:middle;font-family:'Times Roman,serif'"
         transform="matrix(0,1,-1,0,0,0)">/[a-z]/</text>
    </g>
    <!-- 3 -->
    <g
       id="node4"
       class="node"
       transform="matrix(0,1,-1,0,-19,-393)">
      <title
         id="title49">3</title>
      <ellipse
         cx="187"
         cy="-206"
         rx="18"
         ry="18"
         id="ellipse51"
         d="m 205,-206 c 0,9.94113 -8.05887,18 -18,18 -9.94113,0 -18,-8.05887 -18,-18 0,-9.94113 8.05887,-18 18,-18 9.94113,0 18,8.05887 18,18 z"
         sodipodi:cx="187"
         sodipodi:cy="-206"
         sodipodi:rx="18"
         sodipodi:ry="18"
         style="fill:none;stroke:#000000" />
      <ellipse
         cx="187"
         cy="-206"
         rx="22"
         ry="22"
         id="ellipse53"
         d="m 209,-206 c 0,12.15026 -9.84974,22 -22,22 -12.15026,0 -22,-9.84974 -22,-22 0,-12.15026 9.84974,-22 22,-22 12.15026,0 22,9.84974 22,22 z"
         sodipodi:cx="187"
         sodipodi:cy="-206"
         sodipodi:rx="22"
         sodipodi:ry="22"
         style="fill:none;stroke:#000000" />
      <text
         x="187"
         y="-201.39999"
         font-size="14.00"
         id="text55"
         style="font-size:14px;text-anchor:middle;font-family:'Times Roman,serif'">3</text>
    </g>
    <!-- 0&#45;&gt;3 -->
    <g
       id="edge6"
       class="edge">
      <title
         id="title58">0-&gt;3</title>
      <path
         d="m 143.492,-378.698 c 21.192,10.42 56.98,31.778 71.508,62.698 12.521,26.649 0.888,59.662 -10.969,82.532"
         id="path60"
         inkscape:connector-curvature="0"
         style="fill:none;stroke:#000000" />
      <polygon
         points="207.062,-231.716 199.18,-224.636 200.926,-235.086 207.062,-231.716 "
         id="polygon62"
         style="fill:#000000;stroke:#000000" />
      <text
         x="-298.49619"
         y="-224.69016"
         font-size="14.00"
         id="text64"
         style="font-size:14px;text-anchor:middle;font-family:'Times Roman,serif'"
         transform="matrix(0,1,-1,0,0,0)">T</text>
    </g>
    <!-- 4 -->
    <g
       id="node5"
       class="node"
       transform="matrix(0,1,-1,0,-186,-226)">
      <title
         id="title67">4</title>
      <ellipse
         cx="20"
         cy="-206"
         rx="18"
         ry="18"
         id="ellipse69"
         d="m 38,-206 c 0,9.94113 -8.058875,18 -18,18 -9.941125,0 -18,-8.05887 -18,-18 0,-9.94113 8.058875,-18 18,-18 9.941125,0 18,8.05887 18,18 z"
         sodipodi:cx="20"
         sodipodi:cy="-206"
         sodipodi:rx="18"
         sodipodi:ry="18"
         style="fill:none;stroke:#000000" />
      <text
         x="20"
         y="-201.39999"
         font-size="14.00"
         id="text71"
         style="font-size:14px;text-anchor:middle;font-family:'Times Roman,serif'">4</text>
    </g>
    <!-- 1&#45;&gt;4 -->
    <g
       id="edge8"
       class="edge">
      <title
         id="title74">1-&gt;4</title>
      <path
         d="m 64.0093,-282.393 c -8.1471,14.142 -20.2907,35.221 -29.7591,51.657"
         id="path76"
         inkscape:connector-curvature="0"
         style="fill:none;stroke:#000000" />
      <polygon
         points="37.0594,-228.601 29.0348,-221.683 30.9939,-232.095 37.0594,-228.601 "
         id="polygon78"
         style="fill:#000000;stroke:#000000" />
      <text
         x="-254.46542"
         y="-54.82695"
         font-size="14.00"
         id="text80"
         style="font-size:14px;text-anchor:middle;font-family:'Times Roman,serif'"
         transform="matrix(0,1,-1,0,0,0)">b</text>
    </g>
    <!-- 5 -->
    <g
       id="node6"
       class="node"
       transform="matrix(0,1,-1,0,-59,-169)">
      <title
         id="title83">5</title>
      <ellipse
         cx="55"
         cy="-114"
         rx="18"
         ry="18"
         id="ellipse85"
         d="m 73,-114 c 0,9.94113 -8.058875,18 -18,18 -9.941125,0 -18,-8.05887 -18,-18 0,-9.94113 8.058875,-18 18,-18 9.941125,0 18,8.05887 18,18 z"
         sodipodi:cx="55"
         sodipodi:cy="-114"
         sodipodi:rx="18"
         sodipodi:ry="18"
         style="fill:none;stroke:#000000" />
      <text
         x="55"
         y="-109.4"
         font-size="14.00"
         id="text87"
         style="font-size:14px;text-anchor:middle;font-family:'Times Roman,serif'">5</text>
    </g>
    <!-- 1&#45;&gt;5 -->
    <g
       id="edge10"
       class="edge">
      <title
         id="title90">1-&gt;5</title>
      <path
         d="m 75.0678,-279.729 c 2.1575,22.604 4.6271,62.207 -0.0678,95.729 -2.0472,14.617 -6.3886,30.465 -10.505,43.379"
         id="path92"
         inkscape:connector-curvature="0"
         style="fill:none;stroke:#000000" />
      <polygon
         points="67.7641,-139.359 61.29,-130.972 61.121,-141.566 67.7641,-139.359 "
         id="polygon94"
         style="fill:#000000;stroke:#000000" />
      <text
         x="-205.05722"
         y="-83.19062"
         font-size="14.00"
         id="text96"
         style="font-size:14px;text-anchor:middle;font-family:'Times Roman,serif'"
         transform="matrix(0,1,-1,0,0,0)">c</text>
    </g>
    <!-- 2&#45;&gt;2 -->
    <g
       id="edge12"
       class="edge">
      <title
         id="title99">2-&gt;2</title>
      <path
         d="m 143.29,-305.668 c 10.099,-1.849 19.71,0.707 19.71,7.668 0,4.459 -3.944,7.111 -9.434,7.955"
         id="path101"
         inkscape:connector-curvature="0"
         style="fill:none;stroke:#000000" />
      <polygon
         points="153.189,-286.554 143.29,-290.332 153.384,-293.552 153.189,-286.554 "
         id="polygon103"
         style="fill:#000000;stroke:#000000" />
      <text
         x="-297.78867"
         y="-170.49762"
         font-size="14.00"
         id="text105"
         style="font-size:14px;text-anchor:middle;font-family:'Times Roman,serif'"
         transform="matrix(0,1,-1,0,0,0)">/[a-z]/</text>
    </g>
    <!-- 2&#45;&gt;3 -->
    <g
       id="edge14"
       class="edge">
      <title
         id="title108">2-&gt;3</title>
      <path
         d="m 136.908,-282.808 c 8.762,13.435 21.756,33.36 32.314,49.549"
         id="path110"
         inkscape:connector-curvature="0"
         style="fill:none;stroke:#000000" />
      <polygon
         points="172.264,-235.003 174.795,-224.715 166.4,-231.179 172.264,-235.003 "
         id="polygon112"
         style="fill:#000000;stroke:#000000" />
      <text
         x="-254.49619"
         y="-163.09015"
         font-size="14.00"
         id="text114"
         style="font-size:14px;text-anchor:middle;font-family:'Times Roman,serif'"
         transform="matrix(0,1,-1,0,0,0)">T</text>
    </g>
    <!-- 4&#45;&gt;4 -->
    <g
       id="edge18"
       class="edge">
      <title
         id="title117">4-&gt;4</title>
      <path
         d="M 36.2903,-214.365 C 46.3892,-216.382 56,-213.594 56,-206 c 0,4.865 -3.9443,7.757 -9.4344,8.678"
         id="path119"
         inkscape:connector-curvature="0"
         style="fill:none;stroke:#000000" />
      <polygon
         points="46.1791,-193.832 36.2903,-197.635 46.3922,-200.829 46.1791,-193.832 "
         id="polygon121"
         style="fill:#000000;stroke:#000000" />
      <text
         x="-206.46542"
         y="-58.82695"
         font-size="14.00"
         id="text123"
         style="font-size:14px;text-anchor:middle;font-family:'Times Roman,serif'"
         transform="matrix(0,1,-1,0,0,0)">b</text>
    </g>
    <!-- 4&#45;&gt;5 -->
    <g
       id="edge20"
       class="edge">
      <title
         id="title126">4-&gt;5</title>
      <path
         d="m 30.5997,-191.04 c 4.7144,7.264 9.9643,16.297 13.4003,25.04 2.9568,7.524 5.1781,15.988 6.8211,23.868"
         id="path128"
         inkscape:connector-curvature="0"
         style="fill:none;stroke:#000000" />
      <polygon
         points="54.2736,-142.709 52.6609,-132.238 47.3916,-141.429 54.2736,-142.709 "
         id="polygon130"
         style="fill:#000000;stroke:#000000" />
      <text
         x="-157.05722"
         y="-52.590622"
         font-size="14.00"
         id="text132"
         style="font-size:14px;text-anchor:middle;font-family:'Times Roman,serif'"
         transform="matrix(0,1,-1,0,0,0)">c</text>
    </g>
    <!-- 6 -->
    <g
       id="node7"
       class="node"
       transform="matrix(0,1,-1,0,0,-44)">
      <title
         id="title135">6</title>
      <ellipse
         cx="22"
         cy="-22"
         rx="18"
         ry="18"
         id="ellipse137"
         d="m 40,-22 c 0,9.941125 -8.058875,18 -18,18 -9.941125,0 -18,-8.058875 -18,-18 0,-9.941125 8.058875,-18 18,-18 9.941125,0 18,8.058875 18,18 z"
         sodipodi:cx="22"
         sodipodi:cy="-22"
         sodipodi:rx="18"
         sodipodi:ry="18"
         style="fill:none;stroke:#000000" />
      <ellipse
         cx="22"
         cy="-22"
         rx="22"
         ry="22"
         id="ellipse139"
         d="M 44,-22 C 44,-9.8497355 34.150264,0 22,0 9.8497355,0 0,-9.8497355 0,-22 c 0,-12.150264 9.8497355,-22 22,-22 12.150264,0 22,9.849736 22,22 z"
         sodipodi:cx="22"
         sodipodi:cy="-22"
         sodipodi:rx="22"
         sodipodi:ry="22"
         style="fill:none;stroke:#000000" />
      <text
         x="22"
         y="-17.4"
         font-size="14.00"
         id="text141"
         style="font-size:14px;text-anchor:middle;font-family:'Times Roman,serif'">6</text>
    </g>
    <!-- 4&#45;&gt;6 -->
    <g
       id="edge16"
       class="edge">
      <title
         id="title144">4-&gt;6</title>
      <path
         d="M 19.5055,-187.703 C 18.9914,-165.872 18.3462,-128.269 19,-96 c 0.2767,13.6586 0.8405,28.7265 1.4054,41.6812"
         id="path146"
         inkscape:connector-curvature="0"
         style="fill:none;stroke:#000000" />
      <polygon
         points="23.9162,-54.16 20.8739,-44.0113 16.9234,-53.8421 23.9162,-54.16 "
         id="polygon148"
         style="fill:#000000;stroke:#000000" />
      <text
         x="-113.18711"
         y="-21.620508"
         font-size="14.00"
         id="text150"
         style="font-size:14px;text-anchor:middle;font-family:'Times Roman,serif'"
         transform="matrix(0,1,-1,0,0,0)">a</text>
    </g>
    <!-- 5&#45;&gt;4 -->
    <g
       id="edge24"
       class="edge">
      <title
         id="title153">5-&gt;4</title>
      <path
         d="M 44.4462,-128.843 C 40.3788,-135.127 35.9953,-142.678 33,-150 c -3.6519,-8.927 -6.3991,-19.093 -8.4043,-28.292"
         id="path155"
         inkscape:connector-curvature="0"
         style="fill:none;stroke:#000000" />
      <polygon
         points="21.1533,-177.658 22.6384,-188.148 28.0192,-179.022 21.1533,-177.658 "
         id="polygon157"
         style="fill:#000000;stroke:#000000" />
      <text
         x="-158.46542"
         y="-32.626953"
         font-size="14.00"
         id="text159"
         style="font-size:14px;text-anchor:middle;font-family:'Times Roman,serif'"
         transform="matrix(0,1,-1,0,0,0)">b</text>
    </g>
    <!-- 5&#45;&gt;5 -->
    <g
       id="edge26"
       class="edge">
      <title
         id="title162">5-&gt;5</title>
      <path
         d="M 71.2903,-121.668 C 81.3892,-123.517 91,-120.961 91,-114 c 0,4.459 -3.9443,7.111 -9.4344,7.955"
         id="path164"
         inkscape:connector-curvature="0"
         style="fill:none;stroke:#000000" />
      <polygon
         points="81.1887,-102.554 71.2903,-106.332 81.384,-109.552 81.1887,-102.554 "
         id="polygon166"
         style="fill:#000000;stroke:#000000" />
      <text
         x="-113.05723"
         y="-94.590622"
         font-size="14.00"
         id="text168"
         style="font-size:14px;text-anchor:middle;font-family:'Times Roman,serif'"
         transform="matrix(0,1,-1,0,0,0)">c</text>
    </g>
    <!-- 5&#45;&gt;6 -->
    <g
       id="edge22"
       class="edge">
      <title
         id="title171">5-&gt;6</title>
      <path
         d="m 48.793,-96.6955 c -4.46,12.4337 -10.5904,29.5245 -15.8617,44.2204"
         id="path173"
         inkscape:connector-curvature="0"
         style="fill:none;stroke:#000000" />
      <polygon
         points="36.1211,-51.0013 29.4502,-42.7703 29.5321,-53.3648 36.1211,-51.0013 "
         id="polygon175"
         style="fill:#000000;stroke:#000000" />
      <text
         x="-69.187111"
         y="-43.020508"
         font-size="14.00"
         id="text177"
         style="font-size:14px;text-anchor:middle;font-family:'Times Roman,serif'"
         transform="matrix(0,1,-1,0,0,0)">a</text>
    </g>
  </g>
</svg>
