<!DOCTYPE svg PUBLIC "-//W3C//DTD SVG 1.1//EN" "http://www.w3.org/Graphics/SVG/1.1/DTD/svg11.dtd">
<svg xmlns="http://www.w3.org/2000/svg" xmlns:xlink="http://www.w3.org/1999/xlink" version="1.1" width="897px" height="252px" viewBox="-0.5 -0.5 897 252"><defs><clipPath id="mx-clip-523-46-132-26-0"><rect x="523" y="46" width="132" height="26"/></clipPath><clipPath id="mx-clip-523-72-132-26-0"><rect x="523" y="72" width="132" height="26"/></clipPath><clipPath id="mx-clip-523-189-132-26-0"><rect x="523" y="189" width="132" height="26"/></clipPath><clipPath id="mx-clip-760-59-132-26-0"><rect x="760" y="59" width="132" height="26"/></clipPath><clipPath id="mx-clip-760-189-132-26-0"><rect x="760" y="189" width="132" height="26"/></clipPath><clipPath id="mx-clip-4-44-132-26-0"><rect x="4" y="44" width="132" height="26"/></clipPath><clipPath id="mx-clip-4-70-132-26-0"><rect x="4" y="70" width="132" height="26"/></clipPath><clipPath id="mx-clip-4-187-132-26-0"><rect x="4" y="187" width="132" height="26"/></clipPath><clipPath id="mx-clip-242-57-132-26-0"><rect x="242" y="57" width="132" height="26"/></clipPath><clipPath id="mx-clip-242-187-132-26-0"><rect x="242" y="187" width="132" height="26"/></clipPath></defs><g><path d="M 589 92.5 L 589 155.26" fill="none" stroke="#000000" stroke-miterlimit="10" stroke-dasharray="3 3" pointer-events="none"/><path d="M 582.5 143.38 L 589 156.38 L 595.5 143.38" fill="none" stroke="#000000" stroke-miterlimit="10" pointer-events="none"/><path d="M 519 40.5 L 519 14.5 L 659 14.5 L 659 40.5" fill="none" stroke="#000000" stroke-miterlimit="10" pointer-events="none"/><path d="M 519 40.5 L 519 92.5 L 659 92.5 L 659 40.5" fill="none" stroke="#000000" stroke-miterlimit="10" pointer-events="none"/><path d="M 519 40.5 L 659 40.5" fill="none" stroke="#000000" stroke-miterlimit="10" pointer-events="none"/><g fill="#000000" font-family="Helvetica" text-anchor="middle" font-size="12px"><text x="588.5" y="31.83">Client</text></g><g fill="#000000" font-family="Helvetica" clip-path="url(#mx-clip-523-46-132-26-0)" font-size="12px"><text x="524.5" y="58">Move()</text></g><g fill="#000000" font-family="Helvetica" clip-path="url(#mx-clip-523-72-132-26-0)" font-size="12px"><text x="524.5" y="84">Draw(Graphics)</text></g><path d="M 519 183.5 L 519 157.5 L 659 157.5 L 659 183.5" fill="none" stroke="#000000" stroke-miterlimit="10" pointer-events="none"/><path d="M 519 183.5 L 519 209.5 L 659 209.5 L 659 183.5" fill="none" stroke="#000000" stroke-miterlimit="10" pointer-events="none"/><path d="M 519 183.5 L 659 183.5" fill="none" stroke="#000000" stroke-miterlimit="10" pointer-events="none"/><g fill="#000000" font-family="Helvetica" text-anchor="middle" font-size="12px"><text x="588.5" y="174.83">Target</text></g><g fill="#000000" font-family="Helvetica" clip-path="url(#mx-clip-523-189-132-26-0)" font-size="12px"><text x="524.5" y="201">Request()</text></g><path d="M 756 53.5 L 756 27.5 L 896 27.5 L 896 53.5" fill="none" stroke="#000000" stroke-miterlimit="10" pointer-events="none"/><path d="M 756 53.5 L 756 79.5 L 896 79.5 L 896 53.5" fill="none" stroke="#000000" stroke-miterlimit="10" pointer-events="none"/><path d="M 756 53.5 L 896 53.5" fill="none" stroke="#000000" stroke-miterlimit="10" pointer-events="none"/><g fill="#000000" font-family="Helvetica" text-anchor="middle" font-size="12px"><text x="825.5" y="44.83">Adaptee</text></g><g fill="#000000" font-family="Helvetica" clip-path="url(#mx-clip-760-59-132-26-0)" font-size="12px"><text x="761.5" y="71">SpecificRequest()</text></g><path d="M 756 183.5 L 673.12 183.5" fill="none" stroke="#000000" stroke-miterlimit="10" pointer-events="none"/><path d="M 660.12 183.5 L 673.12 177 L 673.12 190 Z" fill="none" stroke="#000000" stroke-miterlimit="10" pointer-events="none"/><path d="M 756 183.5 L 756 157.5 L 896 157.5 L 896 183.5" fill="none" stroke="#000000" stroke-miterlimit="10" pointer-events="none"/><path d="M 756 183.5 L 756 209.5 L 896 209.5 L 896 183.5" fill="none" stroke="#000000" stroke-miterlimit="10" pointer-events="none"/><path d="M 756 183.5 L 896 183.5" fill="none" stroke="#000000" stroke-miterlimit="10" pointer-events="none"/><g fill="#000000" font-family="Helvetica" text-anchor="middle" font-size="12px"><text x="825.5" y="174.83">Adapter</text></g><g fill="#000000" font-family="Helvetica" clip-path="url(#mx-clip-760-189-132-26-0)" font-size="12px"><text x="761.5" y="201">Request()</text></g><path d="M 826 157.5 L 826 81.74" fill="none" stroke="#000000" stroke-miterlimit="10" pointer-events="none"/><path d="M 832.5 93.62 L 826 80.62 L 819.5 93.62" fill="none" stroke="#000000" stroke-miterlimit="10" pointer-events="none"/><path d="M 70.5 90.5 L 70.5 153.26" fill="none" stroke="#000000" stroke-miterlimit="10" stroke-dasharray="3 3" pointer-events="none"/><path d="M 64 141.38 L 70.5 154.38 L 77 141.38" fill="none" stroke="#000000" stroke-miterlimit="10" pointer-events="none"/><path d="M 0.5 38.5 L 0.5 12.5 L 140.5 12.5 L 140.5 38.5" fill="none" stroke="#000000" stroke-miterlimit="10" pointer-events="none"/><path d="M 0.5 38.5 L 0.5 90.5 L 140.5 90.5 L 140.5 38.5" fill="none" stroke="#000000" stroke-miterlimit="10" pointer-events="none"/><path d="M 0.5 38.5 L 140.5 38.5" fill="none" stroke="#000000" stroke-miterlimit="10" pointer-events="none"/><g fill="#000000" font-family="Helvetica" text-anchor="middle" font-size="12px"><text x="70" y="29.83">Client</text></g><g fill="#000000" font-family="Helvetica" clip-path="url(#mx-clip-4-44-132-26-0)" font-size="12px"><text x="6" y="56">Move()</text></g><g fill="#000000" font-family="Helvetica" clip-path="url(#mx-clip-4-70-132-26-0)" font-size="12px"><text x="6" y="82">Draw(Graphics)</text></g><path d="M 0.5 181.5 L 0.5 155.5 L 140.5 155.5 L 140.5 181.5" fill="none" stroke="#000000" stroke-miterlimit="10" pointer-events="none"/><path d="M 0.5 181.5 L 0.5 207.5 L 140.5 207.5 L 140.5 181.5" fill="none" stroke="#000000" stroke-miterlimit="10" pointer-events="none"/><path d="M 0.5 181.5 L 140.5 181.5" fill="none" stroke="#000000" stroke-miterlimit="10" pointer-events="none"/><g fill="#000000" font-family="Helvetica" text-anchor="middle" font-size="12px"><text x="70" y="172.83">Target</text></g><g fill="#000000" font-family="Helvetica" clip-path="url(#mx-clip-4-187-132-26-0)" font-size="12px"><text x="6" y="199">Request()</text></g><path d="M 237.5 51.5 L 237.5 25.5 L 377.5 25.5 L 377.5 51.5" fill="none" stroke="#000000" stroke-miterlimit="10" pointer-events="none"/><path d="M 237.5 51.5 L 237.5 77.5 L 377.5 77.5 L 377.5 51.5" fill="none" stroke="#000000" stroke-miterlimit="10" pointer-events="none"/><path d="M 237.5 51.5 L 377.5 51.5" fill="none" stroke="#000000" stroke-miterlimit="10" pointer-events="none"/><g fill="#000000" font-family="Helvetica" text-anchor="middle" font-size="12px"><text x="307" y="42.83">Adaptee</text></g><g fill="#000000" font-family="Helvetica" clip-path="url(#mx-clip-242-57-132-26-0)" font-size="12px"><text x="243" y="69">SpecificRequest()</text></g><path d="M 237.5 181.5 L 154.62 181.5" fill="none" stroke="#000000" stroke-miterlimit="10" pointer-events="none"/><path d="M 141.62 181.5 L 154.62 175 L 154.62 188 Z" fill="none" stroke="#000000" stroke-miterlimit="10" pointer-events="none"/><path d="M 307.5 155.5 L 307.5 91.62" fill="none" stroke="#000000" stroke-miterlimit="10" pointer-events="none"/><path d="M 307.5 78.62 L 314 91.62 L 301 91.62 Z" fill="none" stroke="#000000" stroke-miterlimit="10" pointer-events="none"/><path d="M 237.5 181.5 L 237.5 155.5 L 377.5 155.5 L 377.5 181.5" fill="none" stroke="#000000" stroke-miterlimit="10" pointer-events="none"/><path d="M 237.5 181.5 L 237.5 207.5 L 377.5 207.5 L 377.5 181.5" fill="none" stroke="#000000" stroke-miterlimit="10" pointer-events="none"/><path d="M 237.5 181.5 L 377.5 181.5" fill="none" stroke="#000000" stroke-miterlimit="10" pointer-events="none"/><g fill="#000000" font-family="Helvetica" text-anchor="middle" font-size="12px"><text x="307" y="172.83">Adapter</text></g><g fill="#000000" font-family="Helvetica" clip-path="url(#mx-clip-242-187-132-26-0)" font-size="12px"><text x="243" y="199">Request()</text></g><path d="M 450 250 L 450 0" fill="none" stroke="#000000" stroke-miterlimit="10" stroke-dasharray="3 3" pointer-events="none"/></g></svg>