<!DOCTYPE svg PUBLIC "-//W3C//DTD SVG 1.1//EN" "http://www.w3.org/Graphics/SVG/1.1/DTD/svg11.dtd">
<svg xmlns="http://www.w3.org/2000/svg" xmlns:xlink="http://www.w3.org/1999/xlink" version="1.1" width="1043px" height="376px" viewBox="-0.5 -0.5 1043 376"><defs/><g><path d="M 164.5 84 L 164.56 84 L 164.69 91.55 L 164.67 99.11 L 164.62 106.66 L 164.59 114.21 L 164.5 121.76" fill="none" stroke="#000000" stroke-linejoin="round" stroke-linecap="round" stroke-miterlimit="10" stroke-dasharray="3 3" transform="translate(2,3)" opacity="0.25"/><path d="M 164.5 84 L 164.56 84 L 164.69 91.55 L 164.67 99.11 L 164.62 106.66 L 164.59 114.21 L 164.5 121.76" fill="none" stroke="#000000" stroke-linejoin="round" stroke-linecap="round" stroke-miterlimit="10" stroke-dasharray="3 3" pointer-events="none"/><path d="M 161 115.88 L 161.02 115.89 L 161.64 117.25 L 162.52 118.74 L 163.17 120.12 L 163.7 121.43 L 164.5 122.88 L 164.4 122.83 L 165.04 121.4 L 165.94 120.1 L 166.38 118.57 L 167.33 117.29 L 168 115.88" fill="none" stroke="#000000" stroke-linejoin="round" stroke-linecap="round" stroke-miterlimit="10" pointer-events="none"/><path d="M 124.5 64.33 L 124.5 64.17 L 114.5 64.97 L 104.5 63.99 L 94.5 64.7 L 84.5 63.96 L 74.5 65.05 L 64.5 64.43 L 54.5 64.48 L 44.5 64.33 L 44.88 64.33 L 45.21 73.96 L 43.98 83.59 L 44.72 93.22 L 45.06 102.84 L 44.8 112.47 L 44.5 122.1" fill="none" stroke="#000000" stroke-linejoin="round" stroke-linecap="round" stroke-miterlimit="10" stroke-dasharray="3 3" transform="translate(2,3)" opacity="0.25"/><path d="M 124.5 64.33 L 124.5 64.17 L 114.5 64.97 L 104.5 63.99 L 94.5 64.7 L 84.5 63.96 L 74.5 65.05 L 64.5 64.43 L 54.5 64.48 L 44.5 64.33 L 44.88 64.33 L 45.21 73.96 L 43.98 83.59 L 44.72 93.22 L 45.06 102.84 L 44.8 112.47 L 44.5 122.1" fill="none" stroke="#000000" stroke-linejoin="round" stroke-linecap="round" stroke-miterlimit="10" stroke-dasharray="3 3" pointer-events="none"/><path d="M 41 116.22 L 41.2 116.31 L 41.52 117.52 L 42.27 118.95 L 42.98 120.36 L 43.87 121.85 L 44.5 123.22 L 44.67 123.3 L 45.33 121.88 L 45.72 120.33 L 46.58 119.01 L 47.51 117.72 L 48 116.22" fill="none" stroke="#000000" stroke-linejoin="round" stroke-linecap="round" stroke-miterlimit="10" pointer-events="none"/><path d="M 204.5 64.33 L 204.5 63.98 L 214.5 63.88 L 224.5 64 L 234.5 64.23 L 244.5 64.9 L 254.5 64.3 L 264.5 64.17 L 274.5 64.48 L 284.5 64.33 L 283.94 64.33 L 283.9 73.96 L 284.24 83.59 L 284.87 93.22 L 284.82 102.84 L 284.65 112.47 L 284.5 122.1" fill="none" stroke="#000000" stroke-linejoin="round" stroke-linecap="round" stroke-miterlimit="10" stroke-dasharray="3 3" transform="translate(2,3)" opacity="0.25"/><path d="M 204.5 64.33 L 204.5 63.98 L 214.5 63.88 L 224.5 64 L 234.5 64.23 L 244.5 64.9 L 254.5 64.3 L 264.5 64.17 L 274.5 64.48 L 284.5 64.33 L 283.94 64.33 L 283.9 73.96 L 284.24 83.59 L 284.87 93.22 L 284.82 102.84 L 284.65 112.47 L 284.5 122.1" fill="none" stroke="#000000" stroke-linejoin="round" stroke-linecap="round" stroke-miterlimit="10" stroke-dasharray="3 3" pointer-events="none"/><path d="M 281 116.22 L 280.87 116.15 L 281.88 117.7 L 282.25 118.94 L 283.26 120.49 L 283.6 121.72 L 284.5 123.22 L 284.54 123.24 L 285.24 121.84 L 285.75 120.34 L 286.41 118.92 L 287.41 117.67 L 288 116.22" fill="none" stroke="#000000" stroke-linejoin="round" stroke-linecap="round" stroke-miterlimit="10" pointer-events="none"/><path d="M 124.5 44 L 124.5 43.61 L 134.5 44.42 L 144.5 44.21 L 154.5 43.47 L 164.5 43.34 L 174.5 44.6 L 184.5 43.6 L 194.5 44.04 L 204.5 44 L 204.38 44 L 204.73 52 L 204.46 60 L 204.28 68 L 204.57 76 L 204.5 84 L 204.5 84.44 L 194.5 83.93 L 184.5 84.19 L 174.5 84.31 L 164.5 84.09 L 154.5 84.75 L 144.5 83.97 L 134.5 83.75 L 124.5 84 L 124.35 84 L 124.67 76 L 124.28 68 L 124.44 60 L 124.37 52 L 124.5 44 L 124.5 44 Z Z" fill="#000000" stroke="#000000" stroke-linejoin="round" stroke-linecap="round" stroke-miterlimit="10" transform="translate(2,3)" opacity="0.25"/><path d="M 124.5 44 L 124.5 43.61 L 134.5 44.42 L 144.5 44.21 L 154.5 43.47 L 164.5 43.34 L 174.5 44.6 L 184.5 43.6 L 194.5 44.04 L 204.5 44 L 204.38 44 L 204.73 52 L 204.46 60 L 204.28 68 L 204.57 76 L 204.5 84 L 204.5 84.44 L 194.5 83.93 L 184.5 84.19 L 174.5 84.31 L 164.5 84.09 L 154.5 84.75 L 144.5 83.97 L 134.5 83.75 L 124.5 84 L 124.35 84 L 124.67 76 L 124.28 68 L 124.44 60 L 124.37 52 L 124.5 44 L 124.5 44 Z Z" fill="#ffffff" stroke="#000000" stroke-linejoin="round" stroke-linecap="round" stroke-miterlimit="10" pointer-events="none"/><path d="M 164.5 164 L 164.56 164 L 164.51 171.55 L 164.46 179.11 L 164.57 186.66 L 164.67 194.21 L 164.5 201.76" fill="none" stroke="#000000" stroke-linejoin="round" stroke-linecap="round" stroke-miterlimit="10" stroke-dasharray="3 3" transform="translate(2,3)" opacity="0.25"/><path d="M 164.5 164 L 164.56 164 L 164.51 171.55 L 164.46 179.11 L 164.57 186.66 L 164.67 194.21 L 164.5 201.76" fill="none" stroke="#000000" stroke-linejoin="round" stroke-linecap="round" stroke-miterlimit="10" stroke-dasharray="3 3" pointer-events="none"/><path d="M 161 195.88 L 161.02 195.89 L 161.75 197.31 L 162.58 198.77 L 163.13 200.1 L 163.95 201.56 L 164.5 202.88 L 164.39 202.82 L 165.42 201.59 L 165.73 200 L 166.81 198.79 L 167.21 197.24 L 168 195.88" fill="none" stroke="#000000" stroke-linejoin="round" stroke-linecap="round" stroke-miterlimit="10" pointer-events="none"/><path d="M 124.5 124 L 124.5 124.22 L 134.5 123.61 L 144.5 124.29 L 154.5 123.81 L 164.5 124.6 L 174.5 123.6 L 184.5 124.5 L 194.5 124.65 L 204.5 124 L 204.3 124 L 204.67 132 L 204.5 140 L 204.41 148 L 204.46 156 L 204.5 164 L 204.5 164.67 L 194.5 163.52 L 184.5 164.35 L 174.5 163.64 L 164.5 164.48 L 154.5 163.75 L 144.5 164.4 L 134.5 164.55 L 124.5 164 L 124.27 164 L 124.32 156 L 124.31 148 L 124.68 140 L 124.64 132 L 124.5 124 L 124.5 124 Z Z" fill="#000000" stroke="#000000" stroke-linejoin="round" stroke-linecap="round" stroke-miterlimit="10" transform="translate(2,3)" opacity="0.25"/><path d="M 124.5 124 L 124.5 124.22 L 134.5 123.61 L 144.5 124.29 L 154.5 123.81 L 164.5 124.6 L 174.5 123.6 L 184.5 124.5 L 194.5 124.65 L 204.5 124 L 204.3 124 L 204.67 132 L 204.5 140 L 204.41 148 L 204.46 156 L 204.5 164 L 204.5 164.67 L 194.5 163.52 L 184.5 164.35 L 174.5 163.64 L 164.5 164.48 L 154.5 163.75 L 144.5 164.4 L 134.5 164.55 L 124.5 164 L 124.27 164 L 124.32 156 L 124.31 148 L 124.68 140 L 124.64 132 L 124.5 124 L 124.5 124 Z Z" fill="#ffffff" stroke="#000000" stroke-linejoin="round" stroke-linecap="round" stroke-miterlimit="10" pointer-events="none"/><path d="M 44.5 164.33 L 44.6 164.33 L 44.74 171.89 L 44.32 179.44 L 44.28 186.99 L 44.63 194.54 L 44.5 202.1" fill="none" stroke="#000000" stroke-linejoin="round" stroke-linecap="round" stroke-miterlimit="10" stroke-dasharray="3 3" transform="translate(2,3)" opacity="0.25"/><path d="M 44.5 164.33 L 44.6 164.33 L 44.74 171.89 L 44.32 179.44 L 44.28 186.99 L 44.63 194.54 L 44.5 202.1" fill="none" stroke="#000000" stroke-linejoin="round" stroke-linecap="round" stroke-miterlimit="10" stroke-dasharray="3 3" pointer-events="none"/><path d="M 41 196.22 L 41.07 196.25 L 41.56 197.55 L 42.36 199 L 43.04 200.38 L 43.77 201.8 L 44.5 203.22 L 44.39 203.16 L 45.38 201.91 L 45.86 200.4 L 46.44 198.93 L 47.46 197.7 L 48 196.22" fill="none" stroke="#000000" stroke-linejoin="round" stroke-linecap="round" stroke-miterlimit="10" pointer-events="none"/><path d="M 4.5 124 L 4.5 123.67 L 14.5 123.96 L 24.5 123.78 L 34.5 124.33 L 44.5 123.78 L 54.5 123.73 L 64.5 123.96 L 74.5 124.56 L 84.5 124 L 84.5 124 L 84.34 132 L 84.36 140 L 84.51 148 L 84.38 156 L 84.5 164 L 84.5 164.32 L 74.5 163.69 L 64.5 164.37 L 54.5 164.66 L 44.5 164.68 L 34.5 164.55 L 24.5 163.86 L 14.5 163.84 L 4.5 164 L 4.7 164 L 4.32 156 L 4.4 148 L 4.53 140 L 4.46 132 L 4.5 124 L 4.5 124 Z Z" fill="#000000" stroke="#000000" stroke-linejoin="round" stroke-linecap="round" stroke-miterlimit="10" transform="translate(2,3)" opacity="0.25"/><path d="M 4.5 124 L 4.5 123.67 L 14.5 123.96 L 24.5 123.78 L 34.5 124.33 L 44.5 123.78 L 54.5 123.73 L 64.5 123.96 L 74.5 124.56 L 84.5 124 L 84.5 124 L 84.34 132 L 84.36 140 L 84.51 148 L 84.38 156 L 84.5 164 L 84.5 164.32 L 74.5 163.69 L 64.5 164.37 L 54.5 164.66 L 44.5 164.68 L 34.5 164.55 L 24.5 163.86 L 14.5 163.84 L 4.5 164 L 4.7 164 L 4.32 156 L 4.4 148 L 4.53 140 L 4.46 132 L 4.5 124 L 4.5 124 Z Z" fill="#ffffff" stroke="#000000" stroke-linejoin="round" stroke-linecap="round" stroke-miterlimit="10" pointer-events="none"/><path d="M 324.5 144 L 324.5 144.15 L 332.05 143.85 L 339.61 144.04 L 347.16 144.16 L 354.71 144.2 L 362.26 144" fill="none" stroke="#000000" stroke-linejoin="round" stroke-linecap="round" stroke-miterlimit="10" stroke-dasharray="3 3" transform="translate(2,3)" opacity="0.25"/><path d="M 324.5 144 L 324.5 144.15 L 332.05 143.85 L 339.61 144.04 L 347.16 144.16 L 354.71 144.2 L 362.26 144" fill="none" stroke="#000000" stroke-linejoin="round" stroke-linecap="round" stroke-miterlimit="10" stroke-dasharray="3 3" pointer-events="none"/><path d="M 356.38 147.5 L 356.44 147.61 L 357.87 146.98 L 359.24 146.21 L 360.56 145.36 L 361.92 144.57 L 363.38 144 L 363.32 143.87 L 362.09 143.52 L 360.54 142.52 L 359.18 141.89 L 357.89 141.41 L 356.38 140.5" fill="none" stroke="#000000" stroke-linejoin="round" stroke-linecap="round" stroke-miterlimit="10" pointer-events="none"/><path d="M 244.5 124 L 244.5 123.46 L 254.5 124.04 L 264.5 124.27 L 274.5 123.4 L 284.5 123.48 L 294.5 123.69 L 304.5 124.54 L 314.5 123.3 L 324.5 124 L 324.46 124 L 324.53 132 L 324.57 140 L 324.68 148 L 324.57 156 L 324.5 164 L 324.5 163.74 L 314.5 163.4 L 304.5 163.87 L 294.5 164.25 L 284.5 163.91 L 274.5 163.93 L 264.5 163.26 L 254.5 164.74 L 244.5 164 L 244.27 164 L 244.59 156 L 244.36 148 L 244.33 140 L 244.61 132 L 244.5 124 L 244.5 124 Z Z" fill="#000000" stroke="#000000" stroke-linejoin="round" stroke-linecap="round" stroke-miterlimit="10" transform="translate(2,3)" opacity="0.25"/><path d="M 244.5 124 L 244.5 123.46 L 254.5 124.04 L 264.5 124.27 L 274.5 123.4 L 284.5 123.48 L 294.5 123.69 L 304.5 124.54 L 314.5 123.3 L 324.5 124 L 324.46 124 L 324.53 132 L 324.57 140 L 324.68 148 L 324.57 156 L 324.5 164 L 324.5 163.74 L 314.5 163.4 L 304.5 163.87 L 294.5 164.25 L 284.5 163.91 L 274.5 163.93 L 264.5 163.26 L 254.5 164.74 L 244.5 164 L 244.27 164 L 244.59 156 L 244.36 148 L 244.33 140 L 244.61 132 L 244.5 124 L 244.5 124 Z Z" fill="#ffffff" stroke="#000000" stroke-linejoin="round" stroke-linecap="round" stroke-miterlimit="10" pointer-events="none"/><path d="M 404.5 164.33 L 404.7 164.33 L 404.57 171.89 L 404.71 179.44 L 404.56 186.99 L 404.44 194.54 L 404.5 202.1" fill="none" stroke="#000000" stroke-linejoin="round" stroke-linecap="round" stroke-miterlimit="10" stroke-dasharray="3 3" transform="translate(2,3)" opacity="0.25"/><path d="M 404.5 164.33 L 404.7 164.33 L 404.57 171.89 L 404.71 179.44 L 404.56 186.99 L 404.44 194.54 L 404.5 202.1" fill="none" stroke="#000000" stroke-linejoin="round" stroke-linecap="round" stroke-miterlimit="10" stroke-dasharray="3 3" pointer-events="none"/><path d="M 401 196.22 L 401.09 196.26 L 401.71 197.62 L 402.41 199.02 L 402.94 200.34 L 403.64 201.74 L 404.5 203.22 L 404.35 203.14 L 405.37 201.9 L 405.74 200.34 L 406.53 198.98 L 407.26 197.59 L 408 196.22" fill="none" stroke="#000000" stroke-linejoin="round" stroke-linecap="round" stroke-miterlimit="10" pointer-events="none"/><path d="M 364.5 124 L 364.5 124.71 L 374.5 123.98 L 384.5 123.74 L 394.5 124.43 L 404.5 123.76 L 414.5 124.48 L 424.5 123.76 L 434.5 124.57 L 444.5 124 L 444.44 124 L 444.31 132 L 444.28 140 L 444.43 148 L 444.67 156 L 444.5 164 L 444.5 163.43 L 434.5 163.35 L 424.5 163.34 L 414.5 163.76 L 404.5 164.44 L 394.5 164.53 L 384.5 163.27 L 374.5 164.24 L 364.5 164 L 364.45 164 L 364.26 156 L 364.37 148 L 364.56 140 L 364.67 132 L 364.5 124 L 364.5 124 Z Z" fill="#000000" stroke="#000000" stroke-linejoin="round" stroke-linecap="round" stroke-miterlimit="10" transform="translate(2,3)" opacity="0.25"/><path d="M 364.5 124 L 364.5 124.71 L 374.5 123.98 L 384.5 123.74 L 394.5 124.43 L 404.5 123.76 L 414.5 124.48 L 424.5 123.76 L 434.5 124.57 L 444.5 124 L 444.44 124 L 444.31 132 L 444.28 140 L 444.43 148 L 444.67 156 L 444.5 164 L 444.5 163.43 L 434.5 163.35 L 424.5 163.34 L 414.5 163.76 L 404.5 164.44 L 394.5 164.53 L 384.5 163.27 L 374.5 164.24 L 364.5 164 L 364.45 164 L 364.26 156 L 364.37 148 L 364.56 140 L 364.67 132 L 364.5 124 L 364.5 124 Z Z" fill="#ffffff" stroke="#000000" stroke-linejoin="round" stroke-linecap="round" stroke-miterlimit="10" pointer-events="none"/><path d="M 124.5 224.33 L 124.5 224.35 L 120.5 224.15 L 116.5 224.4 L 112.5 224.12 L 108.5 224.24 L 104.5 224.33 L 104.5 224.38 L 100.95 224.18 L 97.39 224.27 L 93.84 224.45 L 90.29 224.42 L 86.74 224.33" fill="none" stroke="#000000" stroke-linejoin="round" stroke-linecap="round" stroke-miterlimit="10" stroke-dasharray="3 3" transform="translate(2,3)" opacity="0.25"/><path d="M 124.5 224.33 L 124.5 224.35 L 120.5 224.15 L 116.5 224.4 L 112.5 224.12 L 108.5 224.24 L 104.5 224.33 L 104.5 224.38 L 100.95 224.18 L 97.39 224.27 L 93.84 224.45 L 90.29 224.42 L 86.74 224.33" fill="none" stroke="#000000" stroke-linejoin="round" stroke-linecap="round" stroke-miterlimit="10" stroke-dasharray="3 3" pointer-events="none"/><path d="M 92.62 220.83 L 92.58 220.75 L 91.22 221.53 L 89.92 222.44 L 88.51 223.11 L 86.93 223.45 L 85.62 224.33 L 85.54 224.18 L 86.99 224.97 L 88.44 225.79 L 89.83 226.45 L 91.27 227.24 L 92.62 227.83" fill="none" stroke="#000000" stroke-linejoin="round" stroke-linecap="round" stroke-miterlimit="10" pointer-events="none"/><path d="M 204.5 224.33 L 204.5 223.7 L 214.5 223.67 L 224.5 224.29 L 234.5 223.93 L 244.5 224.37 L 254.5 224.5 L 264.5 223.64 L 274.5 224.04 L 284.5 224.33 L 284.5 224.42 L 294.22 224.52 L 303.94 224.64 L 313.66 224.69 L 323.38 224.98 L 333.1 224.02 L 342.82 224.61 L 352.54 224.56 L 362.26 224.33" fill="none" stroke="#000000" stroke-linejoin="round" stroke-linecap="round" stroke-miterlimit="10" stroke-dasharray="3 3" transform="translate(2,3)" opacity="0.25"/><path d="M 204.5 224.33 L 204.5 223.7 L 214.5 223.67 L 224.5 224.29 L 234.5 223.93 L 244.5 224.37 L 254.5 224.5 L 264.5 223.64 L 274.5 224.04 L 284.5 224.33 L 284.5 224.42 L 294.22 224.52 L 303.94 224.64 L 313.66 224.69 L 323.38 224.98 L 333.1 224.02 L 342.82 224.61 L 352.54 224.56 L 362.26 224.33" fill="none" stroke="#000000" stroke-linejoin="round" stroke-linecap="round" stroke-miterlimit="10" stroke-dasharray="3 3" pointer-events="none"/><path d="M 356.38 227.83 L 356.42 227.91 L 357.69 226.94 L 359.29 226.65 L 360.51 225.59 L 361.92 224.91 L 363.38 224.33 L 363.42 224.42 L 362.08 223.82 L 360.56 222.88 L 359.22 222.31 L 357.84 221.65 L 356.38 220.83" fill="none" stroke="#000000" stroke-linejoin="round" stroke-linecap="round" stroke-miterlimit="10" pointer-events="none"/><path d="M 164.5 244.33 L 164.57 244.33 L 164.7 251.89 L 164.55 259.44 L 164.67 266.99 L 164.47 274.54 L 164.5 282.1" fill="none" stroke="#000000" stroke-linejoin="round" stroke-linecap="round" stroke-miterlimit="10" stroke-dasharray="3 3" transform="translate(2,3)" opacity="0.25"/><path d="M 164.5 244.33 L 164.57 244.33 L 164.7 251.89 L 164.55 259.44 L 164.67 266.99 L 164.47 274.54 L 164.5 282.1" fill="none" stroke="#000000" stroke-linejoin="round" stroke-linecap="round" stroke-miterlimit="10" stroke-dasharray="3 3" pointer-events="none"/><path d="M 161 276.22 L 160.91 276.17 L 161.84 277.69 L 162.5 279.07 L 163.19 280.46 L 163.72 281.77 L 164.5 283.22 L 164.61 283.27 L 165.39 281.91 L 165.81 280.37 L 166.57 279 L 167.47 277.7 L 168 276.22" fill="none" stroke="#000000" stroke-linejoin="round" stroke-linecap="round" stroke-miterlimit="10" pointer-events="none"/><path d="M 124.5 204 L 124.5 204.28 L 134.5 204.04 L 144.5 203.89 L 154.5 203.89 L 164.5 204.48 L 174.5 203.65 L 184.5 203.57 L 194.5 203.34 L 204.5 204 L 204.67 204 L 204.59 212 L 204.7 220 L 204.43 228 L 204.33 236 L 204.5 244 L 204.5 243.94 L 194.5 243.78 L 184.5 243.37 L 174.5 243.42 L 164.5 243.64 L 154.5 243.83 L 144.5 244.6 L 134.5 243.27 L 124.5 244 L 124.48 244 L 124.75 236 L 124.42 228 L 124.75 220 L 124.54 212 L 124.5 204 L 124.5 204 Z Z" fill="#000000" stroke="#000000" stroke-linejoin="round" stroke-linecap="round" stroke-miterlimit="10" transform="translate(2,3)" opacity="0.25"/><path d="M 124.5 204 L 124.5 204.28 L 134.5 204.04 L 144.5 203.89 L 154.5 203.89 L 164.5 204.48 L 174.5 203.65 L 184.5 203.57 L 194.5 203.34 L 204.5 204 L 204.67 204 L 204.59 212 L 204.7 220 L 204.43 228 L 204.33 236 L 204.5 244 L 204.5 243.94 L 194.5 243.78 L 184.5 243.37 L 174.5 243.42 L 164.5 243.64 L 154.5 243.83 L 144.5 244.6 L 134.5 243.27 L 124.5 244 L 124.48 244 L 124.75 236 L 124.42 228 L 124.75 220 L 124.54 212 L 124.5 204 L 124.5 204 Z Z" fill="#ffffff" stroke="#000000" stroke-linejoin="round" stroke-linecap="round" stroke-miterlimit="10" pointer-events="none"/><path d="M 4.5 204 L 4.5 204.23 L 14.5 204.72 L 24.5 204.2 L 34.5 203.42 L 44.5 203.99 L 54.5 203.52 L 64.5 204.21 L 74.5 204.64 L 84.5 204 L 84.54 204 L 84.59 212 L 84.26 220 L 84.6 228 L 84.27 236 L 84.5 244 L 84.5 243.97 L 74.5 244.62 L 64.5 244.17 L 54.5 243.95 L 44.5 244.67 L 34.5 243.83 L 24.5 243.8 L 14.5 244.64 L 4.5 244 L 4.26 244 L 4.48 236 L 4.46 228 L 4.47 220 L 4.25 212 L 4.5 204 L 4.5 204 Z Z" fill="#000000" stroke="#000000" stroke-linejoin="round" stroke-linecap="round" stroke-miterlimit="10" transform="translate(2,3)" opacity="0.25"/><path d="M 4.5 204 L 4.5 204.23 L 14.5 204.72 L 24.5 204.2 L 34.5 203.42 L 44.5 203.99 L 54.5 203.52 L 64.5 204.21 L 74.5 204.64 L 84.5 204 L 84.54 204 L 84.59 212 L 84.26 220 L 84.6 228 L 84.27 236 L 84.5 244 L 84.5 243.97 L 74.5 244.62 L 64.5 244.17 L 54.5 243.95 L 44.5 244.67 L 34.5 243.83 L 24.5 243.8 L 14.5 244.64 L 4.5 244 L 4.26 244 L 4.48 236 L 4.46 228 L 4.47 220 L 4.25 212 L 4.5 204 L 4.5 204 Z Z" fill="#ffffff" stroke="#000000" stroke-linejoin="round" stroke-linecap="round" stroke-miterlimit="10" pointer-events="none"/><path d="M 124.5 284 L 124.5 283.94 L 134.5 284.4 L 144.5 284.74 L 154.5 283.29 L 164.5 283.45 L 174.5 284.62 L 184.5 283.76 L 194.5 283.89 L 204.5 284 L 204.46 284 L 204.56 292 L 204.61 300 L 204.39 308 L 204.4 316 L 204.5 324 L 204.5 323.35 L 194.5 323.63 L 184.5 323.25 L 174.5 324.27 L 164.5 324.64 L 154.5 323.91 L 144.5 324.47 L 134.5 323.84 L 124.5 324 L 124.73 324 L 124.43 316 L 124.26 308 L 124.54 300 L 124.63 292 L 124.5 284 L 124.5 284 Z Z" fill="#000000" stroke="#000000" stroke-linejoin="round" stroke-linecap="round" stroke-miterlimit="10" transform="translate(2,3)" opacity="0.25"/><path d="M 124.5 284 L 124.5 283.94 L 134.5 284.4 L 144.5 284.74 L 154.5 283.29 L 164.5 283.45 L 174.5 284.62 L 184.5 283.76 L 194.5 283.89 L 204.5 284 L 204.46 284 L 204.56 292 L 204.61 300 L 204.39 308 L 204.4 316 L 204.5 324 L 204.5 323.35 L 194.5 323.63 L 184.5 323.25 L 174.5 324.27 L 164.5 324.64 L 154.5 323.91 L 144.5 324.47 L 134.5 323.84 L 124.5 324 L 124.73 324 L 124.43 316 L 124.26 308 L 124.54 300 L 124.63 292 L 124.5 284 L 124.5 284 Z Z" fill="#ffffff" stroke="#000000" stroke-linejoin="round" stroke-linecap="round" stroke-miterlimit="10" pointer-events="none"/><path d="M 244.5 284 L 244.5 284.23 L 254.5 283.59 L 264.5 284.21 L 274.5 283.96 L 284.5 283.75 L 294.5 283.39 L 304.5 283.45 L 314.5 283.98 L 324.5 284 L 324.38 284 L 324.6 292 L 324.43 300 L 324.48 308 L 324.49 316 L 324.5 324 L 324.5 324.08 L 314.5 323.45 L 304.5 324.26 L 294.5 324.42 L 284.5 323.98 L 274.5 324.1 L 264.5 323.48 L 254.5 323.74 L 244.5 324 L 244.32 324 L 244.3 316 L 244.67 308 L 244.56 300 L 244.49 292 L 244.5 284 L 244.5 284 Z Z" fill="#000000" stroke="#000000" stroke-linejoin="round" stroke-linecap="round" stroke-miterlimit="10" transform="translate(2,3)" opacity="0.25"/><path d="M 244.5 284 L 244.5 284.23 L 254.5 283.59 L 264.5 284.21 L 274.5 283.96 L 284.5 283.75 L 294.5 283.39 L 304.5 283.45 L 314.5 283.98 L 324.5 284 L 324.38 284 L 324.6 292 L 324.43 300 L 324.48 308 L 324.49 316 L 324.5 324 L 324.5 324.08 L 314.5 323.45 L 304.5 324.26 L 294.5 324.42 L 284.5 323.98 L 274.5 324.1 L 264.5 323.48 L 254.5 323.74 L 244.5 324 L 244.32 324 L 244.3 316 L 244.67 308 L 244.56 300 L 244.49 292 L 244.5 284 L 244.5 284 Z Z" fill="#ffffff" stroke="#000000" stroke-linejoin="round" stroke-linecap="round" stroke-miterlimit="10" pointer-events="none"/><path d="M 364.5 304 L 364.5 303.89 L 356.95 303.87 L 349.39 303.95 L 341.84 304.18 L 334.29 304.01 L 326.74 304" fill="none" stroke="#000000" stroke-linejoin="round" stroke-linecap="round" stroke-miterlimit="10" stroke-dasharray="3 3" transform="translate(2,3)" opacity="0.25"/><path d="M 364.5 304 L 364.5 303.89 L 356.95 303.87 L 349.39 303.95 L 341.84 304.18 L 334.29 304.01 L 326.74 304" fill="none" stroke="#000000" stroke-linejoin="round" stroke-linecap="round" stroke-miterlimit="10" stroke-dasharray="3 3" pointer-events="none"/><path d="M 332.62 300.5 L 332.54 300.35 L 331.24 301.23 L 329.78 301.82 L 328.31 302.39 L 327.04 303.33 L 325.62 304 L 325.72 304.2 L 327.12 304.91 L 328.42 305.41 L 329.83 306.13 L 331.17 306.71 L 332.62 307.5" fill="none" stroke="#000000" stroke-linejoin="round" stroke-linecap="round" stroke-miterlimit="10" pointer-events="none"/><path d="M 364.5 284 L 364.5 283.79 L 374.5 284.55 L 384.5 283.9 L 394.5 284.04 L 404.5 283.44 L 414.5 284.22 L 424.5 284.17 L 434.5 284.52 L 444.5 284 L 444.31 284 L 444.34 292 L 444.58 300 L 444.49 308 L 444.58 316 L 444.5 324 L 444.5 324.16 L 434.5 324.51 L 424.5 324.32 L 414.5 324.36 L 404.5 323.53 L 394.5 324.31 L 384.5 323.46 L 374.5 324.08 L 364.5 324 L 364.64 324 L 364.49 316 L 364.5 308 L 364.34 300 L 364.34 292 L 364.5 284 L 364.5 284 Z Z" fill="#000000" stroke="#000000" stroke-linejoin="round" stroke-linecap="round" stroke-miterlimit="10" transform="translate(2,3)" opacity="0.25"/><path d="M 364.5 284 L 364.5 283.79 L 374.5 284.55 L 384.5 283.9 L 394.5 284.04 L 404.5 283.44 L 414.5 284.22 L 424.5 284.17 L 434.5 284.52 L 444.5 284 L 444.31 284 L 444.34 292 L 444.58 300 L 444.49 308 L 444.58 316 L 444.5 324 L 444.5 324.16 L 434.5 324.51 L 424.5 324.32 L 414.5 324.36 L 404.5 323.53 L 394.5 324.31 L 384.5 323.46 L 374.5 324.08 L 364.5 324 L 364.64 324 L 364.49 316 L 364.5 308 L 364.34 300 L 364.34 292 L 364.5 284 L 364.5 284 Z Z" fill="#ffffff" stroke="#000000" stroke-linejoin="round" stroke-linecap="round" stroke-miterlimit="10" pointer-events="none"/><path d="M 404.5 244.33 L 404.35 244.33 L 404.37 251.89 L 404.54 259.44 L 404.65 266.99 L 404.54 274.54 L 404.5 282.1" fill="none" stroke="#000000" stroke-linejoin="round" stroke-linecap="round" stroke-miterlimit="10" stroke-dasharray="3 3" transform="translate(2,3)" opacity="0.25"/><path d="M 404.5 244.33 L 404.35 244.33 L 404.37 251.89 L 404.54 259.44 L 404.65 266.99 L 404.54 274.54 L 404.5 282.1" fill="none" stroke="#000000" stroke-linejoin="round" stroke-linecap="round" stroke-miterlimit="10" stroke-dasharray="3 3" pointer-events="none"/><path d="M 401 276.22 L 401.2 276.32 L 401.77 277.65 L 402.23 278.93 L 402.97 280.35 L 403.74 281.78 L 404.5 283.22 L 404.46 283.19 L 405.14 281.78 L 405.68 280.3 L 406.58 279 L 407.52 277.72 L 408 276.22" fill="none" stroke="#000000" stroke-linejoin="round" stroke-linecap="round" stroke-miterlimit="10" pointer-events="none"/><path d="M 364.5 204 L 364.5 204.71 L 374.5 204.33 L 384.5 203.85 L 394.5 204.49 L 404.5 204.2 L 414.5 203.96 L 424.5 203.37 L 434.5 204.17 L 444.5 204 L 444.43 204 L 444.26 212 L 444.7 220 L 444.64 228 L 444.49 236 L 444.5 244 L 444.5 243.5 L 434.5 244.52 L 424.5 244.19 L 414.5 244.44 L 404.5 244.01 L 394.5 244.04 L 384.5 244.55 L 374.5 243.66 L 364.5 244 L 364.62 244 L 364.56 236 L 364.69 228 L 364.33 220 L 364.64 212 L 364.5 204 L 364.5 204 Z Z" fill="#000000" stroke="#000000" stroke-linejoin="round" stroke-linecap="round" stroke-miterlimit="10" transform="translate(2,3)" opacity="0.25"/><path d="M 364.5 204 L 364.5 204.71 L 374.5 204.33 L 384.5 203.85 L 394.5 204.49 L 404.5 204.2 L 414.5 203.96 L 424.5 203.37 L 434.5 204.17 L 444.5 204 L 444.43 204 L 444.26 212 L 444.7 220 L 444.64 228 L 444.49 236 L 444.5 244 L 444.5 243.5 L 434.5 244.52 L 424.5 244.19 L 414.5 244.44 L 404.5 244.01 L 394.5 244.04 L 384.5 244.55 L 374.5 243.66 L 364.5 244 L 364.62 244 L 364.56 236 L 364.69 228 L 364.33 220 L 364.64 212 L 364.5 204 L 364.5 204 Z Z" fill="#ffffff" stroke="#000000" stroke-linejoin="round" stroke-linecap="round" stroke-miterlimit="10" pointer-events="none"/><path d="M 725 84 L 724.84 84 L 724.84 91.55 L 724.89 99.11 L 725.08 106.66 L 724.97 114.21 L 725 121.76" fill="none" stroke="#000000" stroke-linejoin="round" stroke-linecap="round" stroke-miterlimit="10" stroke-dasharray="3 3" transform="translate(2,3)" opacity="0.25"/><path d="M 725 84 L 724.84 84 L 724.84 91.55 L 724.89 99.11 L 725.08 106.66 L 724.97 114.21 L 725 121.76" fill="none" stroke="#000000" stroke-linejoin="round" stroke-linecap="round" stroke-miterlimit="10" stroke-dasharray="3 3" pointer-events="none"/><path d="M 721.5 115.88 L 721.57 115.92 L 722.35 117.36 L 723.11 118.78 L 723.55 120.06 L 724.41 121.54 L 725 122.88 L 725.18 122.97 L 725.5 121.38 L 726.19 119.98 L 727.26 118.76 L 727.87 117.32 L 728.5 115.88" fill="none" stroke="#000000" stroke-linejoin="round" stroke-linecap="round" stroke-miterlimit="10" pointer-events="none"/><path d="M 685 64.33 L 685 65.01 L 675.04 63.6 L 665.08 64 L 655.13 65.02 L 645.17 64.34 L 635.21 64.41 L 625.25 64.49 L 615.29 63.67 L 605.33 64.33 L 604.81 64.33 L 604.83 73.96 L 605.18 83.59 L 605.84 93.22 L 604.86 102.84 L 604.8 112.47 L 605.33 122.1" fill="none" stroke="#000000" stroke-linejoin="round" stroke-linecap="round" stroke-miterlimit="10" stroke-dasharray="3 3" transform="translate(2,3)" opacity="0.25"/><path d="M 685 64.33 L 685 65.01 L 675.04 63.6 L 665.08 64 L 655.13 65.02 L 645.17 64.34 L 635.21 64.41 L 625.25 64.49 L 615.29 63.67 L 605.33 64.33 L 604.81 64.33 L 604.83 73.96 L 605.18 83.59 L 605.84 93.22 L 604.86 102.84 L 604.8 112.47 L 605.33 122.1" fill="none" stroke="#000000" stroke-linejoin="round" stroke-linecap="round" stroke-miterlimit="10" stroke-dasharray="3 3" pointer-events="none"/><path d="M 601.83 116.22 L 601.94 116.27 L 602.72 117.71 L 603.19 119 L 604.14 120.52 L 604.55 121.78 L 605.33 123.22 L 605.34 123.22 L 606.04 121.82 L 606.86 120.48 L 607.55 119.08 L 608.11 117.6 L 608.83 116.22" fill="none" stroke="#000000" stroke-linejoin="round" stroke-linecap="round" stroke-miterlimit="10" pointer-events="none"/><path d="M 765 64.33 L 765 64.8 L 775.04 64.28 L 785.08 64.36 L 795.13 64.1 L 805.17 64.79 L 815.21 64.09 L 825.25 63.75 L 835.29 64.15 L 845.33 64.33 L 845.64 64.33 L 846.06 73.96 L 845.68 83.59 L 845.36 93.22 L 845.47 102.84 L 845.92 112.47 L 845.33 122.1" fill="none" stroke="#000000" stroke-linejoin="round" stroke-linecap="round" stroke-miterlimit="10" stroke-dasharray="3 3" transform="translate(2,3)" opacity="0.25"/><path d="M 765 64.33 L 765 64.8 L 775.04 64.28 L 785.08 64.36 L 795.13 64.1 L 805.17 64.79 L 815.21 64.09 L 825.25 63.75 L 835.29 64.15 L 845.33 64.33 L 845.64 64.33 L 846.06 73.96 L 845.68 83.59 L 845.36 93.22 L 845.47 102.84 L 845.92 112.47 L 845.33 122.1" fill="none" stroke="#000000" stroke-linejoin="round" stroke-linecap="round" stroke-miterlimit="10" stroke-dasharray="3 3" pointer-events="none"/><path d="M 841.83 116.22 L 842.04 116.32 L 842.47 117.58 L 843.43 119.11 L 843.76 120.33 L 844.5 121.75 L 845.33 123.22 L 845.53 123.31 L 846.07 121.83 L 846.73 120.41 L 847.49 119.04 L 848.05 117.57 L 848.83 116.22" fill="none" stroke="#000000" stroke-linejoin="round" stroke-linecap="round" stroke-miterlimit="10" pointer-events="none"/><path d="M 685 44 L 685 43.34 L 695 43.7 L 705 44.28 L 715 44.41 L 725 44.04 L 735 43.75 L 745 44.22 L 755 44.18 L 765 44 L 765.09 44 L 764.93 52 L 765.02 60 L 765.04 68 L 765.07 76 L 765 84 L 765 83.83 L 755 83.39 L 745 84.24 L 735 84.15 L 725 83.25 L 715 83.4 L 705 84.02 L 695 84.64 L 685 84 L 684.91 84 L 684.84 76 L 684.78 68 L 685.07 60 L 685.18 52 L 685 44 L 685 44 Z Z" fill="#000000" stroke="#000000" stroke-linejoin="round" stroke-linecap="round" stroke-miterlimit="10" transform="translate(2,3)" opacity="0.25"/><path d="M 685 44 L 685 43.34 L 695 43.7 L 705 44.28 L 715 44.41 L 725 44.04 L 735 43.75 L 745 44.22 L 755 44.18 L 765 44 L 765.09 44 L 764.93 52 L 765.02 60 L 765.04 68 L 765.07 76 L 765 84 L 765 83.83 L 755 83.39 L 745 84.24 L 735 84.15 L 725 83.25 L 715 83.4 L 705 84.02 L 695 84.64 L 685 84 L 684.91 84 L 684.84 76 L 684.78 68 L 685.07 60 L 685.18 52 L 685 44 L 685 44 Z Z" fill="#ffffff" stroke="#000000" stroke-linejoin="round" stroke-linecap="round" stroke-miterlimit="10" pointer-events="none"/><path d="M 725 164 L 724.96 164 L 724.84 171.55 L 725.04 179.11 L 725 186.66 L 725.1 194.21 L 725 201.76" fill="none" stroke="#000000" stroke-linejoin="round" stroke-linecap="round" stroke-miterlimit="10" stroke-dasharray="3 3" transform="translate(2,3)" opacity="0.25"/><path d="M 725 164 L 724.96 164 L 724.84 171.55 L 725.04 179.11 L 725 186.66 L 725.1 194.21 L 725 201.76" fill="none" stroke="#000000" stroke-linejoin="round" stroke-linecap="round" stroke-miterlimit="10" stroke-dasharray="3 3" pointer-events="none"/><path d="M 721.5 195.88 L 721.44 195.85 L 722.31 197.34 L 723.05 198.76 L 723.43 200 L 724.21 201.44 L 725 202.88 L 725.03 202.89 L 725.74 201.5 L 726.55 200.16 L 726.88 198.57 L 727.91 197.34 L 728.5 195.88" fill="none" stroke="#000000" stroke-linejoin="round" stroke-linecap="round" stroke-miterlimit="10" pointer-events="none"/><path d="M 685 124 L 685 123.96 L 695 123.73 L 705 123.32 L 715 124.46 L 725 124.31 L 735 124.07 L 745 124.64 L 755 124.5 L 765 124 L 765.07 124 L 764.96 132 L 765.18 140 L 764.96 148 L 764.85 156 L 765 164 L 765 164.21 L 755 163.84 L 745 163.58 L 735 164.7 L 725 164.64 L 715 163.53 L 705 164.63 L 695 163.92 L 685 164 L 685.13 164 L 684.94 156 L 685.09 148 L 685.08 140 L 685.24 132 L 685 124 L 685 124 Z Z" fill="#000000" stroke="#000000" stroke-linejoin="round" stroke-linecap="round" stroke-miterlimit="10" transform="translate(2,3)" opacity="0.25"/><path d="M 685 124 L 685 123.96 L 695 123.73 L 705 123.32 L 715 124.46 L 725 124.31 L 735 124.07 L 745 124.64 L 755 124.5 L 765 124 L 765.07 124 L 764.96 132 L 765.18 140 L 764.96 148 L 764.85 156 L 765 164 L 765 164.21 L 755 163.84 L 745 163.58 L 735 164.7 L 725 164.64 L 715 163.53 L 705 164.63 L 695 163.92 L 685 164 L 685.13 164 L 684.94 156 L 685.09 148 L 685.08 140 L 685.24 132 L 685 124 L 685 124 Z Z" fill="#ffffff" stroke="#000000" stroke-linejoin="round" stroke-linecap="round" stroke-miterlimit="10" pointer-events="none"/><path d="M 605.33 164.33 L 605.1 164.33 L 605.39 171.89 L 605.49 179.44 L 605.2 186.99 L 605.39 194.54 L 605.33 202.1" fill="none" stroke="#000000" stroke-linejoin="round" stroke-linecap="round" stroke-miterlimit="10" stroke-dasharray="3 3" transform="translate(2,3)" opacity="0.25"/><path d="M 605.33 164.33 L 605.1 164.33 L 605.39 171.89 L 605.49 179.44 L 605.2 186.99 L 605.39 194.54 L 605.33 202.1" fill="none" stroke="#000000" stroke-linejoin="round" stroke-linecap="round" stroke-miterlimit="10" stroke-dasharray="3 3" pointer-events="none"/><path d="M 601.83 196.22 L 602.05 196.32 L 602.58 197.64 L 603.27 199.03 L 604.01 200.46 L 604.53 201.77 L 605.33 203.22 L 605.28 203.19 L 606 201.8 L 606.63 200.36 L 607.61 199.1 L 608.2 197.65 L 608.83 196.22" fill="none" stroke="#000000" stroke-linejoin="round" stroke-linecap="round" stroke-miterlimit="10" pointer-events="none"/><path d="M 645 144.33 L 645 144.36 L 649.07 144.39 L 653.13 144.4 L 657.2 144.43 L 661.27 144.49 L 665.33 144.33 L 665.33 144.21 L 668.89 144.14 L 672.44 144.37 L 675.99 144.57 L 679.54 144.17 L 683.1 144.33" fill="none" stroke="#000000" stroke-linejoin="round" stroke-linecap="round" stroke-miterlimit="10" stroke-dasharray="3 3" transform="translate(2,3)" opacity="0.25"/><path d="M 645 144.33 L 645 144.36 L 649.07 144.39 L 653.13 144.4 L 657.2 144.43 L 661.27 144.49 L 665.33 144.33 L 665.33 144.21 L 668.89 144.14 L 672.44 144.37 L 675.99 144.57 L 679.54 144.17 L 683.1 144.33" fill="none" stroke="#000000" stroke-linejoin="round" stroke-linecap="round" stroke-miterlimit="10" stroke-dasharray="3 3" pointer-events="none"/><path d="M 677.22 147.83 L 677.28 147.95 L 678.66 147.22 L 679.93 146.26 L 681.5 145.91 L 682.89 145.18 L 684.22 144.33 L 684.27 144.45 L 682.87 143.74 L 681.52 143.14 L 679.91 142.03 L 678.5 141.31 L 677.22 140.83" fill="none" stroke="#000000" stroke-linejoin="round" stroke-linecap="round" stroke-miterlimit="10" pointer-events="none"/><path d="M 565 124 L 565 123.42 L 575 123.5 L 585 124.69 L 595 124.14 L 605 123.34 L 615 124 L 625 123.37 L 635 124.43 L 645 124 L 644.99 124 L 644.96 132 L 644.82 140 L 644.82 148 L 644.85 156 L 645 164 L 645 164.19 L 635 163.65 L 625 163.29 L 615 164.21 L 605 164.01 L 595 164.13 L 585 164.35 L 575 163.83 L 565 164 L 565.23 164 L 565.23 156 L 564.85 148 L 564.89 140 L 564.76 132 L 565 124 L 565 124 Z Z" fill="#000000" stroke="#000000" stroke-linejoin="round" stroke-linecap="round" stroke-miterlimit="10" transform="translate(2,3)" opacity="0.25"/><path d="M 565 124 L 565 123.42 L 575 123.5 L 585 124.69 L 595 124.14 L 605 123.34 L 615 124 L 625 123.37 L 635 124.43 L 645 124 L 644.99 124 L 644.96 132 L 644.82 140 L 644.82 148 L 644.85 156 L 645 164 L 645 164.19 L 635 163.65 L 625 163.29 L 615 164.21 L 605 164.01 L 595 164.13 L 585 164.35 L 575 163.83 L 565 164 L 565.23 164 L 565.23 156 L 564.85 148 L 564.89 140 L 564.76 132 L 565 124 L 565 124 Z Z" fill="#ffffff" stroke="#000000" stroke-linejoin="round" stroke-linecap="round" stroke-miterlimit="10" pointer-events="none"/><path d="M 885 144 L 885 144.03 L 892.55 143.95 L 900.11 143.85 L 907.66 143.8 L 915.21 143.91 L 922.76 144" fill="none" stroke="#000000" stroke-linejoin="round" stroke-linecap="round" stroke-miterlimit="10" stroke-dasharray="3 3" transform="translate(2,3)" opacity="0.25"/><path d="M 885 144 L 885 144.03 L 892.55 143.95 L 900.11 143.85 L 907.66 143.8 L 915.21 143.91 L 922.76 144" fill="none" stroke="#000000" stroke-linejoin="round" stroke-linecap="round" stroke-miterlimit="10" stroke-dasharray="3 3" pointer-events="none"/><path d="M 916.88 147.5 L 916.99 147.72 L 918.19 146.61 L 919.57 145.88 L 921.11 145.45 L 922.56 144.85 L 923.88 144 L 923.91 144.05 L 922.4 143.13 L 921.09 142.62 L 919.67 141.88 L 918.26 141.16 L 916.88 140.5" fill="none" stroke="#000000" stroke-linejoin="round" stroke-linecap="round" stroke-miterlimit="10" pointer-events="none"/><path d="M 865.33 164.33 L 866.04 164.33 L 864.96 174.15 L 865.5 183.96 L 865.26 193.77 L 865.87 203.59 L 865.01 213.4 L 865.25 223.22 L 864.81 233.03 L 864.75 242.84 L 865.83 252.66 L 865.06 262.47 L 866.05 272.28 L 865.33 282.1" fill="none" stroke="#000000" stroke-linejoin="round" stroke-linecap="round" stroke-miterlimit="10" stroke-dasharray="3 3" transform="translate(2,3)" opacity="0.25"/><path d="M 865.33 164.33 L 866.04 164.33 L 864.96 174.15 L 865.5 183.96 L 865.26 193.77 L 865.87 203.59 L 865.01 213.4 L 865.25 223.22 L 864.81 233.03 L 864.75 242.84 L 865.83 252.66 L 865.06 262.47 L 866.05 272.28 L 865.33 282.1" fill="none" stroke="#000000" stroke-linejoin="round" stroke-linecap="round" stroke-miterlimit="10" stroke-dasharray="3 3" pointer-events="none"/><path d="M 861.83 276.22 L 861.8 276.2 L 862.74 277.72 L 863.4 279.1 L 863.82 280.36 L 864.79 281.89 L 865.33 283.22 L 865.38 283.24 L 866.13 281.86 L 866.87 280.48 L 867.51 279.05 L 868.07 277.58 L 868.83 276.22" fill="none" stroke="#000000" stroke-linejoin="round" stroke-linecap="round" stroke-miterlimit="10" pointer-events="none"/><path d="M 805 124 L 805 124.26 L 815 124.75 L 825 124.52 L 835 123.56 L 845 124.16 L 855 123.64 L 865 123.94 L 875 123.55 L 885 124 L 885.06 124 L 885.1 132 L 885.21 140 L 884.97 148 L 884.93 156 L 885 164 L 885 163.83 L 875 164.05 L 865 164.4 L 855 163.82 L 845 163.91 L 835 163.68 L 825 164.31 L 815 164.39 L 805 164 L 804.97 164 L 805.06 156 L 805.12 148 L 804.99 140 L 804.99 132 L 805 124 L 805 124 Z Z" fill="#000000" stroke="#000000" stroke-linejoin="round" stroke-linecap="round" stroke-miterlimit="10" transform="translate(2,3)" opacity="0.25"/><path d="M 805 124 L 805 124.26 L 815 124.75 L 825 124.52 L 835 123.56 L 845 124.16 L 855 123.64 L 865 123.94 L 875 123.55 L 885 124 L 885.06 124 L 885.1 132 L 885.21 140 L 884.97 148 L 884.93 156 L 885 164 L 885 163.83 L 875 164.05 L 865 164.4 L 855 163.82 L 845 163.91 L 835 163.68 L 825 164.31 L 815 164.39 L 805 164 L 804.97 164 L 805.06 156 L 805.12 148 L 804.99 140 L 804.99 132 L 805 124 L 805 124 Z Z" fill="#ffffff" stroke="#000000" stroke-linejoin="round" stroke-linecap="round" stroke-miterlimit="10" pointer-events="none"/><path d="M 965.33 164.33 L 965.51 164.33 L 965.27 171.89 L 965.4 179.44 L 965.42 186.99 L 965.1 194.54 L 965.33 202.1" fill="none" stroke="#000000" stroke-linejoin="round" stroke-linecap="round" stroke-miterlimit="10" stroke-dasharray="3 3" transform="translate(2,3)" opacity="0.25"/><path d="M 965.33 164.33 L 965.51 164.33 L 965.27 171.89 L 965.4 179.44 L 965.42 186.99 L 965.1 194.54 L 965.33 202.1" fill="none" stroke="#000000" stroke-linejoin="round" stroke-linecap="round" stroke-miterlimit="10" stroke-dasharray="3 3" pointer-events="none"/><path d="M 961.83 196.22 L 961.87 196.23 L 962.42 197.56 L 963.28 199.04 L 964.16 200.53 L 964.85 201.93 L 965.33 203.22 L 965.26 203.18 L 965.92 201.76 L 966.56 200.33 L 967.33 198.96 L 968.03 197.56 L 968.83 196.22" fill="none" stroke="#000000" stroke-linejoin="round" stroke-linecap="round" stroke-miterlimit="10" pointer-events="none"/><path d="M 965.33 124 L 965.68 124 L 964.92 114.03 L 964.95 104.07 L 965.51 94.1 L 965.57 84.13 L 964.89 74.17 L 965.03 64.2 L 965.4 54.23 L 964.61 44.27 L 965.46 34.3 L 965.33 24.33 L 965.33 25.06 L 955.33 23.87 L 945.33 24.71 L 935.33 24.67 L 925.33 25 L 915.33 23.59 L 905.33 24.06 L 895.33 24.93 L 885.33 23.76 L 875.33 25 L 865.33 24.62 L 855.33 23.6 L 845.33 24.53 L 835.33 24.07 L 825.33 24.99 L 815.33 23.94 L 805.33 24.68 L 795.33 25.06 L 785.33 24.67 L 775.33 23.77 L 765.33 24.07 L 755.33 25.01 L 745.33 24.33 L 745.17 24.33 L 745.42 27.89 L 745.13 31.44 L 745.47 34.99 L 745.38 38.54 L 745.33 42.1" fill="none" stroke="#000000" stroke-linejoin="round" stroke-linecap="round" stroke-miterlimit="10" stroke-dasharray="3 3" transform="translate(2,3)" opacity="0.25"/><path d="M 965.33 124 L 965.68 124 L 964.92 114.03 L 964.95 104.07 L 965.51 94.1 L 965.57 84.13 L 964.89 74.17 L 965.03 64.2 L 965.4 54.23 L 964.61 44.27 L 965.46 34.3 L 965.33 24.33 L 965.33 25.06 L 955.33 23.87 L 945.33 24.71 L 935.33 24.67 L 925.33 25 L 915.33 23.59 L 905.33 24.06 L 895.33 24.93 L 885.33 23.76 L 875.33 25 L 865.33 24.62 L 855.33 23.6 L 845.33 24.53 L 835.33 24.07 L 825.33 24.99 L 815.33 23.94 L 805.33 24.68 L 795.33 25.06 L 785.33 24.67 L 775.33 23.77 L 765.33 24.07 L 755.33 25.01 L 745.33 24.33 L 745.17 24.33 L 745.42 27.89 L 745.13 31.44 L 745.47 34.99 L 745.38 38.54 L 745.33 42.1" fill="none" stroke="#000000" stroke-linejoin="round" stroke-linecap="round" stroke-miterlimit="10" stroke-dasharray="3 3" pointer-events="none"/><path d="M 741.83 36.22 L 741.83 36.21 L 742.49 37.59 L 743.4 39.1 L 743.79 40.34 L 744.65 41.82 L 745.33 43.22 L 745.55 43.33 L 745.91 41.75 L 746.52 40.31 L 747.4 39 L 748.22 37.66 L 748.83 36.22" fill="none" stroke="#000000" stroke-linejoin="round" stroke-linecap="round" stroke-miterlimit="10" pointer-events="none"/><path d="M 925 124 L 925 124.05 L 935 123.85 L 945 123.6 L 955 124.69 L 965 124.43 L 975 124.71 L 985 123.95 L 995 124.29 L 1005 124 L 1004.81 124 L 1004.93 132 L 1005.05 140 L 1005.01 148 L 1005.11 156 L 1005 164 L 1005 164.68 L 995 164.4 L 985 163.77 L 975 164.47 L 965 164.75 L 955 163.63 L 945 164.24 L 935 164.17 L 925 164 L 925.04 164 L 925.09 156 L 924.93 148 L 924.76 140 L 925.11 132 L 925 124 L 925 124 Z Z" fill="#000000" stroke="#000000" stroke-linejoin="round" stroke-linecap="round" stroke-miterlimit="10" transform="translate(2,3)" opacity="0.25"/><path d="M 925 124 L 925 124.05 L 935 123.85 L 945 123.6 L 955 124.69 L 965 124.43 L 975 124.71 L 985 123.95 L 995 124.29 L 1005 124 L 1004.81 124 L 1004.93 132 L 1005.05 140 L 1005.01 148 L 1005.11 156 L 1005 164 L 1005 164.68 L 995 164.4 L 985 163.77 L 975 164.47 L 965 164.75 L 955 163.63 L 945 164.24 L 935 164.17 L 925 164 L 925.04 164 L 925.09 156 L 924.93 148 L 924.76 140 L 925.11 132 L 925 124 L 925 124 Z Z" fill="#ffffff" stroke="#000000" stroke-linejoin="round" stroke-linecap="round" stroke-miterlimit="10" pointer-events="none"/><path d="M 685 224.33 L 685 224.51 L 681.07 224.42 L 677.13 224.29 L 673.2 224.12 L 669.27 224.39 L 665.33 224.33 L 665.33 224.26 L 661.78 224.55 L 658.23 224.58 L 654.67 224.39 L 651.12 224.38 L 647.57 224.33" fill="none" stroke="#000000" stroke-linejoin="round" stroke-linecap="round" stroke-miterlimit="10" stroke-dasharray="3 3" transform="translate(2,3)" opacity="0.25"/><path d="M 685 224.33 L 685 224.51 L 681.07 224.42 L 677.13 224.29 L 673.2 224.12 L 669.27 224.39 L 665.33 224.33 L 665.33 224.26 L 661.78 224.55 L 658.23 224.58 L 654.67 224.39 L 651.12 224.38 L 647.57 224.33" fill="none" stroke="#000000" stroke-linejoin="round" stroke-linecap="round" stroke-miterlimit="10" stroke-dasharray="3 3" pointer-events="none"/><path d="M 653.45 220.83 L 653.46 220.85 L 652.14 221.71 L 650.65 222.23 L 649.26 222.95 L 647.93 223.79 L 646.45 224.33 L 646.42 224.26 L 647.81 224.94 L 649.28 225.8 L 650.69 226.51 L 652.05 227.14 L 653.45 227.83" fill="none" stroke="#000000" stroke-linejoin="round" stroke-linecap="round" stroke-miterlimit="10" pointer-events="none"/><path d="M 765.33 224.33 L 765.33 224.96 L 775.33 223.96 L 785.33 224.81 L 795.33 223.69 L 805.33 224.75 L 815.33 224.45 L 825.33 223.96 L 835.33 224.02 L 845.33 224.33 L 845.33 223.7 L 855.01 224.53 L 864.69 224.4 L 874.37 224.5 L 884.05 224.86 L 893.73 224.32 L 903.41 224.39 L 913.09 224.47 L 922.76 224.33" fill="none" stroke="#000000" stroke-linejoin="round" stroke-linecap="round" stroke-miterlimit="10" stroke-dasharray="3 3" transform="translate(2,3)" opacity="0.25"/><path d="M 765.33 224.33 L 765.33 224.96 L 775.33 223.96 L 785.33 224.81 L 795.33 223.69 L 805.33 224.75 L 815.33 224.45 L 825.33 223.96 L 835.33 224.02 L 845.33 224.33 L 845.33 223.7 L 855.01 224.53 L 864.69 224.4 L 874.37 224.5 L 884.05 224.86 L 893.73 224.32 L 903.41 224.39 L 913.09 224.47 L 922.76 224.33" fill="none" stroke="#000000" stroke-linejoin="round" stroke-linecap="round" stroke-miterlimit="10" stroke-dasharray="3 3" pointer-events="none"/><path d="M 916.88 227.83 L 916.93 227.94 L 918.27 227.11 L 919.72 226.5 L 921 225.57 L 922.59 225.25 L 923.88 224.33 L 923.8 224.17 L 922.38 223.42 L 921.16 223.09 L 919.75 222.36 L 918.28 221.53 L 916.88 220.83" fill="none" stroke="#000000" stroke-linejoin="round" stroke-linecap="round" stroke-miterlimit="10" pointer-events="none"/><path d="M 725.33 244.33 L 725.18 244.33 L 725.57 251.89 L 725.56 259.44 L 725.28 266.99 L 725.34 274.54 L 725.33 282.1" fill="none" stroke="#000000" stroke-linejoin="round" stroke-linecap="round" stroke-miterlimit="10" stroke-dasharray="3 3" transform="translate(2,3)" opacity="0.25"/><path d="M 725.33 244.33 L 725.18 244.33 L 725.57 251.89 L 725.56 259.44 L 725.28 266.99 L 725.34 274.54 L 725.33 282.1" fill="none" stroke="#000000" stroke-linejoin="round" stroke-linecap="round" stroke-miterlimit="10" stroke-dasharray="3 3" pointer-events="none"/><path d="M 721.83 276.22 L 722.02 276.31 L 722.56 277.63 L 723.22 279.01 L 723.99 280.44 L 724.56 281.78 L 725.33 283.22 L 725.27 283.19 L 725.99 281.79 L 726.78 280.44 L 727.64 279.12 L 727.97 277.53 L 728.83 276.22" fill="none" stroke="#000000" stroke-linejoin="round" stroke-linecap="round" stroke-miterlimit="10" pointer-events="none"/><path d="M 745.33 204.33 L 745.22 204.33 L 745.45 200.33 L 745.42 196.33 L 745.56 192.33 L 745.48 188.33 L 745.33 184.33 L 745.33 184.59 L 755.33 184.14 L 765.33 184.88 L 775.33 183.93 L 785.33 183.78 L 795.33 183.74 L 805.33 184.32 L 815.33 184.57 L 825.33 184.61 L 835.33 184.41 L 845.33 184.33 L 845.33 184.33 L 845.23 180.71 L 845.32 177.09 L 845.31 173.47 L 845.09 169.86 L 845.33 166.24" fill="none" stroke="#000000" stroke-linejoin="round" stroke-linecap="round" stroke-miterlimit="10" stroke-dasharray="3 3" transform="translate(2,3)" opacity="0.25"/><path d="M 745.33 204.33 L 745.22 204.33 L 745.45 200.33 L 745.42 196.33 L 745.56 192.33 L 745.48 188.33 L 745.33 184.33 L 745.33 184.59 L 755.33 184.14 L 765.33 184.88 L 775.33 183.93 L 785.33 183.78 L 795.33 183.74 L 805.33 184.32 L 815.33 184.57 L 825.33 184.61 L 835.33 184.41 L 845.33 184.33 L 845.33 184.33 L 845.23 180.71 L 845.32 177.09 L 845.31 173.47 L 845.09 169.86 L 845.33 166.24" fill="none" stroke="#000000" stroke-linejoin="round" stroke-linecap="round" stroke-miterlimit="10" stroke-dasharray="3 3" pointer-events="none"/><path d="M 848.83 172.12 L 848.97 172.18 L 847.98 170.64 L 847.46 169.33 L 846.57 167.84 L 846.04 166.52 L 845.33 165.12 L 845.23 165.07 L 844.72 166.56 L 844.04 167.97 L 843.22 169.31 L 842.31 170.61 L 841.83 172.12" fill="none" stroke="#000000" stroke-linejoin="round" stroke-linecap="round" stroke-miterlimit="10" pointer-events="none"/><path d="M 685 204 L 685 203.51 L 695 204.4 L 705 203.99 L 715 203.77 L 725 203.62 L 735 204.28 L 745 203.41 L 755 204.03 L 765 204 L 765.03 204 L 764.85 212 L 765.1 220 L 765.03 228 L 764.88 236 L 765 244 L 765 243.66 L 755 243.5 L 745 244.73 L 735 243.44 L 725 243.71 L 715 243.95 L 705 244.67 L 695 244.11 L 685 244 L 685.06 244 L 685.07 236 L 685.17 228 L 684.83 220 L 685.14 212 L 685 204 L 685 204 Z Z" fill="#000000" stroke="#000000" stroke-linejoin="round" stroke-linecap="round" stroke-miterlimit="10" transform="translate(2,3)" opacity="0.25"/><path d="M 685 204 L 685 203.51 L 695 204.4 L 705 203.99 L 715 203.77 L 725 203.62 L 735 204.28 L 745 203.41 L 755 204.03 L 765 204 L 765.03 204 L 764.85 212 L 765.1 220 L 765.03 228 L 764.88 236 L 765 244 L 765 243.66 L 755 243.5 L 745 244.73 L 735 243.44 L 725 243.71 L 715 243.95 L 705 244.67 L 695 244.11 L 685 244 L 685.06 244 L 685.07 236 L 685.17 228 L 684.83 220 L 685.14 212 L 685 204 L 685 204 Z Z" fill="#ffffff" stroke="#000000" stroke-linejoin="round" stroke-linecap="round" stroke-miterlimit="10" pointer-events="none"/><path d="M 605.33 244.33 L 605.3 244.33 L 605.83 254.33 L 604.63 264.33 L 604.86 274.33 L 604.78 284.33 L 604.71 294.33 L 605.34 304.33 L 605.5 314.33 L 606.02 324.33 L 605 334.33 L 605.33 344.33 L 605.33 344.33 L 615.33 344.83 L 625.33 344.19 L 635.33 344.72 L 645.33 344.12 L 655.33 344.06 L 665.33 344.63 L 675.33 344.16 L 685.33 344.08 L 695.33 344.39 L 705.33 344.61 L 715.33 344.93 L 725.33 345.06 L 735.33 344.29 L 745.33 344.71 L 755.33 343.59 L 765.33 344.8 L 775.33 344.91 L 785.33 344.54 L 795.33 343.62 L 805.33 344.64 L 815.33 344.86 L 825.33 344.73 L 835.33 344.98 L 845.33 345.05 L 855.33 344.99 L 865.33 344.19 L 875.33 344.41 L 885.33 344.64 L 895.33 344 L 905.33 344.3 L 915.33 343.86 L 925.33 344.19 L 935.33 344.36 L 945.33 344.12 L 955.33 344.7 L 965.33 344.33 L 965.37 344.33 L 965.31 340.78 L 965.55 337.23 L 965.35 333.67 L 965.39 330.12 L 965.33 326.57" fill="none" stroke="#000000" stroke-linejoin="round" stroke-linecap="round" stroke-miterlimit="10" stroke-dasharray="3 3" transform="translate(2,3)" opacity="0.25"/><path d="M 605.33 244.33 L 605.3 244.33 L 605.83 254.33 L 604.63 264.33 L 604.86 274.33 L 604.78 284.33 L 604.71 294.33 L 605.34 304.33 L 605.5 314.33 L 606.02 324.33 L 605 334.33 L 605.33 344.33 L 605.33 344.33 L 615.33 344.83 L 625.33 344.19 L 635.33 344.72 L 645.33 344.12 L 655.33 344.06 L 665.33 344.63 L 675.33 344.16 L 685.33 344.08 L 695.33 344.39 L 705.33 344.61 L 715.33 344.93 L 725.33 345.06 L 735.33 344.29 L 745.33 344.71 L 755.33 343.59 L 765.33 344.8 L 775.33 344.91 L 785.33 344.54 L 795.33 343.62 L 805.33 344.64 L 815.33 344.86 L 825.33 344.73 L 835.33 344.98 L 845.33 345.05 L 855.33 344.99 L 865.33 344.19 L 875.33 344.41 L 885.33 344.64 L 895.33 344 L 905.33 344.3 L 915.33 343.86 L 925.33 344.19 L 935.33 344.36 L 945.33 344.12 L 955.33 344.7 L 965.33 344.33 L 965.37 344.33 L 965.31 340.78 L 965.55 337.23 L 965.35 333.67 L 965.39 330.12 L 965.33 326.57" fill="none" stroke="#000000" stroke-linejoin="round" stroke-linecap="round" stroke-miterlimit="10" stroke-dasharray="3 3" pointer-events="none"/><path d="M 968.83 332.45 L 969.04 332.56 L 967.95 330.96 L 967.52 329.69 L 966.67 328.22 L 966.19 326.93 L 965.33 325.45 L 965.39 325.48 L 964.85 326.96 L 963.93 328.25 L 963.45 329.76 L 962.45 331.01 L 961.83 332.45" fill="none" stroke="#000000" stroke-linejoin="round" stroke-linecap="round" stroke-miterlimit="10" pointer-events="none"/><path d="M 585.33 244.33 L 585.13 244.33 L 585.38 248.33 L 585.18 252.33 L 585.32 256.33 L 585.29 260.33 L 585.33 264.33 L 585.33 263.91 L 575.33 263.79 L 565.33 264.91 L 555.33 263.63 L 545.33 263.72 L 535.33 264.33 L 535.4 264.33 L 535.8 254.33 L 535.09 244.33 L 535.54 234.33 L 534.88 224.33 L 534.6 214.33 L 535 204.33 L 535.04 194.33 L 535.57 184.33 L 534.7 174.33 L 534.83 164.33 L 535.29 154.33 L 535.11 144.33 L 535.67 134.33 L 535.32 124.33 L 535.08 114.33 L 535.18 104.33 L 534.66 94.33 L 535.77 84.33 L 534.77 74.33 L 534.7 64.33 L 535.72 54.33 L 535.88 44.33 L 535.78 34.33 L 535.33 24.33 L 535.33 24.54 L 545.33 24.42 L 555.33 24.95 L 565.33 24.67 L 575.33 24.58 L 585.33 23.58 L 595.33 24.86 L 605.33 24.18 L 615.33 24.76 L 625.33 24.28 L 635.33 23.64 L 645.33 24.68 L 655.33 24.03 L 665.33 25.01 L 675.33 24.92 L 685.33 24.56 L 695.33 24.47 L 705.33 23.94 L 715.33 25.02 L 725.33 24.33 L 725.09 24.33 L 725.13 27.89 L 725.37 31.44 L 725.27 34.99 L 725.22 38.54 L 725.33 42.1" fill="none" stroke="#000000" stroke-linejoin="round" stroke-linecap="round" stroke-miterlimit="10" stroke-dasharray="3 3" transform="translate(2,3)" opacity="0.25"/><path d="M 585.33 244.33 L 585.13 244.33 L 585.38 248.33 L 585.18 252.33 L 585.32 256.33 L 585.29 260.33 L 585.33 264.33 L 585.33 263.91 L 575.33 263.79 L 565.33 264.91 L 555.33 263.63 L 545.33 263.72 L 535.33 264.33 L 535.4 264.33 L 535.8 254.33 L 535.09 244.33 L 535.54 234.33 L 534.88 224.33 L 534.6 214.33 L 535 204.33 L 535.04 194.33 L 535.57 184.33 L 534.7 174.33 L 534.83 164.33 L 535.29 154.33 L 535.11 144.33 L 535.67 134.33 L 535.32 124.33 L 535.08 114.33 L 535.18 104.33 L 534.66 94.33 L 535.77 84.33 L 534.77 74.33 L 534.7 64.33 L 535.72 54.33 L 535.88 44.33 L 535.78 34.33 L 535.33 24.33 L 535.33 24.54 L 545.33 24.42 L 555.33 24.95 L 565.33 24.67 L 575.33 24.58 L 585.33 23.58 L 595.33 24.86 L 605.33 24.18 L 615.33 24.76 L 625.33 24.28 L 635.33 23.64 L 645.33 24.68 L 655.33 24.03 L 665.33 25.01 L 675.33 24.92 L 685.33 24.56 L 695.33 24.47 L 705.33 23.94 L 715.33 25.02 L 725.33 24.33 L 725.09 24.33 L 725.13 27.89 L 725.37 31.44 L 725.27 34.99 L 725.22 38.54 L 725.33 42.1" fill="none" stroke="#000000" stroke-linejoin="round" stroke-linecap="round" stroke-miterlimit="10" stroke-dasharray="3 3" pointer-events="none"/><path d="M 721.83 36.22 L 721.87 36.24 L 722.53 37.61 L 723.26 39.03 L 723.92 40.41 L 724.45 41.72 L 725.33 43.22 L 725.22 43.16 L 726.13 41.86 L 726.65 40.37 L 727.34 38.97 L 728.11 37.6 L 728.83 36.22" fill="none" stroke="#000000" stroke-linejoin="round" stroke-linecap="round" stroke-miterlimit="10" pointer-events="none"/><path d="M 565 204 L 565 203.54 L 575 204.56 L 585 204.02 L 595 203.45 L 605 204.09 L 615 203.39 L 625 204.06 L 635 204.24 L 645 204 L 644.84 204 L 645.18 212 L 644.96 220 L 645.22 228 L 644.81 236 L 645 244 L 645 244.37 L 635 243.31 L 625 244.24 L 615 244.38 L 605 244.12 L 595 244.71 L 585 244.56 L 575 243.4 L 565 244 L 565.12 244 L 565.23 236 L 564.94 228 L 564.99 220 L 564.9 212 L 565 204 L 565 204 Z Z" fill="#000000" stroke="#000000" stroke-linejoin="round" stroke-linecap="round" stroke-miterlimit="10" transform="translate(2,3)" opacity="0.25"/><path d="M 565 204 L 565 203.54 L 575 204.56 L 585 204.02 L 595 203.45 L 605 204.09 L 615 203.39 L 625 204.06 L 635 204.24 L 645 204 L 644.84 204 L 645.18 212 L 644.96 220 L 645.22 228 L 644.81 236 L 645 244 L 645 244.37 L 635 243.31 L 625 244.24 L 615 244.38 L 605 244.12 L 595 244.71 L 585 244.56 L 575 243.4 L 565 244 L 565.12 244 L 565.23 236 L 564.94 228 L 564.99 220 L 564.9 212 L 565 204 L 565 204 Z Z" fill="#ffffff" stroke="#000000" stroke-linejoin="round" stroke-linecap="round" stroke-miterlimit="10" pointer-events="none"/><path d="M 765.33 304.33 L 765.33 304.35 L 772.89 304.53 L 780.44 304.31 L 787.99 304.47 L 795.54 304.14 L 803.1 304.33" fill="none" stroke="#000000" stroke-linejoin="round" stroke-linecap="round" stroke-miterlimit="10" stroke-dasharray="3 3" transform="translate(2,3)" opacity="0.25"/><path d="M 765.33 304.33 L 765.33 304.35 L 772.89 304.53 L 780.44 304.31 L 787.99 304.47 L 795.54 304.14 L 803.1 304.33" fill="none" stroke="#000000" stroke-linejoin="round" stroke-linecap="round" stroke-miterlimit="10" stroke-dasharray="3 3" pointer-events="none"/><path d="M 797.22 307.83 L 797.18 307.76 L 798.66 307.22 L 800.08 306.57 L 801.37 305.63 L 802.79 304.98 L 804.22 304.33 L 804.14 304.18 L 802.83 303.67 L 801.31 302.72 L 800.02 302.25 L 798.7 301.7 L 797.22 300.83" fill="none" stroke="#000000" stroke-linejoin="round" stroke-linecap="round" stroke-miterlimit="10" pointer-events="none"/><path d="M 685 304.33 L 685 304.34 L 681.07 304.21 L 677.13 304.24 L 673.2 304.49 L 669.27 304.36 L 665.33 304.33 L 665.83 304.33 L 665.03 294.33 L 664.87 284.33 L 664.76 274.33 L 665.14 264.33 L 664.95 254.33 L 665.1 244.33 L 665.22 234.33 L 665.07 224.33 L 664.6 214.33 L 665.17 204.33 L 665.08 194.33 L 665.78 184.33 L 664.82 174.33 L 665.31 164.33 L 665.33 154.33 L 665.33 154.28 L 668.82 154.39 L 672.31 154.39 L 675.79 154.3 L 679.28 154.42 L 682.76 154.33" fill="none" stroke="#000000" stroke-linejoin="round" stroke-linecap="round" stroke-miterlimit="10" stroke-dasharray="3 3" transform="translate(2,3)" opacity="0.25"/><path d="M 685 304.33 L 685 304.34 L 681.07 304.21 L 677.13 304.24 L 673.2 304.49 L 669.27 304.36 L 665.33 304.33 L 665.83 304.33 L 665.03 294.33 L 664.87 284.33 L 664.76 274.33 L 665.14 264.33 L 664.95 254.33 L 665.1 244.33 L 665.22 234.33 L 665.07 224.33 L 664.6 214.33 L 665.17 204.33 L 665.08 194.33 L 665.78 184.33 L 664.82 174.33 L 665.31 164.33 L 665.33 154.33 L 665.33 154.28 L 668.82 154.39 L 672.31 154.39 L 675.79 154.3 L 679.28 154.42 L 682.76 154.33" fill="none" stroke="#000000" stroke-linejoin="round" stroke-linecap="round" stroke-miterlimit="10" stroke-dasharray="3 3" pointer-events="none"/><path d="M 676.88 157.83 L 676.87 157.82 L 678.36 157.29 L 679.73 156.52 L 681.04 155.64 L 682.48 155.04 L 683.88 154.33 L 683.95 154.46 L 682.49 153.65 L 681.14 153.04 L 679.74 152.35 L 678.36 151.69 L 676.88 150.83" fill="none" stroke="#000000" stroke-linejoin="round" stroke-linecap="round" stroke-miterlimit="10" pointer-events="none"/><path d="M 685 284 L 685 283.33 L 695 283.95 L 705 284.3 L 715 283.84 L 725 284.56 L 735 283.62 L 745 283.7 L 755 284.53 L 765 284 L 765.14 284 L 764.82 292 L 764.95 300 L 764.92 308 L 765.15 316 L 765 324 L 765 324.44 L 755 323.98 L 745 323.79 L 735 324.62 L 725 324.26 L 715 324.28 L 705 323.92 L 695 323.43 L 685 324 L 684.8 324 L 684.8 316 L 685.23 308 L 684.82 300 L 685.03 292 L 685 284 L 685 284 Z Z" fill="#000000" stroke="#000000" stroke-linejoin="round" stroke-linecap="round" stroke-miterlimit="10" transform="translate(2,3)" opacity="0.25"/><path d="M 685 284 L 685 283.33 L 695 283.95 L 705 284.3 L 715 283.84 L 725 284.56 L 735 283.62 L 745 283.7 L 755 284.53 L 765 284 L 765.14 284 L 764.82 292 L 764.95 300 L 764.92 308 L 765.15 316 L 765 324 L 765 324.44 L 755 323.98 L 745 323.79 L 735 324.62 L 725 324.26 L 715 324.28 L 705 323.92 L 695 323.43 L 685 324 L 684.8 324 L 684.8 316 L 685.23 308 L 684.82 300 L 685.03 292 L 685 284 L 685 284 Z Z" fill="#ffffff" stroke="#000000" stroke-linejoin="round" stroke-linecap="round" stroke-miterlimit="10" pointer-events="none"/><path d="M 805.33 294.33 L 805.33 294.46 L 801.33 294.15 L 797.33 294.54 L 793.33 294.3 L 789.33 294.11 L 785.33 294.33 L 785.57 294.33 L 785.23 284.33 L 784.71 274.33 L 786.07 264.33 L 784.71 254.33 L 784.67 244.33 L 785.64 234.33 L 784.68 224.33 L 785.89 214.33 L 785.15 204.33 L 785.9 194.33 L 785.72 184.33 L 785.42 174.33 L 785.46 164.33 L 785.77 154.33 L 784.91 144.33 L 784.66 134.33 L 784.98 124.33 L 784.86 114.33 L 785.69 104.33 L 784.8 94.33 L 785.14 84.33 L 785.33 74.33 L 785.33 74.42 L 781.78 74.51 L 778.23 74.47 L 774.67 74.34 L 771.12 74.43 L 767.57 74.33" fill="none" stroke="#000000" stroke-linejoin="round" stroke-linecap="round" stroke-miterlimit="10" stroke-dasharray="3 3" transform="translate(2,3)" opacity="0.25"/><path d="M 805.33 294.33 L 805.33 294.46 L 801.33 294.15 L 797.33 294.54 L 793.33 294.3 L 789.33 294.11 L 785.33 294.33 L 785.57 294.33 L 785.23 284.33 L 784.71 274.33 L 786.07 264.33 L 784.71 254.33 L 784.67 244.33 L 785.64 234.33 L 784.68 224.33 L 785.89 214.33 L 785.15 204.33 L 785.9 194.33 L 785.72 184.33 L 785.42 174.33 L 785.46 164.33 L 785.77 154.33 L 784.91 144.33 L 784.66 134.33 L 784.98 124.33 L 784.86 114.33 L 785.69 104.33 L 784.8 94.33 L 785.14 84.33 L 785.33 74.33 L 785.33 74.42 L 781.78 74.51 L 778.23 74.47 L 774.67 74.34 L 771.12 74.43 L 767.57 74.33" fill="none" stroke="#000000" stroke-linejoin="round" stroke-linecap="round" stroke-miterlimit="10" stroke-dasharray="3 3" pointer-events="none"/><path d="M 773.45 70.83 L 773.54 71.01 L 772.09 71.62 L 770.63 72.19 L 769.21 72.85 L 767.75 73.44 L 766.45 74.33 L 766.47 74.38 L 767.86 75.05 L 769.31 75.85 L 770.55 76.24 L 772.03 77.1 L 773.45 77.83" fill="none" stroke="#000000" stroke-linejoin="round" stroke-linecap="round" stroke-miterlimit="10" pointer-events="none"/><path d="M 805 284 L 805 283.42 L 815 284.15 L 825 284.53 L 835 283.4 L 845 283.39 L 855 284.33 L 865 284.72 L 875 284 L 885 284 L 884.99 284 L 885.19 292 L 884.99 300 L 884.99 308 L 885.22 316 L 885 324 L 885 323.84 L 875 324.14 L 865 323.28 L 855 324.52 L 845 323.74 L 835 324.73 L 825 324.13 L 815 323.65 L 805 324 L 804.92 324 L 805.17 316 L 804.98 308 L 805.1 300 L 804.91 292 L 805 284 L 805 284 Z Z" fill="#000000" stroke="#000000" stroke-linejoin="round" stroke-linecap="round" stroke-miterlimit="10" transform="translate(2,3)" opacity="0.25"/><path d="M 805 284 L 805 283.42 L 815 284.15 L 825 284.53 L 835 283.4 L 845 283.39 L 855 284.33 L 865 284.72 L 875 284 L 885 284 L 884.99 284 L 885.19 292 L 884.99 300 L 884.99 308 L 885.22 316 L 885 324 L 885 323.84 L 875 324.14 L 865 323.28 L 855 324.52 L 845 323.74 L 835 324.73 L 825 324.13 L 815 323.65 L 805 324 L 804.92 324 L 805.17 316 L 804.98 308 L 805.1 300 L 804.91 292 L 805 284 L 805 284 Z Z" fill="#ffffff" stroke="#000000" stroke-linejoin="round" stroke-linecap="round" stroke-miterlimit="10" pointer-events="none"/><path d="M 925 304 L 925 303.94 L 917.45 303.89 L 909.89 303.81 L 902.34 303.9 L 894.79 304.09 L 887.24 304" fill="none" stroke="#000000" stroke-linejoin="round" stroke-linecap="round" stroke-miterlimit="10" stroke-dasharray="3 3" transform="translate(2,3)" opacity="0.25"/><path d="M 925 304 L 925 303.94 L 917.45 303.89 L 909.89 303.81 L 902.34 303.9 L 894.79 304.09 L 887.24 304" fill="none" stroke="#000000" stroke-linejoin="round" stroke-linecap="round" stroke-miterlimit="10" stroke-dasharray="3 3" pointer-events="none"/><path d="M 893.12 300.5 L 893.05 300.37 L 891.73 301.23 L 890.41 302.09 L 889.02 302.81 L 887.63 303.52 L 886.12 304 L 886.16 304.09 L 887.63 304.92 L 888.92 305.41 L 890.22 305.9 L 891.75 306.86 L 893.12 307.5" fill="none" stroke="#000000" stroke-linejoin="round" stroke-linecap="round" stroke-miterlimit="10" pointer-events="none"/><path d="M 925 284 L 925 283.56 L 935 283.96 L 945 283.78 L 955 283.86 L 965 283.64 L 975 283.75 L 985 283.82 L 995 284.72 L 1005 284 L 1005.13 284 L 1005.03 292 L 1005.2 300 L 1004.87 308 L 1005.03 316 L 1005 324 L 1005 323.74 L 995 323.49 L 985 324.39 L 975 324.4 L 965 323.26 L 955 323.91 L 945 323.36 L 935 323.49 L 925 324 L 925.1 324 L 925.19 316 L 925.01 308 L 925.09 300 L 925.18 292 L 925 284 L 925 284 Z Z" fill="#000000" stroke="#000000" stroke-linejoin="round" stroke-linecap="round" stroke-miterlimit="10" transform="translate(2,3)" opacity="0.25"/><path d="M 925 284 L 925 283.56 L 935 283.96 L 945 283.78 L 955 283.86 L 965 283.64 L 975 283.75 L 985 283.82 L 995 284.72 L 1005 284 L 1005.13 284 L 1005.03 292 L 1005.2 300 L 1004.87 308 L 1005.03 316 L 1005 324 L 1005 323.74 L 995 323.49 L 985 324.39 L 975 324.4 L 965 323.26 L 955 323.91 L 945 323.36 L 935 323.49 L 925 324 L 925.1 324 L 925.19 316 L 925.01 308 L 925.09 300 L 925.18 292 L 925 284 L 925 284 Z Z" fill="#ffffff" stroke="#000000" stroke-linejoin="round" stroke-linecap="round" stroke-miterlimit="10" pointer-events="none"/><path d="M 965.33 244.33 L 965.1 244.33 L 965.45 251.89 L 965.23 259.44 L 965.41 266.99 L 965.31 274.54 L 965.33 282.1" fill="none" stroke="#000000" stroke-linejoin="round" stroke-linecap="round" stroke-miterlimit="10" stroke-dasharray="3 3" transform="translate(2,3)" opacity="0.25"/><path d="M 965.33 244.33 L 965.1 244.33 L 965.45 251.89 L 965.23 259.44 L 965.41 266.99 L 965.31 274.54 L 965.33 282.1" fill="none" stroke="#000000" stroke-linejoin="round" stroke-linecap="round" stroke-miterlimit="10" stroke-dasharray="3 3" pointer-events="none"/><path d="M 961.83 276.22 L 961.99 276.29 L 962.52 277.61 L 963.06 278.93 L 963.87 280.38 L 964.45 281.72 L 965.33 283.22 L 965.28 283.19 L 966.02 281.81 L 966.75 280.43 L 967.61 279.1 L 968.25 277.67 L 968.83 276.22" fill="none" stroke="#000000" stroke-linejoin="round" stroke-linecap="round" stroke-miterlimit="10" pointer-events="none"/><path d="M 1005 224.33 L 1005 224.45 L 1009.07 224.48 L 1013.13 224.12 L 1017.2 224.17 L 1021.27 224.31 L 1025.33 224.33 L 1025.14 224.33 L 1025.34 214.33 L 1025.67 204.33 L 1025.4 194.33 L 1025.55 184.33 L 1026.04 174.33 L 1025.56 164.33 L 1025.19 154.33 L 1025.33 144.33 L 1025.33 144.55 L 1021.78 144.51 L 1018.23 144.3 L 1014.67 144.41 L 1011.12 144.34 L 1007.57 144.33" fill="none" stroke="#000000" stroke-linejoin="round" stroke-linecap="round" stroke-miterlimit="10" stroke-dasharray="3 3" transform="translate(2,3)" opacity="0.25"/><path d="M 1005 224.33 L 1005 224.45 L 1009.07 224.48 L 1013.13 224.12 L 1017.2 224.17 L 1021.27 224.31 L 1025.33 224.33 L 1025.14 224.33 L 1025.34 214.33 L 1025.67 204.33 L 1025.4 194.33 L 1025.55 184.33 L 1026.04 174.33 L 1025.56 164.33 L 1025.19 154.33 L 1025.33 144.33 L 1025.33 144.55 L 1021.78 144.51 L 1018.23 144.3 L 1014.67 144.41 L 1011.12 144.34 L 1007.57 144.33" fill="none" stroke="#000000" stroke-linejoin="round" stroke-linecap="round" stroke-miterlimit="10" stroke-dasharray="3 3" pointer-events="none"/><path d="M 1013.45 140.83 L 1013.55 141.03 L 1012.02 141.47 L 1010.76 142.45 L 1009.27 142.98 L 1007.77 143.47 L 1006.45 144.33 L 1006.44 144.32 L 1007.84 145 L 1009.16 145.54 L 1010.63 146.39 L 1012.08 147.19 L 1013.45 147.83" fill="none" stroke="#000000" stroke-linejoin="round" stroke-linecap="round" stroke-miterlimit="10" pointer-events="none"/><path d="M 925 204 L 925 203.93 L 935 203.65 L 945 204.51 L 955 203.52 L 965 204.05 L 975 204.27 L 985 203.85 L 995 203.52 L 1005 204 L 1005.17 204 L 1005 212 L 1005.21 220 L 1005.17 228 L 1004.77 236 L 1005 244 L 1005 244.71 L 995 244.28 L 985 244.6 L 975 243.43 L 965 243.96 L 955 244.03 L 945 243.58 L 935 243.96 L 925 244 L 925.02 244 L 924.92 236 L 925.23 228 L 924.91 220 L 924.97 212 L 925 204 L 925 204 Z Z" fill="#000000" stroke="#000000" stroke-linejoin="round" stroke-linecap="round" stroke-miterlimit="10" transform="translate(2,3)" opacity="0.25"/><path d="M 925 204 L 925 203.93 L 935 203.65 L 945 204.51 L 955 203.52 L 965 204.05 L 975 204.27 L 985 203.85 L 995 203.52 L 1005 204 L 1005.17 204 L 1005 212 L 1005.21 220 L 1005.17 228 L 1004.77 236 L 1005 244 L 1005 244.71 L 995 244.28 L 985 244.6 L 975 243.43 L 965 243.96 L 955 244.03 L 945 243.58 L 935 243.96 L 925 244 L 925.02 244 L 924.92 236 L 925.23 228 L 924.91 220 L 924.97 212 L 925 204 L 925 204 Z Z" fill="#ffffff" stroke="#000000" stroke-linejoin="round" stroke-linecap="round" stroke-miterlimit="10" pointer-events="none"/><path d="M 485 364 L 485 4" fill="none" stroke="#000000" stroke-miterlimit="10" stroke-dasharray="3 3" transform="translate(2,3)" opacity="0.25"/><path d="M 485 364 L 485 4" fill="none" stroke="#000000" stroke-miterlimit="10" stroke-dasharray="3 3" pointer-events="none"/></g></svg>