<?xml version="1.0" encoding="UTF-8"?>
<!DOCTYPE svg PUBLIC "-//W3C//DTD SVG 1.1//EN" "http://www.w3.org/Graphics/SVG/1.1/DTD/svg11.dtd">
<svg xmlns="http://www.w3.org/2000/svg" xmlns:xlink="http://www.w3.org/1999/xlink" version="1.1" width="362px" height="302px" viewBox="-0.5 -0.5 362 302"><defs><style type="text/css">@import url(https://fonts.googleapis.com/css?family=Lustria);&#xa;@import url(https://fonts.googleapis.com/css?family=Poppins);&#xa;</style></defs><g><path d="M 0 80.35 L 0 33 L 27.92 33 L 40 45.02 L 40 56.92 C 39.28 56.73 38.61 56.57 37.73 56.46 L 37.73 47.28 L 26.41 47.28 L 26.41 35.26 L 2.26 35.26 L 2.26 78.09 L 19.72 78.09 C 20.01 78.99 20.35 79.67 20.67 80.35 Z M 40.64 59.46 C 42.54 60.14 43.92 61.13 45.08 62.25 C 44.43 62.62 43.72 62.98 42.9 63.3 C 42.08 61.35 41.36 60.31 40.64 59.46 Z M 43.5 64.72 C 44.5 64.31 45.43 63.85 46.3 63.31 C 48.32 65.61 48.77 67.15 49.31 68.61 C 47.88 69.58 46.38 70.42 44.72 70.92 C 44.54 69.04 44.27 67.09 43.5 64.72 Z M 44.74 72.39 C 46.65 71.83 48.26 71.08 49.59 70.15 C 50 72.73 49.82 74.29 49.54 75.67 C 47.38 77.27 45.69 77.96 44.03 78.58 C 44.26 77.26 44.49 77.87 44.74 72.39 Z M 43.55 80.41 C 45.08 79.94 46.62 79.41 48.86 77.99 C 46.88 82.69 43.46 85.12 40.46 86.15 C 41.56 84.93 42.62 83.44 43.55 80.41 Z M 41.77 80.87 C 40.3 84.75 38.18 86.52 36.36 86.93 L 36.36 81.59 C 38.24 81.55 40.05 81.32 41.77 80.87 Z M 36.34 80.15 L 36.34 73.94 C 38.18 73.99 40.59 73.57 43.2 72.99 C 43.2 75.63 42.82 77.48 42.39 79.26 C 39.95 79.92 38.08 80.09 36.34 80.15 Z M 36.43 72.39 L 36.43 66.09 C 38.35 65.99 40.24 65.73 42.07 65.19 C 42.69 67.01 43.03 69.15 43.28 71.41 C 41.18 72.01 38.86 72.3 36.43 72.39 Z M 36.27 58.58 L 36.87 58.58 C 38.23 59.03 39.19 60.1 39.75 60.8 C 40.57 61.84 41.03 62.8 41.47 63.75 C 40.07 64.14 38.46 64.5 36.27 64.58 Z M 34.85 64.65 C 33.12 64.58 31.41 64.3 29.73 63.82 C 30.3 62.45 31.02 61.2 32.02 60.14 C 32.62 59.53 33.29 58.98 34.24 58.66 L 34.85 58.66 Z M 34.92 72.39 C 32.33 72.3 30.07 71.95 28.06 71.41 C 28.19 69.6 28.25 67.88 29.27 65.19 C 31.52 65.89 34.13 66.1 34.93 66.08 Z M 34.85 73.87 L 34.85 80.09 C 32.86 80.15 30.88 79.81 28.89 79.29 C 28.27 77.09 27.99 74.97 28 72.92 C 30.25 73.54 32.53 73.82 34.85 73.87 Z M 34.85 81.68 L 34.85 87 C 33.78 86.77 32.88 86.19 32.11 85.41 C 30.86 84.14 30.03 82.61 29.41 81.08 C 31.21 81.44 33.02 81.71 34.85 81.68 Z M 27.66 80.53 C 28.68 83.62 29.76 84.94 30.85 86.19 C 26.11 84.4 23.79 81.17 22.51 78.4 C 24.19 79.27 25.88 80.15 27.66 80.53 Z M 21.72 76.12 C 21.25 74.42 21.12 72.47 21.52 70.15 C 22.89 70.99 24.44 71.78 26.47 72.46 C 26.46 74.75 26.7 76.84 27.16 78.74 C 25.67 78.32 23.96 77.59 21.72 76.12 Z M 21.97 68.62 C 22.59 66.54 23.64 64.8 24.99 63.31 C 25.97 63.97 26.86 64.31 27.76 64.72 C 27.01 66.77 26.69 69.05 26.56 70.95 C 25.12 70.43 23.66 69.9 21.97 68.62 Z M 26.03 62.18 C 27.57 60.89 29.08 60.02 30.56 59.47 C 29.8 60.36 29.03 61.49 28.22 63.23 C 27.4 62.88 26.66 62.53 26.03 62.18 Z" fill="#505050" stroke="none" pointer-events="none"/><path d="M 155 80.35 L 155 33 L 182.92 33 L 195 45.02 L 195 56.92 C 194.28 56.73 193.61 56.57 192.73 56.46 L 192.73 47.28 L 181.41 47.28 L 181.41 35.26 L 157.26 35.26 L 157.26 78.09 L 174.72 78.09 C 175.01 78.99 175.35 79.67 175.67 80.35 Z M 195.64 59.46 C 197.54 60.14 198.92 61.13 200.08 62.25 C 199.43 62.62 198.72 62.98 197.9 63.3 C 197.08 61.35 196.36 60.31 195.64 59.46 Z M 198.5 64.72 C 199.5 64.31 200.43 63.85 201.3 63.31 C 203.32 65.61 203.77 67.15 204.31 68.61 C 202.88 69.58 201.38 70.42 199.72 70.92 C 199.54 69.04 199.27 67.09 198.5 64.72 Z M 199.74 72.39 C 201.65 71.83 203.26 71.08 204.59 70.15 C 205 72.73 204.82 74.29 204.54 75.67 C 202.38 77.27 200.69 77.96 199.03 78.58 C 199.26 77.26 199.49 77.87 199.74 72.39 Z M 198.55 80.41 C 200.08 79.94 201.62 79.41 203.86 77.99 C 201.88 82.69 198.46 85.12 195.46 86.15 C 196.56 84.93 197.62 83.44 198.55 80.41 Z M 196.77 80.87 C 195.3 84.75 193.18 86.52 191.36 86.93 L 191.36 81.59 C 193.24 81.55 195.05 81.32 196.77 80.87 Z M 191.34 80.15 L 191.34 73.94 C 193.18 73.99 195.59 73.57 198.2 72.99 C 198.2 75.63 197.82 77.48 197.39 79.26 C 194.95 79.92 193.08 80.09 191.34 80.15 Z M 191.43 72.39 L 191.43 66.09 C 193.35 65.99 195.24 65.73 197.07 65.19 C 197.69 67.01 198.03 69.15 198.28 71.41 C 196.18 72.01 193.86 72.3 191.43 72.39 Z M 191.27 58.58 L 191.87 58.58 C 193.23 59.03 194.19 60.1 194.75 60.8 C 195.57 61.84 196.03 62.8 196.47 63.75 C 195.07 64.14 193.46 64.5 191.27 64.58 Z M 189.85 64.65 C 188.12 64.58 186.41 64.3 184.73 63.82 C 185.3 62.45 186.02 61.2 187.02 60.14 C 187.62 59.53 188.29 58.98 189.24 58.66 L 189.85 58.66 Z M 189.92 72.39 C 187.33 72.3 185.07 71.95 183.06 71.41 C 183.19 69.6 183.25 67.88 184.27 65.19 C 186.52 65.89 189.13 66.1 189.93 66.08 Z M 189.85 73.87 L 189.85 80.09 C 187.86 80.15 185.88 79.81 183.89 79.29 C 183.27 77.09 182.99 74.97 183 72.92 C 185.25 73.54 187.53 73.82 189.85 73.87 Z M 189.85 81.68 L 189.85 87 C 188.78 86.77 187.88 86.19 187.11 85.41 C 185.86 84.14 185.03 82.61 184.41 81.08 C 186.21 81.44 188.02 81.71 189.85 81.68 Z M 182.66 80.53 C 183.68 83.62 184.76 84.94 185.85 86.19 C 181.11 84.4 178.79 81.17 177.51 78.4 C 179.19 79.27 180.88 80.15 182.66 80.53 Z M 176.72 76.12 C 176.25 74.42 176.12 72.47 176.52 70.15 C 177.89 70.99 179.44 71.78 181.47 72.46 C 181.46 74.75 181.7 76.84 182.16 78.74 C 180.67 78.32 178.96 77.59 176.72 76.12 Z M 176.97 68.62 C 177.59 66.54 178.64 64.8 179.99 63.31 C 180.97 63.97 181.86 64.31 182.76 64.72 C 182.01 66.77 181.69 69.05 181.56 70.95 C 180.12 70.43 178.66 69.9 176.97 68.62 Z M 181.03 62.18 C 182.57 60.89 184.08 60.02 185.56 59.47 C 184.8 60.36 184.03 61.49 183.22 63.23 C 182.4 62.88 181.66 62.53 181.03 62.18 Z" fill="#505050" stroke="none" pointer-events="none"/><path d="M 50 60 L 146.88 60" fill="none" stroke="rgb(0, 0, 0)" stroke-miterlimit="10" pointer-events="none"/><path d="M 153.88 60 L 146.88 63.5 L 146.88 56.5 Z" fill="rgb(0, 0, 0)" stroke="rgb(0, 0, 0)" stroke-miterlimit="10" pointer-events="none"/><path d="M 0 204.35 L 0 157 L 27.92 157 L 40 169.02 L 40 180.92 C 39.28 180.73 38.61 180.57 37.73 180.46 L 37.73 171.28 L 26.41 171.28 L 26.41 159.26 L 2.26 159.26 L 2.26 202.09 L 19.72 202.09 C 20.01 202.99 20.35 203.67 20.67 204.35 Z M 40.64 183.46 C 42.54 184.14 43.92 185.13 45.08 186.25 C 44.43 186.62 43.72 186.98 42.9 187.3 C 42.08 185.35 41.36 184.31 40.64 183.46 Z M 43.5 188.72 C 44.5 188.31 45.43 187.85 46.3 187.31 C 48.32 189.61 48.77 191.15 49.31 192.61 C 47.88 193.58 46.38 194.42 44.72 194.92 C 44.54 193.04 44.27 191.09 43.5 188.72 Z M 44.74 196.39 C 46.65 195.83 48.26 195.08 49.59 194.15 C 50 196.73 49.82 198.29 49.54 199.67 C 47.38 201.27 45.69 201.96 44.03 202.58 C 44.26 201.26 44.49 201.87 44.74 196.39 Z M 43.55 204.41 C 45.08 203.94 46.62 203.41 48.86 201.99 C 46.88 206.69 43.46 209.12 40.46 210.15 C 41.56 208.93 42.62 207.44 43.55 204.41 Z M 41.77 204.87 C 40.3 208.75 38.18 210.52 36.36 210.93 L 36.36 205.59 C 38.24 205.55 40.05 205.32 41.77 204.87 Z M 36.34 204.15 L 36.34 197.94 C 38.18 197.99 40.59 197.57 43.2 196.99 C 43.2 199.63 42.82 201.48 42.39 203.26 C 39.95 203.92 38.08 204.09 36.34 204.15 Z M 36.43 196.39 L 36.43 190.09 C 38.35 189.99 40.24 189.73 42.07 189.19 C 42.69 191.01 43.03 193.15 43.28 195.41 C 41.18 196.01 38.86 196.3 36.43 196.39 Z M 36.27 182.58 L 36.87 182.58 C 38.23 183.03 39.19 184.1 39.75 184.8 C 40.57 185.84 41.03 186.8 41.47 187.75 C 40.07 188.14 38.46 188.5 36.27 188.58 Z M 34.85 188.65 C 33.12 188.58 31.41 188.3 29.73 187.82 C 30.3 186.45 31.02 185.2 32.02 184.14 C 32.62 183.53 33.29 182.98 34.24 182.66 L 34.85 182.66 Z M 34.92 196.39 C 32.33 196.3 30.07 195.95 28.06 195.41 C 28.19 193.6 28.25 191.88 29.27 189.19 C 31.52 189.89 34.13 190.1 34.93 190.08 Z M 34.85 197.87 L 34.85 204.09 C 32.86 204.15 30.88 203.81 28.89 203.29 C 28.27 201.09 27.99 198.97 28 196.92 C 30.25 197.54 32.53 197.82 34.85 197.87 Z M 34.85 205.68 L 34.85 211 C 33.78 210.77 32.88 210.19 32.11 209.41 C 30.86 208.14 30.03 206.61 29.41 205.08 C 31.21 205.44 33.02 205.71 34.85 205.68 Z M 27.66 204.53 C 28.68 207.62 29.76 208.94 30.85 210.19 C 26.11 208.4 23.79 205.17 22.51 202.4 C 24.19 203.27 25.88 204.15 27.66 204.53 Z M 21.72 200.12 C 21.25 198.42 21.12 196.47 21.52 194.15 C 22.89 194.99 24.44 195.78 26.47 196.46 C 26.46 198.75 26.7 200.84 27.16 202.74 C 25.67 202.32 23.96 201.59 21.72 200.12 Z M 21.97 192.62 C 22.59 190.54 23.64 188.8 24.99 187.31 C 25.97 187.97 26.86 188.31 27.76 188.72 C 27.01 190.77 26.69 193.05 26.56 194.95 C 25.12 194.43 23.66 193.9 21.97 192.62 Z M 26.03 186.18 C 27.57 184.89 29.08 184.02 30.56 183.47 C 29.8 184.36 29.03 185.49 28.22 187.23 C 27.4 186.88 26.66 186.53 26.03 186.18 Z" fill="#505050" stroke="none" pointer-events="none"/><path d="M 25 87 L 25 148.88" fill="none" stroke="rgb(0, 0, 0)" stroke-miterlimit="10" pointer-events="none"/><path d="M 25 155.88 L 21.5 148.88 L 28.5 148.88 Z" fill="rgb(0, 0, 0)" stroke="rgb(0, 0, 0)" stroke-miterlimit="10" pointer-events="none"/><path d="M 180 157 L 180 95.12" fill="none" stroke="rgb(0, 0, 0)" stroke-miterlimit="10" pointer-events="none"/><path d="M 180 88.12 L 183.5 95.12 L 176.5 95.12 Z" fill="rgb(0, 0, 0)" stroke="rgb(0, 0, 0)" stroke-miterlimit="10" pointer-events="none"/><path d="M 155 204.35 L 155 157 L 182.92 157 L 195 169.02 L 195 180.92 C 194.28 180.73 193.61 180.57 192.73 180.46 L 192.73 171.28 L 181.41 171.28 L 181.41 159.26 L 157.26 159.26 L 157.26 202.09 L 174.72 202.09 C 175.01 202.99 175.35 203.67 175.67 204.35 Z M 195.64 183.46 C 197.54 184.14 198.92 185.13 200.08 186.25 C 199.43 186.62 198.72 186.98 197.9 187.3 C 197.08 185.35 196.36 184.31 195.64 183.46 Z M 198.5 188.72 C 199.5 188.31 200.43 187.85 201.3 187.31 C 203.32 189.61 203.77 191.15 204.31 192.61 C 202.88 193.58 201.38 194.42 199.72 194.92 C 199.54 193.04 199.27 191.09 198.5 188.72 Z M 199.74 196.39 C 201.65 195.83 203.26 195.08 204.59 194.15 C 205 196.73 204.82 198.29 204.54 199.67 C 202.38 201.27 200.69 201.96 199.03 202.58 C 199.26 201.26 199.49 201.87 199.74 196.39 Z M 198.55 204.41 C 200.08 203.94 201.62 203.41 203.86 201.99 C 201.88 206.69 198.46 209.12 195.46 210.15 C 196.56 208.93 197.62 207.44 198.55 204.41 Z M 196.77 204.87 C 195.3 208.75 193.18 210.52 191.36 210.93 L 191.36 205.59 C 193.24 205.55 195.05 205.32 196.77 204.87 Z M 191.34 204.15 L 191.34 197.94 C 193.18 197.99 195.59 197.57 198.2 196.99 C 198.2 199.63 197.82 201.48 197.39 203.26 C 194.95 203.92 193.08 204.09 191.34 204.15 Z M 191.43 196.39 L 191.43 190.09 C 193.35 189.99 195.24 189.73 197.07 189.19 C 197.69 191.01 198.03 193.15 198.28 195.41 C 196.18 196.01 193.86 196.3 191.43 196.39 Z M 191.27 182.58 L 191.87 182.58 C 193.23 183.03 194.19 184.1 194.75 184.8 C 195.57 185.84 196.03 186.8 196.47 187.75 C 195.07 188.14 193.46 188.5 191.27 188.58 Z M 189.85 188.65 C 188.12 188.58 186.41 188.3 184.73 187.82 C 185.3 186.45 186.02 185.2 187.02 184.14 C 187.62 183.53 188.29 182.98 189.24 182.66 L 189.85 182.66 Z M 189.92 196.39 C 187.33 196.3 185.07 195.95 183.06 195.41 C 183.19 193.6 183.25 191.88 184.27 189.19 C 186.52 189.89 189.13 190.1 189.93 190.08 Z M 189.85 197.87 L 189.85 204.09 C 187.86 204.15 185.88 203.81 183.89 203.29 C 183.27 201.09 182.99 198.97 183 196.92 C 185.25 197.54 187.53 197.82 189.85 197.87 Z M 189.85 205.68 L 189.85 211 C 188.78 210.77 187.88 210.19 187.11 209.41 C 185.86 208.14 185.03 206.61 184.41 205.08 C 186.21 205.44 188.02 205.71 189.85 205.68 Z M 182.66 204.53 C 183.68 207.62 184.76 208.94 185.85 210.19 C 181.11 208.4 178.79 205.17 177.51 202.4 C 179.19 203.27 180.88 204.15 182.66 204.53 Z M 176.72 200.12 C 176.25 198.42 176.12 196.47 176.52 194.15 C 177.89 194.99 179.44 195.78 181.47 196.46 C 181.46 198.75 181.7 200.84 182.16 202.74 C 180.67 202.32 178.96 201.59 176.72 200.12 Z M 176.97 192.62 C 177.59 190.54 178.64 188.8 179.99 187.31 C 180.97 187.97 181.86 188.31 182.76 188.72 C 182.01 190.77 181.69 193.05 181.56 194.95 C 180.12 194.43 178.66 193.9 176.97 192.62 Z M 181.03 186.18 C 182.57 184.89 184.08 184.02 185.56 183.47 C 184.8 184.36 184.03 185.49 183.22 187.23 C 182.4 186.88 181.66 186.53 181.03 186.18 Z" fill="#505050" stroke="none" pointer-events="none"/><path d="M 260 116.38 L 211.64 82.3" fill="none" stroke="rgb(0, 0, 0)" stroke-miterlimit="10" pointer-events="none"/><path d="M 205.91 78.26 L 213.65 79.43 L 209.62 85.16 Z" fill="rgb(0, 0, 0)" stroke="rgb(0, 0, 0)" stroke-miterlimit="10" pointer-events="none"/><path d="M 260 145.9 L 212.33 168.61" fill="none" stroke="rgb(0, 0, 0)" stroke-miterlimit="10" pointer-events="none"/><path d="M 206.01 171.61 L 210.82 165.45 L 213.83 171.77 Z" fill="rgb(0, 0, 0)" stroke="rgb(0, 0, 0)" stroke-miterlimit="10" pointer-events="none"/><path d="M 260 154.35 L 260 107 L 287.92 107 L 300 119.02 L 300 130.92 C 299.28 130.73 298.61 130.57 297.73 130.46 L 297.73 121.28 L 286.41 121.28 L 286.41 109.26 L 262.26 109.26 L 262.26 152.09 L 279.72 152.09 C 280.01 152.99 280.35 153.67 280.67 154.35 Z M 300.64 133.46 C 302.54 134.14 303.92 135.13 305.08 136.25 C 304.43 136.62 303.72 136.98 302.9 137.3 C 302.08 135.35 301.36 134.31 300.64 133.46 Z M 303.5 138.72 C 304.5 138.31 305.43 137.85 306.3 137.31 C 308.32 139.61 308.77 141.15 309.31 142.61 C 307.88 143.58 306.38 144.42 304.72 144.92 C 304.54 143.04 304.27 141.09 303.5 138.72 Z M 304.74 146.39 C 306.65 145.83 308.26 145.08 309.59 144.15 C 310 146.73 309.82 148.29 309.54 149.67 C 307.38 151.27 305.69 151.96 304.03 152.58 C 304.26 151.26 304.49 151.87 304.74 146.39 Z M 303.55 154.41 C 305.08 153.94 306.62 153.41 308.86 151.99 C 306.88 156.69 303.46 159.12 300.46 160.15 C 301.56 158.93 302.62 157.44 303.55 154.41 Z M 301.77 154.87 C 300.3 158.75 298.18 160.52 296.36 160.93 L 296.36 155.59 C 298.24 155.55 300.05 155.32 301.77 154.87 Z M 296.34 154.15 L 296.34 147.94 C 298.18 147.99 300.59 147.57 303.2 146.99 C 303.2 149.63 302.82 151.48 302.39 153.26 C 299.95 153.92 298.08 154.09 296.34 154.15 Z M 296.43 146.39 L 296.43 140.09 C 298.35 139.99 300.24 139.73 302.07 139.19 C 302.69 141.01 303.03 143.15 303.28 145.41 C 301.18 146.01 298.86 146.3 296.43 146.39 Z M 296.27 132.58 L 296.87 132.58 C 298.23 133.03 299.19 134.1 299.75 134.8 C 300.57 135.84 301.03 136.8 301.47 137.75 C 300.07 138.14 298.46 138.5 296.27 138.58 Z M 294.85 138.65 C 293.12 138.58 291.41 138.3 289.73 137.82 C 290.3 136.45 291.02 135.2 292.02 134.14 C 292.62 133.53 293.29 132.98 294.24 132.66 L 294.85 132.66 Z M 294.92 146.39 C 292.33 146.3 290.07 145.95 288.06 145.41 C 288.19 143.6 288.25 141.88 289.27 139.19 C 291.52 139.89 294.13 140.1 294.93 140.08 Z M 294.85 147.87 L 294.85 154.09 C 292.86 154.15 290.88 153.81 288.89 153.29 C 288.27 151.09 287.99 148.97 288 146.92 C 290.25 147.54 292.53 147.82 294.85 147.87 Z M 294.85 155.68 L 294.85 161 C 293.78 160.77 292.88 160.19 292.11 159.41 C 290.86 158.14 290.03 156.61 289.41 155.08 C 291.21 155.44 293.02 155.71 294.85 155.68 Z M 287.66 154.53 C 288.68 157.62 289.76 158.94 290.85 160.19 C 286.11 158.4 283.79 155.17 282.51 152.4 C 284.19 153.27 285.88 154.15 287.66 154.53 Z M 281.72 150.12 C 281.25 148.42 281.12 146.47 281.52 144.15 C 282.89 144.99 284.44 145.78 286.47 146.46 C 286.46 148.75 286.7 150.84 287.16 152.74 C 285.67 152.32 283.96 151.59 281.72 150.12 Z M 281.97 142.62 C 282.59 140.54 283.64 138.8 284.99 137.31 C 285.97 137.97 286.86 138.31 287.76 138.72 C 287.01 140.77 286.69 143.05 286.56 144.95 C 285.12 144.43 283.66 143.9 281.97 142.62 Z M 286.03 136.18 C 287.57 134.89 289.08 134.02 290.56 133.47 C 289.8 134.36 289.03 135.49 288.22 137.23 C 287.4 136.88 286.66 136.53 286.03 136.18 Z" fill="#505050" stroke="none" pointer-events="none"/><path d="M 70 145.43 L 56.16 157.29" fill="none" stroke="rgb(0, 0, 0)" stroke-miterlimit="10" pointer-events="none"/><path d="M 50.85 161.84 L 53.89 154.63 L 58.44 159.95 Z" fill="rgb(0, 0, 0)" stroke="rgb(0, 0, 0)" stroke-miterlimit="10" pointer-events="none"/><path d="M 120 105.18 L 148.51 83.71" fill="none" stroke="rgb(0, 0, 0)" stroke-miterlimit="10" pointer-events="none"/><path d="M 154.11 79.5 L 150.62 86.5 L 146.41 80.91 Z" fill="rgb(0, 0, 0)" stroke="rgb(0, 0, 0)" stroke-miterlimit="10" pointer-events="none"/><path d="M 70 144.35 L 70 97 L 97.92 97 L 110 109.02 L 110 120.92 C 109.28 120.73 108.61 120.57 107.73 120.46 L 107.73 111.28 L 96.41 111.28 L 96.41 99.26 L 72.26 99.26 L 72.26 142.09 L 89.72 142.09 C 90.01 142.99 90.35 143.67 90.67 144.35 Z M 110.64 123.46 C 112.54 124.14 113.92 125.13 115.08 126.25 C 114.43 126.62 113.72 126.98 112.9 127.3 C 112.08 125.35 111.36 124.31 110.64 123.46 Z M 113.5 128.72 C 114.5 128.31 115.43 127.85 116.3 127.31 C 118.32 129.61 118.77 131.15 119.31 132.61 C 117.88 133.58 116.38 134.42 114.72 134.92 C 114.54 133.04 114.27 131.09 113.5 128.72 Z M 114.74 136.39 C 116.65 135.83 118.26 135.08 119.59 134.15 C 120 136.73 119.82 138.29 119.54 139.67 C 117.38 141.27 115.69 141.96 114.03 142.58 C 114.26 141.26 114.49 141.87 114.74 136.39 Z M 113.55 144.41 C 115.08 143.94 116.62 143.41 118.86 141.99 C 116.88 146.69 113.46 149.12 110.46 150.15 C 111.56 148.93 112.62 147.44 113.55 144.41 Z M 111.77 144.87 C 110.3 148.75 108.18 150.52 106.36 150.93 L 106.36 145.59 C 108.24 145.55 110.05 145.32 111.77 144.87 Z M 106.34 144.15 L 106.34 137.94 C 108.18 137.99 110.59 137.57 113.2 136.99 C 113.2 139.63 112.82 141.48 112.39 143.26 C 109.95 143.92 108.08 144.09 106.34 144.15 Z M 106.43 136.39 L 106.43 130.09 C 108.35 129.99 110.24 129.73 112.07 129.19 C 112.69 131.01 113.03 133.15 113.28 135.41 C 111.18 136.01 108.86 136.3 106.43 136.39 Z M 106.27 122.58 L 106.87 122.58 C 108.23 123.03 109.19 124.1 109.75 124.8 C 110.57 125.84 111.03 126.8 111.47 127.75 C 110.07 128.14 108.46 128.5 106.27 128.58 Z M 104.85 128.65 C 103.12 128.58 101.41 128.3 99.73 127.82 C 100.3 126.45 101.02 125.2 102.02 124.14 C 102.62 123.53 103.29 122.98 104.24 122.66 L 104.85 122.66 Z M 104.92 136.39 C 102.33 136.3 100.07 135.95 98.06 135.41 C 98.19 133.6 98.25 131.88 99.27 129.19 C 101.52 129.89 104.13 130.1 104.93 130.08 Z M 104.85 137.87 L 104.85 144.09 C 102.86 144.15 100.88 143.81 98.89 143.29 C 98.27 141.09 97.99 138.97 98 136.92 C 100.25 137.54 102.53 137.82 104.85 137.87 Z M 104.85 145.68 L 104.85 151 C 103.78 150.77 102.88 150.19 102.11 149.41 C 100.86 148.14 100.03 146.61 99.41 145.08 C 101.21 145.44 103.02 145.71 104.85 145.68 Z M 97.66 144.53 C 98.68 147.62 99.76 148.94 100.85 150.19 C 96.11 148.4 93.79 145.17 92.51 142.4 C 94.19 143.27 95.88 144.15 97.66 144.53 Z M 91.72 140.12 C 91.25 138.42 91.12 136.47 91.52 134.15 C 92.89 134.99 94.44 135.78 96.47 136.46 C 96.46 138.75 96.7 140.84 97.16 142.74 C 95.67 142.32 93.96 141.59 91.72 140.12 Z M 91.97 132.62 C 92.59 130.54 93.64 128.8 94.99 127.31 C 95.97 127.97 96.86 128.31 97.76 128.72 C 97.01 130.77 96.69 133.05 96.56 134.95 C 95.12 134.43 93.66 133.9 91.97 132.62 Z M 96.03 126.18 C 97.57 124.89 99.08 124.02 100.56 123.47 C 99.8 124.36 99.03 125.49 98.22 127.23 C 97.4 126.88 96.66 126.53 96.03 126.18 Z" fill="#505050" stroke="none" pointer-events="none"/><path d="M 50 82.86 L 64.01 95.67" fill="none" stroke="rgb(0, 0, 0)" stroke-miterlimit="10" pointer-events="none"/><path d="M 69.17 100.39 L 61.65 98.25 L 66.37 93.08 Z" fill="rgb(0, 0, 0)" stroke="rgb(0, 0, 0)" stroke-miterlimit="10" pointer-events="none"/><path d="M 0 294.35 L 0 247 L 27.92 247 L 40 259.02 L 40 270.92 C 39.28 270.73 38.61 270.57 37.73 270.46 L 37.73 261.28 L 26.41 261.28 L 26.41 249.26 L 2.26 249.26 L 2.26 292.09 L 19.72 292.09 C 20.01 292.99 20.35 293.67 20.67 294.35 Z M 40.64 273.46 C 42.54 274.14 43.92 275.13 45.08 276.25 C 44.43 276.62 43.72 276.98 42.9 277.3 C 42.08 275.35 41.36 274.31 40.64 273.46 Z M 43.5 278.72 C 44.5 278.31 45.43 277.85 46.3 277.31 C 48.32 279.61 48.77 281.15 49.31 282.61 C 47.88 283.58 46.38 284.42 44.72 284.92 C 44.54 283.04 44.27 281.09 43.5 278.72 Z M 44.74 286.39 C 46.65 285.83 48.26 285.08 49.59 284.15 C 50 286.73 49.82 288.29 49.54 289.67 C 47.38 291.27 45.69 291.96 44.03 292.58 C 44.26 291.26 44.49 291.87 44.74 286.39 Z M 43.55 294.41 C 45.08 293.94 46.62 293.41 48.86 291.99 C 46.88 296.69 43.46 299.12 40.46 300.15 C 41.56 298.93 42.62 297.44 43.55 294.41 Z M 41.77 294.87 C 40.3 298.75 38.18 300.52 36.36 300.93 L 36.36 295.59 C 38.24 295.55 40.05 295.32 41.77 294.87 Z M 36.34 294.15 L 36.34 287.94 C 38.18 287.99 40.59 287.57 43.2 286.99 C 43.2 289.63 42.82 291.48 42.39 293.26 C 39.95 293.92 38.08 294.09 36.34 294.15 Z M 36.43 286.39 L 36.43 280.09 C 38.35 279.99 40.24 279.73 42.07 279.19 C 42.69 281.01 43.03 283.15 43.28 285.41 C 41.18 286.01 38.86 286.3 36.43 286.39 Z M 36.27 272.58 L 36.87 272.58 C 38.23 273.03 39.19 274.1 39.75 274.8 C 40.57 275.84 41.03 276.8 41.47 277.75 C 40.07 278.14 38.46 278.5 36.27 278.58 Z M 34.85 278.65 C 33.12 278.58 31.41 278.3 29.73 277.82 C 30.3 276.45 31.02 275.2 32.02 274.14 C 32.62 273.53 33.29 272.98 34.24 272.66 L 34.85 272.66 Z M 34.92 286.39 C 32.33 286.3 30.07 285.95 28.06 285.41 C 28.19 283.6 28.25 281.88 29.27 279.19 C 31.52 279.89 34.13 280.1 34.93 280.08 Z M 34.85 287.87 L 34.85 294.09 C 32.86 294.15 30.88 293.81 28.89 293.29 C 28.27 291.09 27.99 288.97 28 286.92 C 30.25 287.54 32.53 287.82 34.85 287.87 Z M 34.85 295.68 L 34.85 301 C 33.78 300.77 32.88 300.19 32.11 299.41 C 30.86 298.14 30.03 296.61 29.41 295.08 C 31.21 295.44 33.02 295.71 34.85 295.68 Z M 27.66 294.53 C 28.68 297.62 29.76 298.94 30.85 300.19 C 26.11 298.4 23.79 295.17 22.51 292.4 C 24.19 293.27 25.88 294.15 27.66 294.53 Z M 21.72 290.12 C 21.25 288.42 21.12 286.47 21.52 284.15 C 22.89 284.99 24.44 285.78 26.47 286.46 C 26.46 288.75 26.7 290.84 27.16 292.74 C 25.67 292.32 23.96 291.59 21.72 290.12 Z M 21.97 282.62 C 22.59 280.54 23.64 278.8 24.99 277.31 C 25.97 277.97 26.86 278.31 27.76 278.72 C 27.01 280.77 26.69 283.05 26.56 284.95 C 25.12 284.43 23.66 283.9 21.97 282.62 Z M 26.03 276.18 C 27.57 274.89 29.08 274.02 30.56 273.47 C 29.8 274.36 29.03 275.49 28.22 277.23 C 27.4 276.88 26.66 276.53 26.03 276.18 Z" fill="#505050" stroke="none" pointer-events="none"/><path d="M 155 198.52 L 57.02 255.41" fill="none" stroke="rgb(0, 0, 0)" stroke-miterlimit="10" pointer-events="none"/><path d="M 50.97 258.92 L 55.26 252.38 L 58.78 258.43 Z" fill="rgb(0, 0, 0)" stroke="rgb(0, 0, 0)" stroke-miterlimit="10" pointer-events="none"/><path d="M 310 259.48 L 212.02 202.59" fill="none" stroke="rgb(0, 0, 0)" stroke-miterlimit="10" pointer-events="none"/><path d="M 205.97 199.08 L 213.78 199.57 L 210.26 205.62 Z" fill="rgb(0, 0, 0)" stroke="rgb(0, 0, 0)" stroke-miterlimit="10" pointer-events="none"/><path d="M 330 247 L 330 7 L 25 7 L 25 24.88" fill="none" stroke="rgb(0, 0, 0)" stroke-miterlimit="10" pointer-events="none"/><path d="M 25 31.88 L 21.5 24.88 L 28.5 24.88 Z" fill="rgb(0, 0, 0)" stroke="rgb(0, 0, 0)" stroke-miterlimit="10" pointer-events="none"/><path d="M 310 294.35 L 310 247 L 337.92 247 L 350 259.02 L 350 270.92 C 349.28 270.73 348.61 270.57 347.73 270.46 L 347.73 261.28 L 336.41 261.28 L 336.41 249.26 L 312.26 249.26 L 312.26 292.09 L 329.72 292.09 C 330.01 292.99 330.35 293.67 330.67 294.35 Z M 350.64 273.46 C 352.54 274.14 353.92 275.13 355.08 276.25 C 354.43 276.62 353.72 276.98 352.9 277.3 C 352.08 275.35 351.36 274.31 350.64 273.46 Z M 353.5 278.72 C 354.5 278.31 355.43 277.85 356.3 277.31 C 358.32 279.61 358.77 281.15 359.31 282.61 C 357.88 283.58 356.38 284.42 354.72 284.92 C 354.54 283.04 354.27 281.09 353.5 278.72 Z M 354.74 286.39 C 356.65 285.83 358.26 285.08 359.59 284.15 C 360 286.73 359.82 288.29 359.54 289.67 C 357.38 291.27 355.69 291.96 354.03 292.58 C 354.26 291.26 354.49 291.87 354.74 286.39 Z M 353.55 294.41 C 355.08 293.94 356.62 293.41 358.86 291.99 C 356.88 296.69 353.46 299.12 350.46 300.15 C 351.56 298.93 352.62 297.44 353.55 294.41 Z M 351.77 294.87 C 350.3 298.75 348.18 300.52 346.36 300.93 L 346.36 295.59 C 348.24 295.55 350.05 295.32 351.77 294.87 Z M 346.34 294.15 L 346.34 287.94 C 348.18 287.99 350.59 287.57 353.2 286.99 C 353.2 289.63 352.82 291.48 352.39 293.26 C 349.95 293.92 348.08 294.09 346.34 294.15 Z M 346.43 286.39 L 346.43 280.09 C 348.35 279.99 350.24 279.73 352.07 279.19 C 352.69 281.01 353.03 283.15 353.28 285.41 C 351.18 286.01 348.86 286.3 346.43 286.39 Z M 346.27 272.58 L 346.87 272.58 C 348.23 273.03 349.19 274.1 349.75 274.8 C 350.57 275.84 351.03 276.8 351.47 277.75 C 350.07 278.14 348.46 278.5 346.27 278.58 Z M 344.85 278.65 C 343.12 278.58 341.41 278.3 339.73 277.82 C 340.3 276.45 341.02 275.2 342.02 274.14 C 342.62 273.53 343.29 272.98 344.24 272.66 L 344.85 272.66 Z M 344.92 286.39 C 342.33 286.3 340.07 285.95 338.06 285.41 C 338.19 283.6 338.25 281.88 339.27 279.19 C 341.52 279.89 344.13 280.1 344.93 280.08 Z M 344.85 287.87 L 344.85 294.09 C 342.86 294.15 340.88 293.81 338.89 293.29 C 338.27 291.09 337.99 288.97 338 286.92 C 340.25 287.54 342.53 287.82 344.85 287.87 Z M 344.85 295.68 L 344.85 301 C 343.78 300.77 342.88 300.19 342.11 299.41 C 340.86 298.14 340.03 296.61 339.41 295.08 C 341.21 295.44 343.02 295.71 344.85 295.68 Z M 337.66 294.53 C 338.68 297.62 339.76 298.94 340.85 300.19 C 336.11 298.4 333.79 295.17 332.51 292.4 C 334.19 293.27 335.88 294.15 337.66 294.53 Z M 331.72 290.12 C 331.25 288.42 331.12 286.47 331.52 284.15 C 332.89 284.99 334.44 285.78 336.47 286.46 C 336.46 288.75 336.7 290.84 337.16 292.74 C 335.67 292.32 333.96 291.59 331.72 290.12 Z M 331.97 282.62 C 332.59 280.54 333.64 278.8 334.99 277.31 C 335.97 277.97 336.86 278.31 337.76 278.72 C 337.01 280.77 336.69 283.05 336.56 284.95 C 335.12 284.43 333.66 283.9 331.97 282.62 Z M 336.03 276.18 C 337.57 274.89 339.08 274.02 340.56 273.47 C 339.8 274.36 339.03 275.49 338.22 277.23 C 337.4 276.88 336.66 276.53 336.03 276.18 Z" fill="#505050" stroke="none" pointer-events="none"/><path d="M 50 274 L 301.88 274" fill="none" stroke="rgb(0, 0, 0)" stroke-miterlimit="10" pointer-events="none"/><path d="M 308.88 274 L 301.88 277.5 L 301.88 270.5 Z" fill="rgb(0, 0, 0)" stroke="rgb(0, 0, 0)" stroke-miterlimit="10" pointer-events="none"/></g></svg>