<!DOCTYPE svg PUBLIC "-//W3C//DTD SVG 1.1//EN" "http://www.w3.org/Graphics/SVG/1.1/DTD/svg11.dtd">
<svg xmlns="http://www.w3.org/2000/svg" xmlns:xlink="http://www.w3.org/1999/xlink" version="1.1" width="181px" height="264px" viewBox="-0.5 -0.5 181 264"><defs><clipPath id="mx-clip-4-153-172-26-0"><rect x="4" y="153" width="172" height="26"/></clipPath><clipPath id="mx-clip-4-179-172-26-0"><rect x="4" y="179" width="172" height="26"/></clipPath><clipPath id="mx-clip-4-205-172-26-0"><rect x="4" y="205" width="172" height="26"/></clipPath><clipPath id="mx-clip-4-239-172-26-0"><rect x="4" y="239" width="172" height="26"/></clipPath><clipPath id="mx-clip-4-31-172-26-0"><rect x="4" y="31" width="172" height="26"/></clipPath><clipPath id="mx-clip-4-65-172-26-0"><rect x="4" y="65" width="172" height="26"/></clipPath></defs><g><path d="M 90 122 L 90 102 L 90 116 L 90 100.12" fill="none" stroke="#000000" stroke-miterlimit="10" pointer-events="none"/><path d="M 90 87.12 L 96.5 100.12 L 83.5 100.12 Z" fill="none" stroke="#000000" stroke-miterlimit="10" pointer-events="none"/><path d="M 0 148 L 0 122 L 180 122 L 180 148" fill="#ffffff" stroke="#000000" stroke-miterlimit="10" pointer-events="none"/><path d="M 0 148 L 0 260 L 180 260 L 180 148" fill="none" stroke="#000000" stroke-miterlimit="10" pointer-events="none"/><path d="M 0 148 L 180 148" fill="none" stroke="#000000" stroke-miterlimit="10" pointer-events="none"/><g fill="#000000" font-family="Helvetica" font-weight="bold" text-anchor="middle" font-size="12px"><text x="89.5" y="140.5">Circle</text></g><g fill="#000000" font-family="Helvetica" clip-path="url(#mx-clip-4-153-172-26-0)" font-size="12px"><text x="5.5" y="165.5">- centerX: double</text></g><g fill="#000000" font-family="Helvetica" clip-path="url(#mx-clip-4-179-172-26-0)" font-size="12px"><text x="5.5" y="191.5">- centerY: double</text></g><g fill="#000000" font-family="Helvetica" clip-path="url(#mx-clip-4-205-172-26-0)" font-size="12px"><text x="5.5" y="217.5">- radius: double</text></g><path d="M 0 230 L 180 230" fill="none" stroke="#000000" stroke-miterlimit="10" pointer-events="none"/><g fill="#000000" font-family="Helvetica" clip-path="url(#mx-clip-4-239-172-26-0)" font-size="12px"><text x="5.5" y="251.5">+ getArea(): double</text></g><path d="M 0 26 L 0 0 L 180 0 L 180 26" fill="#ffffff" stroke="#000000" stroke-miterlimit="10" pointer-events="none"/><path d="M 0 26 L 0 86 L 180 86 L 180 26" fill="none" stroke="#000000" stroke-miterlimit="10" pointer-events="none"/><path d="M 0 26 L 180 26" fill="none" stroke="#000000" stroke-miterlimit="10" pointer-events="none"/><g fill="#000000" font-family="Helvetica" font-weight="bold" font-style="italic" text-anchor="middle" font-size="12px"><text x="89.5" y="18.5">Shape</text></g><g fill="#000000" font-family="Helvetica" clip-path="url(#mx-clip-4-31-172-26-0)" font-size="12px"><text x="5.5" y="43.5">+ color : string</text></g><path d="M 0 56 L 180 56" fill="none" stroke="#000000" stroke-miterlimit="10" pointer-events="none"/><g fill="#000000" font-family="Helvetica" font-style="italic" clip-path="url(#mx-clip-4-65-172-26-0)" font-size="12px"><text x="5.5" y="77.5">+ draw(screen : Screen): void</text></g></g></svg>